<svg width="33" height="32" viewBox="0 0 33 32" fill="none" xmlns="http://www.w3.org/2000/svg">
<path d="M16.5461 0.741817C16.6603 0.467371 17.0491 0.467372 17.1632 0.741817L20.9747 9.90568C21.0228 10.0214 21.1316 10.1004 21.2565 10.1104L31.1497 10.9036C31.446 10.9273 31.5661 11.2971 31.3404 11.4905L23.8028 17.9472C23.7076 18.0287 23.6661 18.1566 23.6952 18.2785L25.998 27.9325C26.067 28.2217 25.7524 28.4502 25.4988 28.2952L17.0288 23.1218C16.9219 23.0565 16.7874 23.0565 16.6805 23.1218L8.21055 28.2952C7.95689 28.4502 7.64235 28.2217 7.71132 27.9325L10.0142 18.2785C10.0432 18.1566 10.0017 18.0287 9.90651 17.9472L2.36897 11.4905C2.14323 11.2971 2.26337 10.9273 2.55965 10.9036L12.4528 10.1104C12.5777 10.1004 12.6865 10.0214 12.7347 9.90568L16.5461 0.741817Z" fill="#E3E3E3"/>
</svg>
