<svg width="32" height="32" viewBox="0 0 32 32" fill="none" xmlns="http://www.w3.org/2000/svg">
<path d="M15.5642 0.741817C15.6783 0.467371 16.0671 0.467372 16.1813 0.741817L19.9927 9.90568C20.0409 10.0214 20.1497 10.1004 20.2746 10.1104L30.1677 10.9036C30.464 10.9273 30.5842 11.2971 30.3584 11.4905L22.8209 17.9472C22.7257 18.0287 22.6841 18.1566 22.7132 18.2785L25.0161 27.9325C25.085 28.2217 24.7705 28.4502 24.5168 28.2952L16.0469 23.1218C15.94 23.0565 15.8055 23.0565 15.6985 23.1218L7.22861 28.2952C6.97495 28.4502 6.66042 28.2217 6.72939 27.9325L9.03223 18.2785C9.06131 18.1566 9.01975 18.0287 8.92458 17.9472L1.38703 11.4905C1.16129 11.2971 1.28143 10.9273 1.57772 10.9036L11.4709 10.1104C11.5958 10.1004 11.7046 10.0214 11.7527 9.90568L15.5642 0.741817Z" fill="#FFC122"/>
</svg>
