<svg width="46" height="62" viewBox="0 0 46 62" fill="none" xmlns="http://www.w3.org/2000/svg">
<path d="M16.6602 52.4727V54.7812H18.957V52.4727H20.0586V54.7812H22.625V55.6836H13.0156V54.7812H15.5703V52.4727H16.6602ZM18.3477 47.9492C18.3477 49.5664 20.1875 51.0547 22.2031 51.3711L21.7578 52.2969C20.0293 51.9746 18.459 50.9609 17.7617 49.5547C17.0645 50.9551 15.4941 51.9863 13.7891 52.2969L13.332 51.3711C15.3477 51.043 17.1758 49.5547 17.1758 47.9492V47.1523H18.3477V47.9492ZM29.5508 47.3633V48.2773H28.543V51.1602C29.0527 51.1309 29.5508 51.0781 30.0312 51.0195L30.1016 51.8516C27.957 52.2031 25.4609 52.2383 23.6914 52.2383L23.5625 51.3242L24.8398 51.3125V48.2773H23.8438V47.3633H29.5508ZM32.0938 46.5078V52.9062H30.9805V46.5078H32.0938ZM28.5898 53.1289C30.8047 53.1289 32.1641 53.8203 32.1641 55.0391C32.1641 56.2695 30.8047 56.9844 28.5898 56.9727C26.3633 56.9844 25.0156 56.2695 25.0156 55.0391C25.0156 53.8203 26.3633 53.1289 28.5898 53.1289ZM28.5898 53.9844C27.0312 53.9844 26.1172 54.3711 26.1172 55.0391C26.1172 55.7305 27.0312 56.1172 28.5898 56.1172C30.1484 56.1172 31.0508 55.7305 31.0508 55.0391C31.0508 54.3711 30.1484 53.9844 28.5898 53.9844ZM25.9062 51.2891C26.416 51.2832 26.9492 51.2656 27.4766 51.2305V48.2773H25.9062V51.2891Z" fill="#333332"/>
<path d="M9.5 18.5L10 8.5H33V14.825L26.3617 15.35V32.5H15.1277V18.5H9.5Z" fill="#ACBC9F"/>
<path fill-rule="evenodd" clip-rule="evenodd" d="M3.21251 18.9523V31.9499H14.8526V18.9523H3.21251ZM2.97001 17.7488C2.43429 17.7488 2 18.1798 2 18.7116V32.1906C2 32.7224 2.43429 33.1534 2.97001 33.1534H15.0951C15.6308 33.1534 16.0651 32.7224 16.0651 32.1906V18.7116C16.0651 18.1798 15.6308 17.7488 15.0951 17.7488H2.97001Z" fill="#365C16"/>
<path fill-rule="evenodd" clip-rule="evenodd" d="M26.9824 15.6022V31.9514H42.655V15.6022H26.9824ZM26.7413 14.4C26.2087 14.4 25.7769 14.8306 25.7769 15.3617V32.1918C25.7769 32.7229 26.2087 33.1535 26.7413 33.1535H42.8961C43.4288 33.1535 43.8606 32.7229 43.8606 32.1918V15.3617C43.8606 14.8306 43.4288 14.4 42.8961 14.4H26.7413Z" fill="#365C16"/>
<path fill-rule="evenodd" clip-rule="evenodd" d="M26.9824 15.6022V31.9514H42.655V15.6022H26.9824ZM26.7413 14.4C26.2087 14.4 25.7769 14.8306 25.7769 15.3617V32.1918C25.7769 32.7229 26.2087 33.1535 26.7413 33.1535H42.8961C43.4288 33.1535 43.8606 32.7229 43.8606 32.1918V15.3617C43.8606 14.8306 43.4288 14.4 42.8961 14.4H26.7413Z" fill="#365C16"/>
<path fill-rule="evenodd" clip-rule="evenodd" d="M14.3906 32.8186C14.3906 32.4487 14.6579 32.1488 14.9876 32.1488H27.5239C27.8536 32.1488 28.1209 32.4487 28.1209 32.8186C28.1209 33.1885 27.8536 33.4883 27.5239 33.4883H14.9876C14.6579 33.4883 14.3906 33.1885 14.3906 32.8186Z" fill="#365C16"/>
<path fill-rule="evenodd" clip-rule="evenodd" d="M15.0605 28.9674C15.0605 28.69 15.3359 28.4651 15.6756 28.4651L26.5013 28.4651C26.841 28.4651 27.1164 28.69 27.1164 28.9674C27.1164 29.2448 26.841 29.4697 26.5013 29.4697L15.6756 29.4697C15.3359 29.4697 15.0605 29.2448 15.0605 28.9674Z" fill="#365C16"/>
<path fill-rule="evenodd" clip-rule="evenodd" d="M2.33496 30.6419C2.33496 30.3644 2.60757 30.1395 2.94384 30.1395H15.1214C15.4577 30.1395 15.7303 30.3644 15.7303 30.6419C15.7303 30.9193 15.4577 31.1442 15.1214 31.1442H2.94384C2.60757 31.1442 2.33496 30.9193 2.33496 30.6419Z" fill="#365C16"/>
<path fill-rule="evenodd" clip-rule="evenodd" d="M26.4465 30.1395C26.4465 29.7696 26.7158 29.4697 27.0479 29.4697L42.9242 29.4697C43.2564 29.4697 43.5256 29.7696 43.5256 30.1395C43.5256 30.5094 43.2564 30.8093 42.9242 30.8093L27.0479 30.8093C26.7158 30.8093 26.4465 30.5094 26.4465 30.1395Z" fill="#365C16"/>
<path fill-rule="evenodd" clip-rule="evenodd" d="M9.03247 8.30288C9.03247 7.97117 9.30021 7.70227 9.63048 7.70227H23.5042C23.8345 7.70227 24.1022 7.97117 24.1022 8.30288C24.1022 8.63458 23.8345 8.90348 23.5042 8.90348H10.2285V18.1528C10.2285 18.4845 9.96075 18.7534 9.63048 18.7534C9.30021 18.7534 9.03247 18.4845 9.03247 18.1528V8.30288Z" fill="#365C16"/>
<path fill-rule="evenodd" clip-rule="evenodd" d="M25.4419 8.63138C25.4419 8.30324 25.7175 8.03723 26.0575 8.03723H33.1984C33.5384 8.03723 33.814 8.30324 33.814 8.63138V14.8105C33.814 15.1387 33.5384 15.4047 33.1984 15.4047C32.8584 15.4047 32.5828 15.1387 32.5828 14.8105V9.22553H26.0575C25.7175 9.22553 25.4419 8.95952 25.4419 8.63138Z" fill="#365C16"/>
<path fill-rule="evenodd" clip-rule="evenodd" d="M26.0971 3.57031C25.2008 2.26747 23.6749 1.05189 21.0399 1.21648C18.9221 1.34876 17.5992 2.30085 16.7818 3.42163C15.9516 4.55998 15.6313 5.8927 15.5928 6.75702V11.79C15.5928 12.1218 15.3237 12.3907 14.9917 12.3907C14.6597 12.3907 14.3906 12.1218 14.3906 11.79V6.7441C14.3906 6.73576 14.3908 6.72743 14.3911 6.71909C14.4353 5.6608 14.8131 4.08125 15.8103 2.71399C16.8242 1.32383 18.4665 0.17347 20.9649 0.0174135C24.1003 -0.178424 26.0004 1.30915 27.0877 2.88968C27.624 3.66928 27.9622 4.46794 28.1668 5.09323C28.2693 5.4068 28.3396 5.68073 28.3848 5.89235C28.4254 6.08268 28.4557 6.2683 28.4557 6.38368V11.79C28.4557 12.1218 28.1866 12.3907 27.8547 12.3907C27.5227 12.3907 27.2536 12.1218 27.2536 11.79V6.38368C27.2536 6.39225 27.2532 6.38947 27.2511 6.37454C27.2469 6.34544 27.2362 6.27019 27.2091 6.1429C27.1725 5.97158 27.1132 5.73867 27.0241 5.46655C26.8455 4.92047 26.5526 4.23239 26.0971 3.57031Z" fill="#365C16"/>
<path fill-rule="evenodd" clip-rule="evenodd" d="M11.529 15.2601C11.0169 14.513 10.1565 13.8216 8.64578 13.9163C7.42729 13.9927 6.6803 14.5373 6.21763 15.174C5.74221 15.8282 5.55686 16.5984 5.53396 17.0932V20.1718C5.53396 20.4982 5.26763 20.7628 4.9391 20.7628C4.61057 20.7628 4.34424 20.4982 4.34424 20.1718V17.0804C4.34424 17.0723 4.34441 17.0642 4.34474 17.056C4.37313 16.3727 4.61424 15.3612 5.25301 14.4822C5.90823 13.5805 6.97139 12.837 8.57086 12.7367C10.5826 12.6106 11.8136 13.5754 12.5124 14.5948C12.8547 15.0942 13.0694 15.6038 13.1989 16.0013C13.264 16.2009 13.3089 16.3762 13.338 16.5132C13.3627 16.6294 13.3861 16.7634 13.3861 16.8596V20.1718C13.3861 20.4982 13.1198 20.7628 12.7912 20.7628C12.4627 20.7628 12.1964 20.4982 12.1964 20.1718V16.8778C12.1964 16.8779 12.1964 16.8778 12.1964 16.8778C12.1957 16.8779 12.1918 16.8412 12.174 16.7574C12.1532 16.6598 12.119 16.5246 12.0671 16.3654C11.9627 16.0452 11.7922 15.644 11.529 15.2601Z" fill="#365C16"/>
<path fill-rule="evenodd" clip-rule="evenodd" d="M31.7912 22.6488C32.3986 23.5139 33.4333 24.3302 35.2497 24.2191C36.7122 24.1296 37.6096 23.489 38.1608 22.7484C38.7248 21.9906 38.9428 21.1023 38.9696 20.5329L38.9696 17.0202C38.9696 16.6828 39.2398 16.4093 39.5732 16.4093C39.9065 16.4093 40.1768 16.6828 40.1768 17.0202L40.1768 20.5467C40.1768 20.5555 40.1766 20.5643 40.1762 20.573C40.1432 21.3476 39.863 22.4921 39.125 23.4836C38.3701 24.4979 37.1526 25.3267 35.3226 25.4387C33.0235 25.5794 31.6146 24.5065 30.8072 23.3566C30.4114 22.7928 30.1625 22.2163 30.012 21.7656C29.9365 21.5394 29.8844 21.3409 29.8507 21.1859C29.8218 21.0534 29.7954 20.904 29.7954 20.7986L29.7954 17.0202C29.7954 16.6828 30.0656 16.4093 30.3989 16.4093C30.7323 16.4093 31.0025 16.6828 31.0025 17.0202L31.0025 20.782C31.0025 20.7814 31.0024 20.7809 31.0025 20.7809C31.0034 20.7808 31.0081 20.8245 31.0295 20.9229C31.0541 21.0357 31.0945 21.1914 31.1556 21.3745C31.2784 21.7424 31.4796 22.205 31.7912 22.6488Z" fill="#365C16"/>
</svg>
