<svg width="66" height="82" viewBox="0 0 66 82" fill="none" xmlns="http://www.w3.org/2000/svg">
<path d="M28.2921 68.4778C28.2921 69.5923 29.607 70.7068 32.149 70.9822L31.6231 72.1844C29.6383 71.9653 28.1919 71.2202 27.4656 70.1683C26.7205 71.2202 25.2804 71.9653 23.3207 72.1844L22.7822 70.9822C25.3368 70.7068 26.6391 69.5923 26.6516 68.4778V68.2398H28.2921V68.4778ZM32.6624 72.6603V73.9125H28.2545V74.6639H31.3977V77.6066H25.0488V78.2954H31.6982V79.4975H23.4835V76.4796H29.8198V75.8785H23.4709V74.6639H26.6516V73.9125H22.2688V72.6603H32.6624ZM39.7036 68.8033V70.0806H37.4245C37.4996 71.2828 38.3574 72.4849 40.1419 72.9733L39.3404 74.213C38.0381 73.8436 37.1239 73.061 36.6105 72.0592C36.0908 73.1424 35.1579 74.0002 33.8055 74.4134L33.004 73.1612C34.8198 72.6352 35.7026 71.3704 35.784 70.0806H33.4423V68.8033H39.7036ZM42.5086 68.1772V74.3633H40.9057V68.1772H42.5086ZM36.4602 74.8392V75.9036H40.9182V74.8392H42.5086V79.4474H34.8824V74.8392H36.4602ZM36.4602 78.1701H40.9182V77.1433H36.4602V78.1701Z" fill="#ACBC9F"/>
<path d="M21.5531 36.6394L16.4287 35.2663C16.7123 41.8945 15.1503 45.1616 12.5383 49.7854L17.6627 51.1585C17.2855 45.7338 18.2069 42.295 21.5531 36.6394Z" stroke="#ACBC9F" stroke-width="2"/>
<path d="M10.3348 49.3147L18.9531 51.624C20.8229 52.125 21.9957 53.9287 21.7567 55.797L5.8203 51.5268C6.54745 49.7894 8.46501 48.8137 10.3348 49.3147Z" stroke="#ACBC9F" stroke-width="2" stroke-linejoin="round"/>
<mask id="path-4-inside-1_913_3560" fill="white">
<path d="M4.6868 51.7591C5.3762 49.1862 8.02076 47.6594 10.5936 48.3488L19.2119 50.6581C21.7848 51.3474 23.3116 53.992 22.6222 56.5649V56.5649C22.5533 56.8221 22.2888 56.9748 22.0315 56.9059L5.02783 52.3498C4.77055 52.2808 4.61786 52.0164 4.6868 51.7591V51.7591Z"/>
</mask>
<path d="M4.6868 51.7591C5.3762 49.1862 8.02076 47.6594 10.5936 48.3488L19.2119 50.6581C21.7848 51.3474 23.3116 53.992 22.6222 56.5649V56.5649C22.5533 56.8221 22.2888 56.9748 22.0315 56.9059L5.02783 52.3498C4.77055 52.2808 4.61786 52.0164 4.6868 51.7591V51.7591Z" stroke="#ACBC9F" stroke-width="4" stroke-linejoin="round" mask="url(#path-4-inside-1_913_3560)"/>
<path d="M31.9839 2.52264L32.1939 6.69258" stroke="#ACBC9F" stroke-width="2" stroke-linecap="round"/>
<path d="M37.7764 3.83038L35.8733 7.54668" stroke="#ACBC9F" stroke-width="2" stroke-linecap="round"/>
<path d="M42.3828 7.84747L38.8766 10.1144" stroke="#ACBC9F" stroke-width="2" stroke-linecap="round"/>
<path d="M32.0067 17.3464L47.8607 13.0983C48.3291 12.9728 48.82 13.2014 49.0254 13.6407L53.5468 23.3103C56.506 29.6388 53.0296 37.1044 46.2815 38.9125C39.5333 40.7207 32.7898 35.9935 32.1883 29.0333L31.2692 18.3984C31.2275 17.9153 31.5383 17.4719 32.0067 17.3464Z" stroke="#ACBC9F" stroke-width="2" stroke-linejoin="round"/>
<path d="M31.7451 27.3658L53.0968 21.6446" stroke="#ACBC9F" stroke-width="2"/>
<path d="M49.1244 38L44 39.373C47.5597 44.9715 47.8406 48.5818 47.8904 53.8922L53.0148 52.5191C49.9757 48.0097 49.0543 44.571 49.1244 38Z" stroke="#ACBC9F" stroke-width="2"/>
<path d="M45.923 54.81L54.5413 52.5007C56.4111 51.9997 58.3286 52.9753 59.0558 54.7128L43.1194 58.9829C42.8804 57.1147 44.0532 55.311 45.923 54.81Z" stroke="#ACBC9F" stroke-width="2" stroke-linejoin="round"/>
<path d="M32.0067 17.3464L47.8607 13.0983C48.3291 12.9728 48.82 13.2014 49.0254 13.6407L53.5468 23.3103C56.506 29.6388 53.0296 37.1044 46.2815 38.9125C39.5333 40.7207 32.7898 35.9935 32.1883 29.0333L31.2692 18.3984C31.2275 17.9153 31.5383 17.4719 32.0067 17.3464Z" stroke="#ACBC9F" stroke-width="2" stroke-linejoin="round"/>
<path d="M31.7451 27.3658L53.0968 21.6446" stroke="#ACBC9F" stroke-width="2"/>
<path d="M49.3009 38.2234L44.1765 39.5965C47.7362 45.1949 48.0171 48.8053 48.0669 54.1156L53.1913 52.7426C50.1523 48.2332 49.2308 44.7944 49.3009 38.2234Z" stroke="#ACBC9F" stroke-width="2"/>
<mask id="path-15-inside-2_913_3560" fill="white">
<path d="M42.2539 59.7508C41.5645 57.1779 43.0913 54.5334 45.6642 53.844L54.2825 51.5347C56.8553 50.8453 59.4999 52.3721 60.1893 54.945V54.945C60.2582 55.2023 60.1055 55.4667 59.8483 55.5357L42.8446 60.0918C42.5873 60.1607 42.3228 60.0081 42.2539 59.7508V59.7508Z"/>
</mask>
<path d="M42.2539 59.7508C41.5645 57.1779 43.0913 54.5334 45.6642 53.844L54.2825 51.5347C56.8553 50.8453 59.4999 52.3721 60.1893 54.945V54.945C60.2582 55.2023 60.1055 55.4667 59.8483 55.5357L42.8446 60.0918C42.5873 60.1607 42.3228 60.0081 42.2539 59.7508V59.7508Z" stroke="#ACBC9F" stroke-width="4" stroke-linejoin="round" mask="url(#path-15-inside-2_913_3560)"/>
<mask id="path-16-inside-3_913_3560" fill="white">
<path fill-rule="evenodd" clip-rule="evenodd" d="M32.6099 15.1263L16.7559 10.8782L13.482 17.8798L30.6173 22.4711L30.8005 24.5908L12.6216 19.7198L12.2345 20.5478C9.5388 26.3127 12.7057 33.1134 18.8528 34.7605C24.1177 36.1713 29.3795 33.2149 31.1257 28.3538L31.1918 29.1193C31.2511 29.8048 31.365 30.4704 31.5287 31.1126C28.8818 35.5614 23.7325 38.1386 18.3352 36.6924C10.9861 34.7232 7.2 26.5927 10.4227 19.7006L14.9442 10.031C15.355 9.15254 16.3368 8.69534 17.2736 8.94634L33.1276 13.1944C34.0643 13.4454 34.686 14.3323 34.6025 15.2985L34.6025 15.6154L32.2946 16.2338L32.6099 15.1263ZM32.9541 26.2824L33.046 27.3456C33.1179 27.1453 33.2248 26.9731 33.3309 26.8022C33.493 26.5412 33.6532 26.2834 33.6834 25.9333L32.9541 26.2824Z"/>
</mask>
<path fill-rule="evenodd" clip-rule="evenodd" d="M32.6099 15.1263L16.7559 10.8782L13.482 17.8798L30.6173 22.4711L30.8005 24.5908L12.6216 19.7198L12.2345 20.5478C9.5388 26.3127 12.7057 33.1134 18.8528 34.7605C24.1177 36.1713 29.3795 33.2149 31.1257 28.3538L31.1918 29.1193C31.2511 29.8048 31.365 30.4704 31.5287 31.1126C28.8818 35.5614 23.7325 38.1386 18.3352 36.6924C10.9861 34.7232 7.2 26.5927 10.4227 19.7006L14.9442 10.031C15.355 9.15254 16.3368 8.69534 17.2736 8.94634L33.1276 13.1944C34.0643 13.4454 34.686 14.3323 34.6025 15.2985L34.6025 15.6154L32.2946 16.2338L32.6099 15.1263ZM32.9541 26.2824L33.046 27.3456C33.1179 27.1453 33.2248 26.9731 33.3309 26.8022C33.493 26.5412 33.6532 26.2834 33.6834 25.9333L32.9541 26.2824Z" fill="#ACBC9F"/>
<path d="M16.7559 10.8782L17.2736 8.94634C16.3368 8.69534 15.355 9.15254 14.9442 10.031L16.7559 10.8782ZM32.6099 15.1263L34.5335 15.6739C34.6802 15.1585 34.614 14.6059 34.3497 14.1398C34.0854 13.6736 33.6451 13.3331 33.1276 13.1944L32.6099 15.1263ZM13.482 17.8798L11.6703 17.0326C11.4197 17.5685 11.4192 18.1878 11.6689 18.724C11.9187 19.2603 12.393 19.6585 12.9644 19.8116L13.482 17.8798ZM30.6173 22.4711L32.6099 22.2989C32.5374 21.4605 31.9478 20.7571 31.1349 20.5393L30.6173 22.4711ZM30.8005 24.5908L30.2828 26.5226C30.9128 26.6914 31.5854 26.5425 32.0852 26.1236C32.585 25.7046 32.8492 25.0683 32.793 24.4186L30.8005 24.5908ZM12.6216 19.7198L13.1393 17.7879C12.2025 17.5369 11.2207 17.9941 10.8099 18.8726L12.6216 19.7198ZM12.2345 20.5478L14.0462 21.3949L14.0462 21.3949L12.2345 20.5478ZM18.8528 34.7605L18.3352 36.6924L18.3352 36.6924L18.8528 34.7605ZM31.1257 28.3538L33.1183 28.1816C33.0373 27.2454 32.3155 26.4917 31.3836 26.3705C30.4517 26.2493 29.5611 26.7933 29.2434 27.6777L31.1257 28.3538ZM31.1918 29.1193L29.1993 29.2915L29.1993 29.2915L31.1918 29.1193ZM31.5287 31.1126L33.2475 32.1353C33.5191 31.6789 33.5979 31.1333 33.4668 30.6186L31.5287 31.1126ZM18.3352 36.6924L18.8528 34.7605L18.8528 34.7605L18.3352 36.6924ZM10.4227 19.7006L12.2345 20.5478L10.4227 19.7006ZM14.9442 10.031L13.1325 9.18388L13.1325 9.18388L14.9442 10.031ZM17.2736 8.94634L17.7912 7.01449L17.7912 7.01449L17.2736 8.94634ZM33.1276 13.1944L32.6099 15.1263L32.6099 15.1263L33.1276 13.1944ZM34.6025 15.2985L32.6099 15.1263C32.605 15.1835 32.6025 15.241 32.6025 15.2985L34.6025 15.2985ZM34.6025 15.6154L35.1201 17.5473C35.9945 17.313 36.6025 16.5207 36.6025 15.6155L34.6025 15.6154ZM32.2946 16.2338L30.371 15.6862C30.1739 16.3788 30.3642 17.1239 30.8694 17.637C31.3746 18.1501 32.1167 18.3521 32.8122 18.1657L32.2946 16.2338ZM32.9541 26.2824L32.0906 24.4784C31.3396 24.8379 30.8899 25.625 30.9616 26.4546L32.9541 26.2824ZM33.046 27.3456L31.0534 27.5178C31.1344 28.4541 31.8563 29.2078 32.7883 29.3289C33.7203 29.45 34.6109 28.9058 34.9284 28.0212L33.046 27.3456ZM33.3309 26.8022L35.03 27.8574L35.03 27.8574L33.3309 26.8022ZM33.6834 25.9333L35.676 26.1055C35.7378 25.3904 35.4117 24.697 34.8214 24.2886C34.2312 23.8802 33.4674 23.8194 32.8199 24.1293L33.6834 25.9333ZM16.2383 12.81L32.0923 17.0581L33.1276 13.1944L17.2736 8.94634L16.2383 12.81ZM15.2937 18.7269L18.5677 11.7253L14.9442 10.031L11.6703 17.0326L15.2937 18.7269ZM31.1349 20.5393L13.9996 15.9479L12.9644 19.8116L30.0997 24.403L31.1349 20.5393ZM28.6247 22.6433L28.8079 24.763L32.793 24.4186L32.6099 22.2989L28.6247 22.6433ZM31.3181 22.6589L13.1393 17.7879L12.104 21.6516L30.2828 26.5226L31.3181 22.6589ZM10.8099 18.8726L10.4227 19.7006L14.0462 21.3949L14.4333 20.5669L10.8099 18.8726ZM10.4227 19.7006C7.2 26.5927 10.9861 34.7232 18.3352 36.6924L19.3704 32.8287C14.4252 31.5036 11.8776 26.0326 14.0462 21.3949L10.4227 19.7006ZM18.3352 36.6924C24.6341 38.3802 30.9204 34.8413 33.0079 29.0299L29.2434 27.6777C27.8386 31.5885 23.6013 33.9623 19.3704 32.8287L18.3352 36.6924ZM29.1331 28.526L29.1993 29.2915L33.1844 28.9471L33.1183 28.1816L29.1331 28.526ZM29.1993 29.2915C29.2679 30.0857 29.4001 30.859 29.5907 31.6066L33.4668 30.6186C33.3299 30.0818 33.2343 29.5238 33.1844 28.9471L29.1993 29.2915ZM29.8099 30.09C27.5645 33.864 23.2831 35.9476 18.8528 34.7605L17.8175 38.6242C24.1819 40.3296 30.1991 37.2588 33.2475 32.1353L29.8099 30.09ZM18.8528 34.7605C12.7057 33.1134 9.5388 26.3127 12.2345 20.5478L8.61101 18.8535C4.86121 26.8728 9.26648 36.333 17.8175 38.6242L18.8528 34.7605ZM12.2345 20.5478L16.7559 10.8782L13.1325 9.18388L8.61101 18.8535L12.2345 20.5478ZM16.7559 10.8782L16.7559 10.8782L17.7912 7.01449C15.9177 6.51249 13.9541 7.4269 13.1325 9.18388L16.7559 10.8782ZM16.7559 10.8782L32.6099 15.1263L33.6452 11.2626L17.7912 7.01449L16.7559 10.8782ZM32.6099 15.1263L32.6099 15.1263L36.5951 15.4707C36.7621 13.5383 35.5187 11.7646 33.6452 11.2626L32.6099 15.1263ZM32.6025 15.2985L32.6025 15.6154L36.6025 15.6155L36.6025 15.2985L32.6025 15.2985ZM34.0849 13.6836L31.777 14.302L32.8122 18.1657L35.1201 17.5473L34.0849 13.6836ZM30.6864 14.5786L30.371 15.6862L34.2182 16.7815L34.5335 15.6739L30.6864 14.5786ZM30.9616 26.4546L31.0534 27.5178L35.0386 27.1734L34.9467 26.1102L30.9616 26.4546ZM31.6319 25.7471C31.5407 25.894 31.3181 26.2395 31.1636 26.6699L34.9284 28.0212C34.9195 28.0462 34.915 28.0505 34.9298 28.0236C34.9373 28.0099 34.9482 27.9908 34.9652 27.9627C34.9829 27.9331 35.0022 27.902 35.03 27.8574L31.6319 25.7471ZM31.6908 25.7611C31.6947 25.7169 31.7028 25.675 31.7131 25.6383C31.7232 25.6027 31.733 25.5798 31.7362 25.573C31.7386 25.5676 31.7351 25.576 31.7178 25.6061C31.7092 25.6209 31.6984 25.6391 31.6838 25.663C31.6688 25.6876 31.6529 25.7133 31.6319 25.7471L35.03 27.8574C35.171 27.6303 35.5992 26.9938 35.676 26.1055L31.6908 25.7611ZM33.8176 28.0864L34.5469 27.7373L32.8199 24.1293L32.0906 24.4784L33.8176 28.0864Z" fill="#ACBC9F" mask="url(#path-16-inside-3_913_3560)"/>
<path fill-rule="evenodd" clip-rule="evenodd" d="M53.3554 22.6105L32.0037 28.3316L31.4861 26.3998L52.8378 20.6786L53.3554 22.6105Z" fill="#ACBC9F"/>
<path fill-rule="evenodd" clip-rule="evenodd" d="M42.6013 38.9832L50.3147 36.9164L50.3006 38.2341C50.2661 41.4762 50.4777 43.8768 51.0459 45.9973C51.6111 48.1067 52.5438 49.9927 54.0203 52.1837L54.8035 53.3458L47.0788 55.4156L47.0667 54.125C47.0419 51.4749 46.9581 49.3397 46.4632 47.1883C45.9717 45.0523 45.0629 42.8547 43.3324 40.133L42.6013 38.9832ZM45.7265 40.2164C47.1177 42.5956 47.9364 44.6716 48.4122 46.7399C48.8698 48.7287 49.0021 50.6787 49.0479 52.8174L51.6063 52.1319C50.4537 50.2617 49.6429 48.4887 49.114 46.5149C48.5652 44.4668 48.3309 42.2428 48.3005 39.5267L45.7265 40.2164Z" fill="#ACBC9F"/>
<path fill-rule="evenodd" clip-rule="evenodd" d="M54.7999 53.4665L46.1816 55.7758C45.2153 56.0347 44.5011 56.7648 44.2199 57.6526L57.4372 54.111C56.7497 53.4827 55.7662 53.2076 54.7999 53.4665ZM45.6639 53.8439C43.0911 54.5333 41.5642 57.1779 42.2536 59.7507C42.3226 60.008 42.587 60.1607 42.8443 60.0917L59.848 55.5356C60.1053 55.4667 60.258 55.2022 60.189 54.9449C59.4996 52.3721 56.8551 50.8452 54.2822 51.5346L45.6639 53.8439Z" fill="#ACBC9F"/>
</svg>
