<svg width="22" height="22" viewBox="0 0 22 22" fill="none" xmlns="http://www.w3.org/2000/svg">
<path d="M18.767 21.9968C18.4139 21.9959 18.0645 21.9278 17.7389 21.7964C17.4134 21.6651 17.1182 21.4731 16.8704 21.2315L11 15.6278L5.12961 21.2352C4.75259 21.6025 4.26909 21.8522 3.74211 21.9517C3.21514 22.0513 2.66915 21.9961 2.17533 21.7933C1.6766 21.6007 1.24995 21.2682 0.951095 20.8391C0.652243 20.4101 0.495075 19.9045 0.500118 19.3884V4.58267C0.500118 3.36727 1.00295 2.20165 1.898 1.34223C2.79305 0.482816 4.007 0 5.27279 0L16.7272 0C17.354 0 17.9746 0.118534 18.5536 0.348835C19.1327 0.579136 19.6588 0.916693 20.102 1.34223C20.5452 1.76777 20.8967 2.27296 21.1366 2.82896C21.3764 3.38495 21.4999 3.98086 21.4999 4.58267V19.3884C21.5052 19.9041 21.3486 20.4094 21.0505 20.8384C20.7523 21.2674 20.3265 21.6001 19.8285 21.7933C19.4923 21.9283 19.1314 21.9975 18.767 21.9968ZM5.27279 1.83307C4.51331 1.83307 3.78495 2.12276 3.24792 2.63841C2.71089 3.15406 2.40919 3.85343 2.40919 4.58267V19.3884C2.40884 19.5411 2.45564 19.6905 2.54368 19.8177C2.63172 19.9449 2.75704 20.0442 2.90382 20.103C3.05059 20.1619 3.21224 20.1776 3.36834 20.1483C3.52444 20.119 3.66799 20.0459 3.78085 19.9383L10.3318 13.6866C10.5107 13.5159 10.7526 13.4201 11.0048 13.4201C11.2569 13.4201 11.4989 13.5159 11.6777 13.6866L18.221 19.9364C18.3339 20.0441 18.4775 20.1171 18.6336 20.1465C18.7897 20.1758 18.9513 20.16 19.0981 20.1012C19.2449 20.0423 19.3702 19.943 19.4582 19.8158C19.5463 19.6886 19.5931 19.5393 19.5927 19.3865V4.58267C19.5927 3.85343 19.291 3.15406 18.754 2.63841C18.2169 2.12276 17.4886 1.83307 16.7291 1.83307H5.27279Z" fill="#AFAFAF"/>
</svg>
