<svg width="81" height="23" viewBox="0 0 81 23" fill="none" xmlns="http://www.w3.org/2000/svg">
<g clip-path="url(#clip0_376_662)">
<path d="M55.0274 15.113C53.9427 16.4043 51.9341 17.26 50.1746 17.26C47.0782 17.26 44.4452 14.6156 44.4452 11.4521C44.4452 8.28865 47.0782 5.67817 50.1746 5.67817C51.9089 5.67817 53.9553 6.54009 55.0085 7.8407C55.7274 5.89752 56.6608 4.49805 58.2059 2.84218C56.0396 1.07817 53.2269 0 50.1746 0C43.493 0 37.8613 5.22713 37.8613 11.4521C37.8613 17.6771 43.493 22.9351 50.1746 22.9351C53.2238 22.9351 56.0333 21.857 58.2059 20.0775C56.6576 18.4093 55.7464 17.0407 55.0274 15.113Z" fill="black"/>
<path d="M35.5121 11.4521C35.5121 9.41007 36.1207 7.47616 37.1738 5.79866C35.0202 2.36024 31.0093 0 26.5191 0C19.8343 0 14.2058 5.22713 14.2058 11.4521C14.2058 17.6771 19.8375 22.9351 26.5191 22.9351C31.0093 22.9351 35.0233 20.5594 37.1738 17.1148C36.1238 15.4312 35.5121 13.4942 35.5121 11.4521ZM26.5191 17.26C23.4227 17.26 20.7897 14.6156 20.7897 11.4521C20.7897 8.28865 23.4227 5.67817 26.5191 5.67817C29.6156 5.67817 32.2485 8.32263 32.2485 11.4521C32.2485 14.5816 29.6156 17.26 26.5191 17.26Z" fill="black"/>
<path d="M74.0098 15.113C72.9251 16.4043 70.9165 17.26 69.157 17.26C66.0606 17.26 63.4276 14.6156 63.4276 11.4521C63.4276 8.28865 66.0606 5.67817 69.157 5.67817C70.8913 5.67817 72.9377 6.54009 73.9909 7.8407C75.1481 6.12304 76.0153 4.8595 77.1883 2.84218C75.0189 1.07817 72.2062 0 69.157 0C62.4722 0 56.8406 5.22713 56.8406 11.4521C56.8406 17.6771 62.4722 22.9351 69.1539 22.9351C72.203 22.9351 75.0126 21.857 77.1851 20.0775C76.1225 18.3228 75.0535 17.0129 74.0067 15.113H74.0098Z" fill="#385D2C"/>
<path d="M13.3765 16.8089H9.18277C8.28726 16.8089 7.56202 16.0984 7.56202 15.221V0.386108H0.952881V16.8769C0.952881 16.8769 0.946574 22.9999 7.56202 22.9999H19.1438V22.9783C16.5172 21.6406 14.436 19.4349 13.3734 16.8089H13.3765Z" fill="black"/>
</g>
<defs>
<clipPath id="clip0_376_662">
<rect width="76.2353" height="23" fill="white" transform="translate(0.952881)"/>
</clipPath>
</defs>
</svg>
