<svg width="85" height="24" viewBox="0 0 85 24" fill="none" xmlns="http://www.w3.org/2000/svg">
<g clip-path="url(#clip0_376_662)">
<path d="M3.39705 0.0327603C3.39705 0.0327603 0.387823 -0.72108 0.244527 4.99008C0.101231 10.7668 -1.2643 23.0495 4.39169 23.3035C15.8301 23.8033 18.0301 24.6391 18.0301 19.6572C18.0301 16.5271 15.965 17.24 14.4562 17.1417C8.43771 16.7729 6.9626 18.551 6.94574 11.9713C6.92888 3.57254 9.48292 -0.172088 3.39705 0.0327603Z" fill="#231F20"/>
<path d="M45.2057 5.35885C45.2057 5.35885 49.9514 -2.10581 58.1108 1.26189C67.2734 5.03929 62.3929 11.9304 59.1561 9.19361C56.0878 6.60433 51.7215 7.13693 49.8502 10.9471C47.7345 15.2571 52.9859 18.3298 55.5399 17.0598C57.5292 16.0683 59.8388 13.4626 61.8365 14.3804C63.9691 15.3636 63.6741 19.8047 59.0886 22.435C54.5031 25.0652 46.7736 24.8112 43.8065 18.3053C40.831 11.7993 45.2142 5.35885 45.2142 5.35885H45.2057Z" fill="#231F20"/>
<path d="M66.8183 5.35885C66.8183 5.35885 71.5639 -2.10581 79.7234 1.26189C88.8859 5.03929 84.0054 11.9304 80.7686 9.19361C77.7004 6.60433 73.3341 7.13693 71.4628 10.9471C69.347 15.2571 74.5984 18.3298 77.1525 17.0598C79.1418 16.0683 81.4514 13.4626 83.4491 14.3804C85.5817 15.3636 85.2867 19.8047 80.7012 22.435C76.1157 25.0652 68.3861 24.8112 65.419 18.3053C62.4435 11.7993 66.8267 5.35885 66.8267 5.35885H66.8183Z" fill="#385D2C"/>
<path d="M29.6117 0.0245361C22.8936 0.0245361 17.4399 5.31781 17.4399 11.8566C17.4399 18.3953 22.8852 23.6886 29.6117 23.6886C36.3382 23.6886 41.7835 18.3953 41.7835 11.8566C41.7835 5.31781 36.3298 0.0245361 29.6117 0.0245361ZM29.6117 17.707C26.2822 17.707 23.5848 15.085 23.5848 11.8484C23.5848 8.61177 26.2822 5.98971 29.6117 5.98971C32.9412 5.98971 35.6386 8.61177 35.6386 11.8484C35.6386 15.085 32.9412 17.707 29.6117 17.707Z" fill="#231F20"/>
</g>
<defs>
<clipPath id="clip0_376_662">
<rect width="85" height="24" fill="white"/>
</clipPath>
</defs>
</svg>
