<svg width="20" height="23" viewBox="0 0 20 23" fill="none" xmlns="http://www.w3.org/2000/svg">
<path d="M0.50157 12.9791L2.19626 6.88179C2.69299 5.09552 3.77255 3.52656 5.26335 2.42428C6.75414 1.322 8.5706 0.749675 10.424 0.798268C12.2774 0.846861 14.0614 1.51359 15.4924 2.69247C16.9234 3.87135 17.9192 5.49473 18.3217 7.30457L19.6337 13.2048C19.7786 13.8567 19.7753 14.5329 19.6239 15.1834C19.4725 15.8339 19.177 16.442 18.7591 16.963C18.3412 17.484 17.8116 17.9044 17.2095 18.1934C16.6074 18.4823 15.948 18.6322 15.2802 18.6322H14.2865C14.0818 19.6404 13.5349 20.5468 12.7384 21.1978C11.9418 21.8488 10.9447 22.2045 9.91602 22.2045C8.88729 22.2045 7.8902 21.8488 7.09368 21.1978C6.29717 20.5468 5.75022 19.6404 5.5455 18.6322H4.79805C4.11054 18.6323 3.43232 18.4734 2.81638 18.1679C2.20044 17.8625 1.66346 17.4187 1.24739 16.8714C0.831326 16.3241 0.547438 15.688 0.417904 15.0128C0.28837 14.3376 0.317591 13.6415 0.50157 12.9791ZM9.91602 20.4161C10.4675 20.4138 11.0047 20.2412 11.4543 19.9219C11.9039 19.6026 12.2439 19.1521 12.4277 18.6322H7.40431C7.58812 19.1521 7.92808 19.6026 8.37768 19.9219C8.82729 20.2412 9.36456 20.4138 9.91602 20.4161ZM2.6681 15.7914C2.91664 16.1211 3.23866 16.3883 3.60855 16.5718C3.97845 16.7553 4.38605 16.85 4.79895 16.8483H15.2802C15.6808 16.8483 16.0764 16.7582 16.4376 16.5848C16.7988 16.4115 17.1165 16.1592 17.3672 15.8466C17.6178 15.534 17.7951 15.1692 17.8859 14.7789C17.9767 14.3887 17.9787 13.983 17.8918 13.5919L16.5806 7.69078C16.2645 6.26921 15.4824 4.99408 14.3584 4.06811C13.2344 3.14214 11.8331 2.61846 10.3774 2.58032C8.92157 2.54218 7.49481 2.99178 6.32389 3.85763C5.15297 4.72348 4.30509 5.9559 3.91503 7.35898L2.22034 13.4563C2.10836 13.8535 2.09053 14.2714 2.16825 14.6768C2.24598 15.0821 2.41712 15.4637 2.6681 15.7914Z" fill="#111111"/>
</svg>
