<svg width="18" height="24" viewBox="0 0 18 24" fill="none" xmlns="http://www.w3.org/2000/svg">
<path d="M8.99973 12C10.0954 12 11.1665 11.6751 12.0776 11.0664C12.9886 10.4576 13.6987 9.59238 14.118 8.58007C14.5373 7.56777 14.6471 6.45385 14.4333 5.3792C14.2195 4.30454 13.6919 3.3174 12.9171 2.54262C12.1423 1.76783 11.1552 1.2402 10.0805 1.02644C9.00588 0.812673 7.89196 0.922383 6.87966 1.34169C5.86735 1.761 5.00212 2.47108 4.39338 3.38213C3.78463 4.29318 3.45972 5.36429 3.45972 6.46C3.46118 7.92885 4.04533 9.33713 5.08397 10.3758C6.12261 11.4144 7.53088 11.9985 8.99973 12ZM8.99973 2.76666C9.73021 2.76666 10.4443 2.98327 11.0516 3.3891C11.659 3.79493 12.1324 4.37175 12.4119 5.04662C12.6915 5.72149 12.7646 6.4641 12.6221 7.18054C12.4796 7.89697 12.1278 8.55506 11.6113 9.07159C11.0948 9.58811 10.4367 9.93987 9.72027 10.0824C9.00383 10.2249 8.26122 10.1517 7.58635 9.8722C6.91148 9.59266 6.33466 9.11928 5.92883 8.51191C5.523 7.90454 5.30639 7.19047 5.30639 6.46C5.30639 5.48046 5.69551 4.54105 6.38814 3.84841C7.08078 3.15578 8.0202 2.76666 8.99973 2.76666Z" fill="#AFAFAF"/>
<path d="M8.99996 13.8467C6.79676 13.8491 4.68449 14.7254 3.12659 16.2833C1.56869 17.8412 0.692385 19.9535 0.689941 22.1567C0.689941 22.4016 0.787221 22.6364 0.96038 22.8096C1.13354 22.9828 1.36839 23.08 1.61328 23.08C1.85816 23.08 2.09301 22.9828 2.26617 22.8096C2.43933 22.6364 2.53661 22.4016 2.53661 22.1567C2.53661 20.4425 3.21757 18.7985 4.42968 17.5864C5.6418 16.3743 7.28578 15.6934 8.99996 15.6934C10.7142 15.6934 12.3581 16.3743 13.5702 17.5864C14.7824 18.7985 15.4633 20.4425 15.4633 22.1567C15.4633 22.4016 15.5606 22.6364 15.7338 22.8096C15.9069 22.9828 16.1418 23.08 16.3866 23.08C16.6315 23.08 16.8664 22.9828 17.0395 22.8096C17.2127 22.6364 17.31 22.4016 17.31 22.1567C17.3075 19.9535 16.4312 17.8412 14.8733 16.2833C13.3154 14.7254 11.2032 13.8491 8.99996 13.8467Z" fill="#AFAFAF"/>
</svg>
