<svg width="17" height="10" viewBox="0 0 17 10" fill="none" xmlns="http://www.w3.org/2000/svg">
<path d="M0.375 2.778H2.19375C2.343 4.58625 3.5895 4.806 4.54275 4.806C5.496 4.806 6.74175 4.58625 6.89175 2.778H16.1257C16.3328 2.778 16.5007 2.61 16.5007 2.403C16.5007 2.196 16.3328 2.028 16.1257 2.028H6.891C6.74175 0.21975 5.49525 0 4.542 0C3.58875 0 2.343 0.21975 2.193 2.028H0.375C0.168 2.028 0 2.196 0 2.403C0 2.61 0.168 2.778 0.375 2.778ZM4.542 0.75C5.5635 0.75 6.15525 1.02 6.15525 2.403C6.15525 3.786 5.5635 4.056 4.542 4.056C3.5205 4.056 2.92875 3.786 2.92875 2.403C2.92875 1.02 3.5205 0.75 4.542 0.75Z" fill="#111111" fill-opacity="0.5"/>
<path d="M16.125 6.73283H14.3063C14.157 4.92458 12.9105 4.70483 11.9573 4.70483C11.004 4.70483 9.75825 4.92458 9.60825 6.73283H0.375C0.168 6.73283 0 6.90083 0 7.10783C0 7.31483 0.168 7.48283 0.375 7.48283H9.609C9.75825 9.29108 11.0048 9.51083 11.958 9.51083C12.9113 9.51083 14.157 9.29108 14.307 7.48283H16.1257C16.3328 7.48283 16.5007 7.31483 16.5007 7.10783C16.5007 6.90083 16.332 6.73283 16.125 6.73283ZM11.958 8.76083C10.9365 8.76083 10.3448 8.49083 10.3448 7.10783C10.3448 5.72483 10.9365 5.45483 11.958 5.45483C12.9795 5.45483 13.5712 5.72483 13.5712 7.10783C13.5712 8.49083 12.9795 8.76083 11.958 8.76083Z" fill="#111111" fill-opacity="0.5"/>
</svg>
