<svg width="46" height="61" viewBox="0 0 46 61" fill="none" xmlns="http://www.w3.org/2000/svg">
<path d="M12.2305 50.6055V51.4961H2.64453V50.6055H6.89844V49.4922H3.83984V45.9766H11.0469V46.8555H4.94141V48.6016H11.1172V49.4922H7.97656V50.6055H12.2305ZM7.42578 52.1758C9.6875 52.1758 11.0469 52.8672 11.0469 54.0859C11.0469 55.3047 9.6875 55.9844 7.42578 55.9961C5.15234 55.9844 3.78125 55.3047 3.78125 54.0859C3.78125 52.8672 5.15234 52.1758 7.42578 52.1758ZM7.42578 53.043C5.82031 53.043 4.90625 53.418 4.90625 54.0859C4.90625 54.7539 5.82031 55.1289 7.42578 55.1172C9.00781 55.1289 9.93359 54.7539 9.93359 54.0859C9.93359 53.418 9.00781 53.043 7.42578 53.043ZM14.6094 46.5859V52.4219C15.6875 52.4043 16.707 52.334 17.8672 52.0938L18.0195 53.043C16.6484 53.3242 15.4883 53.3828 14.1875 53.3828H13.4961V46.5859H14.6094ZM22.0391 45.4961V55.9961H20.9844V45.4961H22.0391ZM19.7891 45.7305V55.4805H18.7344V49.8672H16.4375V48.9531H18.7344V45.7305H19.7891ZM31.5664 45.4961V49.6797H33.1953V50.6055H31.5664V55.9844H30.4531V45.4961H31.5664ZM28.8242 46.5977C28.8125 49.6328 27.4766 52.3398 24.0195 54.0508L23.3984 53.1836C26.0293 51.8711 27.459 49.9727 27.6875 47.5234H23.9258V46.5977H28.8242ZM42.7812 45.4961V55.9961H41.7266V45.4961H42.7812ZM40.5664 45.7656V55.4805H39.5117V50.6055H37.4609C36.834 51.8242 35.8379 52.8906 34.3555 53.7578L33.7227 52.9609C35.9492 51.6367 37.0215 49.873 37.2148 47.7109H34.2148V46.7969H38.3164C38.3105 47.8223 38.1699 48.8008 37.8477 49.7148H39.5117V45.7656H40.5664Z" fill="#333332"/>
<path fill-rule="evenodd" clip-rule="evenodd" d="M32 9.5L31.5 12L34.5 14.5L37 14L39 12.5L39.5 10L32 9.5ZM23 9.5V12.5L25.5 14.5H28.5L30.5 12.5L31 10L23 9.5ZM14 9.5H23H32H39L34.5 0.5H11.5L6 9.5V12.5L8.5 14.5H11.5L13.5 12.5L14 10V12.5L16.5 14.5H19.5L21.5 12.5L22 10L14 9.5ZM14 9.5V10L6 9.5H14Z" fill="#ACBC9F"/>
<path fill-rule="evenodd" clip-rule="evenodd" d="M10.9109 0.286043C11.0222 0.107819 11.2145 0 11.4211 0H34.4401C34.6528 0 34.85 0.114368 34.9595 0.301283L40.4114 9.60962C40.5236 9.80133 40.5266 10.0401 40.419 10.2346C40.3115 10.4292 40.1101 10.5495 39.8919 10.5495H5.60576C5.38439 10.5495 5.18065 10.4257 5.07437 10.2268C4.9681 10.0279 4.97621 9.78539 5.09555 9.59438L10.9109 0.286043ZM11.7526 1.24111L6.71265 9.30834H38.822L34.0971 1.24111H11.7526Z" fill="#365C16"/>
<path fill-rule="evenodd" clip-rule="evenodd" d="M5.77961 9.50478C6.10926 9.56612 6.32714 9.88509 6.26627 10.2172C6.16189 10.7867 6.18803 11.6567 6.5777 12.3921C6.94495 13.0853 7.67222 13.7338 9.14488 13.8627C9.15407 13.8635 9.16325 13.8645 9.17239 13.8657C9.82957 13.9538 10.8473 13.8814 11.7238 13.3938C12.5648 12.9261 13.3263 12.0514 13.5011 10.405C13.5367 10.0691 13.8358 9.82599 14.1691 9.86189C14.5024 9.8978 14.7438 10.1992 14.7081 10.535C14.4917 12.5752 13.5009 13.8026 12.3105 14.4646C11.162 15.1035 9.87693 15.1912 9.02621 15.08C7.18189 14.9148 6.07943 14.049 5.50678 12.9682C4.95513 11.927 4.93237 10.7596 5.07249 9.99512C5.13337 9.66298 5.44995 9.44345 5.77961 9.50478Z" fill="#365C16"/>
<path fill-rule="evenodd" clip-rule="evenodd" d="M14.4598 9.50478C14.778 9.56612 14.9884 9.88509 14.9296 10.2172C14.8289 10.7867 14.8541 11.6567 15.2303 12.3921C15.5849 13.0853 16.2871 13.7338 17.709 13.8627C17.7179 13.8635 17.7267 13.8645 17.7356 13.8657C18.3701 13.9538 19.3527 13.8814 20.199 13.3938C21.011 12.9261 21.7463 12.0514 21.9149 10.405C21.9494 10.0691 22.2381 9.82599 22.56 9.86189C22.8818 9.8978 23.1148 10.1992 23.0804 10.535C22.8714 12.5752 21.9148 13.8026 20.7655 14.4646C19.6565 15.1035 18.4158 15.1912 17.5944 15.08C15.8137 14.9148 14.7492 14.049 14.1963 12.9682C13.6637 11.927 13.6417 10.7596 13.777 9.99512C13.8358 9.66298 14.1415 9.44345 14.4598 9.50478Z" fill="#365C16"/>
<path fill-rule="evenodd" clip-rule="evenodd" d="M22.8587 9.50478C23.1884 9.56612 23.4062 9.88509 23.3454 10.2172C23.241 10.7867 23.2671 11.6567 23.6568 12.3921C24.0241 13.0853 24.7513 13.7338 26.224 13.8627C26.2332 13.8635 26.2423 13.8645 26.2515 13.8657C26.9087 13.9538 27.9264 13.8814 28.8029 13.3938C29.6439 12.9261 30.4055 12.0514 30.5802 10.405C30.6158 10.0691 30.9149 9.82599 31.2482 9.86189C31.5816 9.8978 31.8229 10.1992 31.7872 10.535C31.5708 12.5752 30.58 13.8026 29.3896 14.4646C28.2411 15.1035 26.956 15.1912 26.1053 15.08C24.261 14.9148 23.1585 14.049 22.5859 12.9682C22.0342 11.927 22.0115 10.7596 22.1516 9.99512C22.2125 9.66298 22.5291 9.44345 22.8587 9.50478Z" fill="#365C16"/>
<path fill-rule="evenodd" clip-rule="evenodd" d="M31.5389 9.50478C31.8571 9.56612 32.0675 9.88509 32.0087 10.2172C31.908 10.7867 31.9332 11.6567 32.3094 12.3921C32.664 13.0853 33.3662 13.7338 34.7881 13.8627C34.797 13.8635 34.8058 13.8645 34.8147 13.8657C35.4492 13.9538 36.4318 13.8814 37.2781 13.3938C38.0901 12.9261 38.8254 12.0514 38.9941 10.405C39.0285 10.0691 39.3172 9.82599 39.6391 9.86189C39.9609 9.8978 40.1939 10.1992 40.1595 10.535C39.9505 12.5752 38.9939 13.8026 37.8446 14.4646C36.7356 15.1035 35.4949 15.1912 34.6735 15.08C32.8928 14.9148 31.8283 14.049 31.2754 12.9682C30.7428 11.927 30.7208 10.7596 30.8561 9.99512C30.9149 9.66298 31.2206 9.44345 31.5389 9.50478Z" fill="#365C16"/>
<path fill-rule="evenodd" clip-rule="evenodd" d="M8.61805 14.0659C8.95157 14.0659 9.22194 14.3467 9.22194 14.693V30.7459H36.2761V14.693C36.2761 14.3467 36.5465 14.0659 36.88 14.0659C37.2136 14.0659 37.4839 14.3467 37.4839 14.693V31.3729C37.4839 31.7192 37.2136 32 36.88 32H8.61805C8.28453 32 8.01416 31.7192 8.01416 31.3729V14.693C8.01416 14.3467 8.28453 14.0659 8.61805 14.0659Z" fill="#365C16"/>
<path fill-rule="evenodd" clip-rule="evenodd" d="M30.4207 19.8681H25.7932C25.5242 19.8681 25.3061 20.0885 25.3061 20.3604V24.2989C25.3061 24.5708 25.5242 24.7912 25.7932 24.7912H30.4207C30.6897 24.7912 30.9078 24.5708 30.9078 24.2989V20.3604C30.9078 20.0885 30.6897 19.8681 30.4207 19.8681ZM25.7932 18.6373C24.8517 18.6373 24.0884 19.4088 24.0884 20.3604V24.2989C24.0884 25.2505 24.8517 26.0219 25.7932 26.0219H30.4207C31.3623 26.0219 32.1256 25.2505 32.1256 24.2989V20.3604C32.1256 19.4088 31.3623 18.6373 30.4207 18.6373H25.7932Z" fill="#365C16"/>
<path fill-rule="evenodd" clip-rule="evenodd" d="M15.9547 19.1923C14.9879 19.1923 14.2041 20.0372 14.2041 21.0796V31.0193C14.2041 31.3667 13.9429 31.6484 13.6206 31.6484C13.2984 31.6484 13.0371 31.3667 13.0371 31.0193V21.0796C13.0371 19.3424 14.3433 17.9341 15.9547 17.9341H17.8219C19.4332 17.9341 20.7394 19.3424 20.7394 21.0796V31.0193C20.7394 31.3667 20.4782 31.6484 20.1559 31.6484C19.8337 31.6484 19.5724 31.3667 19.5724 31.0193V21.0796C19.5724 20.0372 18.7887 19.1923 17.8219 19.1923H15.9547Z" fill="#365C16"/>
</svg>
