<svg width="15" height="15" viewBox="0 0 15 15" fill="none" xmlns="http://www.w3.org/2000/svg">
<rect width="15" height="15" rx="7.5" fill="#111111" fill-opacity="0.2"/>
<path d="M9.93408 5.05633L10.0401 4.95026C9.97743 4.88754 9.89282 4.85162 9.80414 4.85005C9.71546 4.84849 9.62963 4.88141 9.56474 4.94187L9.56468 4.9418L9.56094 4.94554L7.4952 7.01097L5.42947 4.94554L5.42953 4.94547L5.42567 4.94187C5.36078 4.88141 5.27495 4.84849 5.18627 4.85005C5.09759 4.85162 5.01298 4.88754 4.95026 4.95026C4.88754 5.01298 4.85162 5.09759 4.85005 5.18627C4.84849 5.27495 4.88141 5.36078 4.94187 5.42567L4.9418 5.42573L4.94554 5.42947L7.01097 7.4952L4.94554 9.56094L4.94547 9.56087L4.94187 9.56474C4.88141 9.62963 4.84849 9.71546 4.85005 9.80414C4.85162 9.89282 4.88754 9.97743 4.95026 10.0401L5.05633 9.93408L4.95026 10.0401C5.01298 10.1029 5.09759 10.1388 5.18627 10.1404C5.27495 10.1419 5.36078 10.109 5.42567 10.0485L5.42573 10.0486L5.42947 10.0449L7.4952 7.97943L9.55933 10.0433C9.59026 10.0759 9.62731 10.1021 9.66837 10.1204L9.72942 9.98335L9.66838 10.1204C9.71036 10.1391 9.75569 10.1491 9.80165 10.1499C9.84762 10.1508 9.89327 10.1423 9.93589 10.1251C9.97852 10.1079 10.0172 10.0822 10.0497 10.0497L9.94367 9.94367L10.0497 10.0497C10.0822 10.0172 10.1079 9.97852 10.1251 9.93589C10.1423 9.89327 10.1508 9.84762 10.1499 9.80165C10.1491 9.75569 10.1391 9.71036 10.1204 9.66838L9.98335 9.72942L10.1204 9.66837C10.1021 9.62731 10.0759 9.59026 10.0433 9.55933L7.97943 7.4952L10.0449 5.42947L10.0449 5.42953L10.0485 5.42567C10.109 5.36078 10.1419 5.27495 10.1404 5.18627C10.1388 5.09759 10.1029 5.01298 10.0401 4.95026L9.93408 5.05633Z" fill="white" stroke="white" stroke-width="0.3"/>
</svg>
