<svg width="24" height="22" viewBox="0 0 24 22" fill="none" xmlns="http://www.w3.org/2000/svg">
<path d="M20.3183 1.06585L20.2982 1.05943L17.6963 0.234294C16.7976 -0.0511535 15.8308 -0.0763502 14.9172 0.161865L9.5735 1.6462C8.9192 1.81209 8.22485 1.7537 7.61083 1.48117L7.13167 1.26847C6.4039 0.978913 5.61271 0.865579 4.82821 0.938511C4.04371 1.01144 3.29013 1.26839 2.63426 1.68658C1.97838 2.10477 1.44047 2.67129 1.06818 3.33593C0.695894 4.00057 0.500735 4.7428 0.5 5.49686L0.5 16.5675C0.502014 17.5589 0.839051 18.5231 1.46082 19.3162C2.08258 20.1093 2.95574 20.6888 3.95 20.9682L6.69946 21.7934C7.16331 21.9313 7.64642 22.0009 8.13217 21.9997C8.56515 22.0049 8.99658 21.949 9.4125 21.8337L14.9708 20.3668C15.4788 20.235 16.0148 20.2391 16.5205 20.3787L18.7658 20.9985C19.3295 21.1289 19.9168 21.1352 20.4835 21.017C21.0501 20.8988 21.5813 20.6591 22.0371 20.316C22.4929 19.9729 22.8613 19.5353 23.1147 19.0363C23.3681 18.5372 23.4999 17.9896 23.5 17.4348V5.38317C23.4985 4.43778 23.1922 3.51584 22.6228 2.74317C22.0534 1.97051 21.2486 1.38476 20.3183 1.06585ZM4.502 19.2116C3.90238 19.0457 3.37509 18.6984 2.99914 18.2217C2.62319 17.745 2.41882 17.1646 2.41667 16.5675V5.49686C2.41201 5.04273 2.52683 4.59479 2.75057 4.19425C2.97431 3.79371 3.29977 3.45346 3.697 3.2048C4.16965 2.90485 4.72448 2.74536 5.29167 2.74639C5.65743 2.74648 6.01957 2.81565 6.35733 2.94992C6.35733 2.94992 7.07129 3.24239 7.20738 3.28915V20.0212L4.502 19.2116ZM9.125 20.0074V3.55227C9.45051 3.53575 9.77347 3.48814 10.0891 3.41017L14.875 2.07986V18.5157L9.125 20.0074ZM21.5833 17.4348C21.5835 17.7094 21.5193 17.9806 21.3953 18.2283C21.2712 18.4759 21.0907 18.6938 20.8668 18.8658C20.643 19.0377 20.3817 19.1594 20.1021 19.2218C19.8226 19.2842 19.532 19.2857 19.2517 19.2263L16.7917 18.5634V1.89833L19.6839 2.7959C20.2398 2.98857 20.7202 3.34019 21.06 3.80305C21.3998 4.2659 21.5825 4.81756 21.5833 5.38317V17.4348Z" fill="#AFAFAF"/>
</svg>
