<svg width="191" height="59" viewBox="0 0 191 59" fill="none" xmlns="http://www.w3.org/2000/svg">
<g clip-path="url(#clip0_442_665)">
<path d="M135.326 38.5149C132.619 41.8061 127.61 43.9848 123.216 43.9848C115.493 43.9848 108.921 37.2466 108.921 29.1857C108.921 21.1248 115.493 14.4723 123.216 14.4723C127.548 14.4723 132.65 16.6664 135.279 19.9811C137.068 15.0325 139.401 11.4611 143.259 7.24391C137.846 2.74662 130.823 0 123.216 0C106.533 0 92.4785 13.3207 92.4785 29.1857C92.4785 45.0507 106.533 58.4492 123.208 58.4492C130.815 58.4492 137.83 55.7026 143.251 51.1664C139.386 46.9103 137.115 43.4245 135.318 38.5149H135.326Z" fill="black"/>
<path d="M86.6219 29.1857C86.6219 23.9804 88.1463 19.0551 90.7674 14.7757C85.393 6.01454 75.3831 0 64.1755 0C47.4923 0 33.4458 13.3207 33.4458 29.1857C33.4458 45.0507 47.5001 58.4492 64.1755 58.4492C75.3831 58.4492 85.393 52.3958 90.7674 43.6113C88.1463 39.3241 86.6219 34.3833 86.6219 29.1779V29.1857ZM64.1755 43.9848C56.4522 43.9848 49.8801 37.2466 49.8801 29.1857C49.8801 21.1248 56.4522 14.4723 64.1755 14.4723C71.8987 14.4723 78.4708 21.2104 78.4708 29.1857C78.4708 37.161 71.8987 43.9848 64.1755 43.9848Z" fill="black"/>
<path d="M182.692 38.5149C179.985 41.8061 174.976 43.9848 170.582 43.9848C162.858 43.9848 156.286 37.2466 156.286 29.1857C156.286 21.1248 162.858 14.4723 170.582 14.4723C174.914 14.4723 180.016 16.6664 182.645 19.9811C185.53 15.6005 187.7 12.3792 190.625 7.24391C185.219 2.74662 178.196 0 170.582 0C153.906 0 139.852 13.3207 139.852 29.1857C139.852 45.0507 153.906 58.4492 170.582 58.4492C178.188 58.4492 185.204 55.7026 190.625 51.1664C187.973 46.6925 185.305 43.3545 182.692 38.5149Z" fill="#385D2C"/>
<path d="M31.3691 42.8332H20.9081C18.6759 42.8332 16.8637 41.0203 16.8637 38.7872V0.988159H0.367188V43.0122C0.367188 43.0122 0.351632 58.6126 16.8637 58.6126H45.7656V58.5582C39.209 55.1502 34.0135 49.5325 31.3691 42.8332Z" fill="black"/>
</g>
<defs>
<clipPath id="clip0_442_665">
<rect width="190.266" height="58.6126" fill="white" transform="translate(0.367188)"/>
</clipPath>
</defs>
</svg>
