<svg width="61" height="61" viewBox="0 0 61 61" fill="none" xmlns="http://www.w3.org/2000/svg">
<rect width="61" height="61" rx="19.2632" fill="#365C16"/>
<path d="M24.1462 40.2453C24.1462 42.1265 25.3752 44.0703 27.1059 44.8103L26.4538 45.7383C25.1307 45.1551 24.0772 43.9198 23.5568 42.4149C23.0363 44.0202 21.9766 45.3872 20.6723 46.0267L19.9825 45.0862C21.6756 44.2961 22.9297 42.1766 22.9422 40.2453V39.0539H20.3713V38.0631H26.7046V39.0539H24.1462V40.2453ZM29.3131 36.9344V48.1713H28.1217V36.9344H29.3131ZM40.0895 44.1456V48.1713H38.8981V45.0862H32.477V44.1456H40.0895ZM40.0895 36.9344V43.5561H38.8981V42.0136H36.1265C35.606 42.6281 34.7846 42.9981 33.8314 42.9918C32.1384 43.0043 30.8843 41.8756 30.8843 40.2704C30.8843 38.6902 32.1384 37.549 33.8314 37.5615C34.7846 37.5552 35.5997 37.9252 36.1265 38.5397H38.8981V36.9344H40.0895ZM33.8314 38.5648C32.778 38.5648 32.0255 39.2671 32.0255 40.2704C32.0255 41.2987 32.778 41.9885 33.8314 41.9885C34.8473 41.9885 35.6123 41.2987 35.6123 40.2704C35.6123 39.2671 34.8473 38.5648 33.8314 38.5648ZM36.6532 41.0354H38.8981V39.5179H36.6532C36.7159 39.7562 36.7535 40.007 36.7535 40.2704C36.7535 40.54 36.7159 40.7971 36.6532 41.0354Z" fill="white"/>
<path fill-rule="evenodd" clip-rule="evenodd" d="M31.2665 29.6737C32.3434 28.6888 33.3402 27.6183 34.247 26.4726C36.1573 24.0537 37.3194 21.6689 37.398 19.5483C37.4292 18.6865 37.2876 17.8272 36.9818 17.0217C36.6761 16.2163 36.2124 15.4812 35.6184 14.8604C35.0244 14.2396 34.3124 13.7458 33.5249 13.4085C32.7373 13.0713 31.8904 12.8975 31.0347 12.8975C30.179 12.8975 29.3321 13.0713 28.5445 13.4085C27.757 13.7458 27.045 14.2396 26.451 14.8604C25.8571 15.4812 25.3933 16.2163 25.0876 17.0217C24.7818 17.8272 24.6402 18.6865 24.6714 19.5483C24.751 21.6689 25.914 24.0537 27.8233 26.4726C28.7302 27.6183 29.7269 28.6888 30.8039 29.6737C30.9075 29.7681 30.9846 29.8367 31.0352 29.8795L31.2665 29.6737ZM30.3441 30.7732C30.3441 30.7732 23.5439 25.0013 23.5439 19.3218C23.5439 17.3195 24.3332 15.3991 25.7381 13.9832C27.143 12.5673 29.0484 11.7719 31.0352 11.7719C33.022 11.7719 34.9274 12.5673 36.3323 13.9832C37.7372 15.3991 38.5264 17.3195 38.5264 19.3218C38.5264 25.0013 31.7262 30.7732 31.7262 30.7732C31.3479 31.1243 30.7252 31.1205 30.3441 30.7732ZM31.0352 21.9643C31.7306 21.9643 32.3975 21.6859 32.8892 21.1903C33.3809 20.6948 33.6571 20.0227 33.6571 19.3218C33.6571 18.621 33.3809 17.9489 32.8892 17.4533C32.3975 16.9578 31.7306 16.6794 31.0352 16.6794C30.3398 16.6794 29.6729 16.9578 29.1812 17.4533C28.6895 17.9489 28.4132 18.621 28.4132 19.3218C28.4132 20.0227 28.6895 20.6948 29.1812 21.1903C29.6729 21.6859 30.3398 21.9643 31.0352 21.9643ZM31.0352 23.0968C30.0418 23.0968 29.0891 22.6991 28.3866 21.9911C27.6842 21.2832 27.2896 20.323 27.2896 19.3218C27.2896 18.3207 27.6842 17.3605 28.3866 16.6525C29.0891 15.9446 30.0418 15.5469 31.0352 15.5469C32.0286 15.5469 32.9813 15.9446 33.6837 16.6525C34.3862 17.3605 34.7808 18.3207 34.7808 19.3218C34.7808 20.323 34.3862 21.2832 33.6837 21.9911C32.9813 22.6991 32.0286 23.0968 31.0352 23.0968Z" fill="white"/>
<path fill-rule="evenodd" clip-rule="evenodd" d="M31.2665 29.6737C32.3434 28.6888 33.3402 27.6183 34.247 26.4726C36.1573 24.0537 37.3194 21.6689 37.398 19.5483C37.4292 18.6865 37.2876 17.8272 36.9818 17.0217C36.6761 16.2163 36.2124 15.4812 35.6184 14.8604C35.0244 14.2396 34.3124 13.7458 33.5249 13.4085C32.7373 13.0713 31.8904 12.8975 31.0347 12.8975C30.179 12.8975 29.3321 13.0713 28.5445 13.4085C27.757 13.7458 27.045 14.2396 26.451 14.8604C25.8571 15.4812 25.3933 16.2163 25.0876 17.0217C24.7818 17.8272 24.6402 18.6865 24.6714 19.5483C24.751 21.6689 25.914 24.0537 27.8233 26.4726C28.7302 27.6183 29.7269 28.6888 30.8039 29.6737C30.9075 29.7681 30.9846 29.8367 31.0352 29.8795L31.2665 29.6737ZM28.3866 21.9911C29.0891 22.6991 30.0418 23.0968 31.0352 23.0968C32.0286 23.0968 32.9813 22.6991 33.6837 21.9911C34.3862 21.2832 34.7808 20.323 34.7808 19.3218C34.7808 18.3207 34.3862 17.3605 33.6837 16.6525C32.9813 15.9446 32.0286 15.5469 31.0352 15.5469C30.0418 15.5469 29.0891 15.9446 28.3866 16.6525C27.6842 17.3605 27.2896 18.3207 27.2896 19.3218C27.2896 20.323 27.6842 21.2832 28.3866 21.9911Z" fill="white"/>
</svg>
