<svg width="55" height="86" viewBox="0 0 55 86" fill="none" xmlns="http://www.w3.org/2000/svg">
<path fill-rule="evenodd" clip-rule="evenodd" d="M18.8648 10.1641C26.3447 7.79747 34.2029 9.25003 39.1623 11.2999C39.6539 11.5031 39.8877 12.0663 39.6845 12.5579C39.4813 13.0495 38.9181 13.2833 38.4265 13.0802C33.7541 11.1489 26.3751 9.8083 19.4459 12.0007C12.6094 14.1638 6.04709 19.8161 2.95227 32.1988C2.43669 37.1808 3.233 44.535 7.22698 50.4883C11.1914 56.3975 18.3996 61.0689 31.0489 60.5418C37.7865 60.2611 46.0732 54.7997 50.1297 46.5434C54.1304 38.4006 54.012 27.5093 43.8596 16.3041C43.5025 15.9099 43.5325 15.3008 43.9267 14.9436C44.3209 14.5865 44.93 14.6165 45.2872 15.0107C55.9392 26.7674 56.227 38.5017 51.8586 47.3929C47.546 56.1705 38.6883 62.1515 31.1291 62.4665C17.8885 63.0182 10.0072 58.09 5.6273 51.5615C1.29464 45.1034 0.481452 37.2204 1.04361 31.9295C1.04828 31.8855 1.05598 31.8419 1.06664 31.799C4.29692 18.7991 11.3043 12.5562 18.8648 10.1641Z" fill="#ACBC9F"/>
<path fill-rule="evenodd" clip-rule="evenodd" d="M48.0399 6.79635C49.2102 6.79635 50.1589 5.84766 50.1589 4.67738C50.1589 3.50711 49.2102 2.55841 48.0399 2.55841C46.8697 2.55841 45.921 3.50711 45.921 4.67738C45.921 5.84766 46.8697 6.79635 48.0399 6.79635ZM48.0399 8.72268C50.2741 8.72268 52.0852 6.91154 52.0852 4.67738C52.0852 2.44322 50.2741 0.63208 48.0399 0.63208C45.8058 0.63208 43.9946 2.44322 43.9946 4.67738C43.9946 6.91154 45.8058 8.72268 48.0399 8.72268Z" fill="#ACBC9F"/>
<path fill-rule="evenodd" clip-rule="evenodd" d="M46.2449 7.33111C46.6942 7.61583 46.8276 8.2109 46.5429 8.66022L34.2144 28.1162C33.9296 28.5655 33.3346 28.699 32.8853 28.4142C32.4359 28.1295 32.3025 27.5345 32.5872 27.0851L44.9158 7.62915C45.2005 7.17982 45.7955 7.04638 46.2449 7.33111Z" fill="#ACBC9F"/>
<path fill-rule="evenodd" clip-rule="evenodd" d="M38.1841 16.5713C38.3177 17.0862 38.0086 17.6119 37.4938 17.7455C32.5989 19.0157 25.8433 22.5982 21.5394 29.1733C17.2682 35.6983 15.3204 45.31 20.2423 58.8639C20.4238 59.3639 20.1657 59.9164 19.6657 60.0979C19.1657 60.2795 18.6132 60.0214 18.4316 59.5214C13.3365 45.4902 15.2735 35.2284 19.9276 28.1183C24.5491 21.0581 31.7594 17.2434 37.0099 15.881C37.5248 15.7474 38.0505 16.0564 38.1841 16.5713Z" fill="#ACBC9F"/>
<path fill-rule="evenodd" clip-rule="evenodd" d="M35.3267 11.0063C35.3421 11.538 34.9236 11.9816 34.3918 11.997C30.2737 12.1163 19.912 15.2533 12.8461 27.13C9.36686 32.9781 8.90865 39.1743 9.77179 44.5837C10.6371 50.0067 12.8237 54.5843 14.5475 57.1083C14.8475 57.5476 14.7345 58.1469 14.2953 58.4469C13.856 58.7469 13.2567 58.634 12.9567 58.1947C11.0846 55.4534 8.78285 50.6112 7.86952 44.8872C6.95401 39.1496 7.42686 32.4714 11.1906 26.1451C18.6108 13.6729 29.593 10.2089 34.336 10.0715C34.8677 10.056 35.3113 10.4746 35.3267 11.0063Z" fill="#ACBC9F"/>
<path fill-rule="evenodd" clip-rule="evenodd" d="M50.328 21.8037C50.7635 22.1091 50.869 22.7098 50.5635 23.1453C46.2285 29.3267 39.922 32.4605 33.8714 33.8792C27.8306 35.2957 21.9709 35.0226 18.3845 34.3252C17.8623 34.2237 17.5213 33.7181 17.6229 33.1959C17.7244 32.6737 18.23 32.3328 18.7522 32.4343C22.1006 33.0854 27.6833 33.3516 33.4317 32.0038C39.1703 30.6582 44.9996 27.724 48.9864 22.0393C49.2918 21.6037 49.8925 21.4983 50.328 21.8037Z" fill="#ACBC9F"/>
<path fill-rule="evenodd" clip-rule="evenodd" d="M53.1649 28.8967C53.6194 29.173 53.7639 29.7655 53.4876 30.2201C48.5455 38.3507 41.2293 42.233 34.1411 43.7792C27.0772 45.32 20.2022 44.553 15.9942 43.3602C15.4824 43.2152 15.1851 42.6827 15.3302 42.1709C15.4753 41.6591 16.0078 41.3619 16.5195 41.5069C20.4664 42.6257 27.0179 43.3613 33.7305 41.8971C40.4189 40.4381 47.2291 36.8078 51.8415 29.2195C52.1178 28.7649 52.7103 28.6204 53.1649 28.8967Z" fill="#ACBC9F"/>
<path fill-rule="evenodd" clip-rule="evenodd" d="M54.2708 39.0207C54.6662 39.3765 54.6983 39.9855 54.3424 40.3809C40.1441 56.1568 23.4878 54.1137 16.8129 51.0123C16.3305 50.7881 16.1211 50.2154 16.3453 49.733C16.5694 49.2505 17.1422 49.0412 17.6246 49.2653C23.6636 52.0713 39.3697 54.1377 52.9106 39.0923C53.2664 38.6969 53.8754 38.6648 54.2708 39.0207Z" fill="#ACBC9F"/>
<path d="M7.85811 75.4141C7.85811 77.1422 8.48423 78.8703 10.0996 79.7468L9.22306 80.9114C8.19621 80.3855 7.51374 79.4588 7.11928 78.3443C6.71856 79.559 6.03609 80.5858 5.00299 81.1869L4.08885 79.9848C5.72929 79.0331 6.34289 77.1797 6.35541 75.4141V75.1511H4.51461V73.8738H6.35541V72.3335H7.84559V73.8738H9.64882V75.1511H7.85811V75.4141ZM14.1569 71.9453V83.3408H12.6417V71.9453H14.1569ZM11.8277 72.1332V82.8148H10.325V77.5679H8.98513V76.2656H10.325V72.1332H11.8277ZM24.6042 71.9453V78.8327H23.0138V76.5912H21.5361V75.2888H23.0138V71.9453H24.6042ZM24.6042 79.3211V83.2156H16.9404V79.3211H24.6042ZM18.5433 80.5733V81.9383H23.0388V80.5733H18.5433ZM21.7365 72.9346V74.2119H15.0245V72.9346H17.6041V71.8452H19.1819V72.9346H21.7365ZM18.393 74.5876C19.9959 74.5876 21.1229 75.4391 21.1229 76.6287C21.1229 77.8685 19.9959 78.695 18.393 78.695C16.8027 78.695 15.6506 77.8685 15.6506 76.6287C15.6506 75.4391 16.8027 74.5876 18.393 74.5876ZM18.393 75.7897C17.6542 75.7897 17.1783 76.0903 17.1909 76.6287C17.1783 77.2048 17.6542 77.5178 18.393 77.5178C19.1193 77.5178 19.5952 77.2048 19.5952 76.6287C19.5952 76.0903 19.1193 75.7897 18.393 75.7897ZM30.0048 72.6967L27.0746 83.5537H25.4842L28.402 72.6967H30.0048ZM35.2052 79.0456C37.6971 79.0456 39.2624 79.8345 39.275 81.1994C39.2624 82.5393 37.6971 83.3408 35.2052 83.3408C32.7382 83.3408 31.1479 82.5393 31.1479 81.1994C31.1479 79.8345 32.7382 79.0456 35.2052 79.0456ZM35.2052 80.2352C33.6399 80.2352 32.7382 80.5608 32.7382 81.1994C32.7382 81.813 33.6399 82.1261 35.2052 82.1261C36.7705 82.1261 37.6846 81.813 37.6846 81.1994C37.6846 80.5608 36.7705 80.2352 35.2052 80.2352ZM39.2124 72.4588V73.3854C39.2124 74.287 39.2124 75.2638 38.8868 76.4409L37.3215 76.2906C37.5719 75.2575 37.6032 74.4874 37.622 73.711H31.2606V72.4588H39.2124ZM40.4396 77.0295V78.3193H30.096V77.0295H33.978V75.0384H35.5558V77.0295H40.4396ZM46.0782 78.9204C48.4449 78.9204 49.9226 79.7343 49.9226 81.1243C49.9226 82.5393 48.4449 83.3533 46.0782 83.3533C43.6613 83.3533 42.1712 82.5393 42.1712 81.1243C42.1712 79.7343 43.6613 78.9204 46.0782 78.9204ZM46.0782 80.1601C44.5755 80.1601 43.7615 80.4731 43.774 81.1243C43.7615 81.7755 44.5755 82.1136 46.0782 82.1136C47.5558 82.1136 48.3447 81.7755 48.3447 81.1243C48.3447 80.4731 47.5558 80.1601 46.0782 80.1601ZM49.8099 71.9453V74.5876H51.3501V75.9275H49.8099V78.6699H48.207V71.9453H49.8099ZM42.6971 72.6591V74.0992H45.0263V72.6591H46.6292V78.0187H41.1068V72.6591H42.6971ZM42.6971 76.754H45.0263V75.3389H42.6971V76.754Z" fill="#ACBC9F"/>
</svg>
