<svg width="46" height="60" viewBox="0 0 46 60" fill="none" xmlns="http://www.w3.org/2000/svg">
<path d="M16.1914 46.8047C16.1914 47.9883 16.9414 49.1367 18.2773 49.6172L17.75 50.4609C16.7598 50.0742 16.0684 49.3535 15.6875 48.4688C15.3242 49.4355 14.6211 50.2266 13.6016 50.6367L13.0742 49.8164C14.3984 49.2773 15.1367 48.0703 15.1367 46.8047V46.7109H13.3086V45.8203H15.1367V44.6133H16.1914V45.8203H17.9961V46.7109H16.1914V46.8047ZM21.9688 44.5078V50.9297H20.9141V48.1641H19.7188V50.8828H18.6523V44.6836H19.7188V47.25H20.9141V44.5078H21.9688ZM21.9688 51.457V54.9961H20.8672V52.3594H14.832V51.457H21.9688ZM28.25 51.0352C30.418 51.0352 31.7305 51.7617 31.7305 53.0039C31.7305 54.2578 30.418 54.9844 28.25 54.9961C26.0586 54.9844 24.7227 54.2578 24.7227 53.0039C24.7227 51.7617 26.0586 51.0352 28.25 51.0352ZM28.25 51.9141C26.7266 51.9141 25.8242 52.3008 25.8359 53.0039C25.8242 53.707 26.7266 54.1055 28.25 54.1055C29.7617 54.1055 30.6406 53.707 30.6406 53.0039C30.6406 52.3008 29.7617 51.9141 28.25 51.9141ZM31.6367 44.4961V47.0625H33.1602V48.0117H31.6367V50.7656H30.5234V44.4961H31.6367ZM24.8867 45.1523V46.6641H27.6406V45.1523H28.7422V50.0273H23.7969V45.1523H24.8867ZM24.8867 49.1367H27.6406V47.543H24.8867V49.1367Z" fill="#333332"/>
<path d="M7 4.5V24L14 23L22 24.5L29.5 23.5C33.5 22.7 37.5 23.8333 39 24.5V4H41.5V27.5H25.5L23.5 29.5H21.5L19.5 27H4V4.5H7Z" fill="#ACBC9F"/>
<path d="M15 8.5V0.5L18.5 1V8.5L17 7.5L15 8.5Z" fill="#ACBC9F"/>
<path fill-rule="evenodd" clip-rule="evenodd" d="M31.7119 0.0552684C34.703 0.247534 37.2897 0.906178 38.7776 1.46598C39.0123 1.55426 39.1674 1.77678 39.1674 2.02513V24.5181C39.1674 24.7332 39.0506 24.9318 38.8616 25.0381C38.6725 25.1444 38.4403 25.1421 38.2535 25.0321C36.3886 23.9339 33.425 23.6706 30.3619 23.8441C27.331 24.0158 24.3375 24.6058 22.5166 25.0953C22.3349 25.1442 22.1405 25.1065 21.9908 24.9933C21.8412 24.8801 21.7534 24.7044 21.7534 24.5181V2.02513C21.7534 1.78583 21.8976 1.56955 22.1199 1.47528C25.2824 0.134349 28.7209 -0.136995 31.7119 0.0552684ZM22.9627 2.42523V23.7464C24.859 23.2881 27.5563 22.8046 30.2928 22.6496C32.9848 22.4971 35.819 22.655 37.9581 23.5496V2.44479C36.534 1.95877 34.2515 1.41747 31.6335 1.24918C28.8806 1.07223 25.7962 1.31024 22.9627 2.42523Z" fill="#365C16"/>
<path fill-rule="evenodd" clip-rule="evenodd" d="M13.326 0.0552684C10.3924 0.247534 7.85548 0.906178 6.39618 1.46598C6.16607 1.55426 6.01395 1.77678 6.01395 2.02513V24.5181C6.01395 24.7332 6.12848 24.9318 6.31388 25.0381C6.49929 25.1444 6.72703 25.1421 6.91029 25.0321C8.73932 23.9339 11.6459 23.6706 14.65 23.8441C17.6227 24.0158 20.5586 24.6058 22.3445 25.0953C22.5228 25.1442 22.7134 25.1065 22.8602 24.9933C23.0069 24.8801 23.093 24.7044 23.093 24.5181V2.02513C23.093 1.78583 22.9516 1.56955 22.7336 1.47528C19.6319 0.134349 16.2596 -0.136995 13.326 0.0552684ZM21.907 2.42523V23.7464C20.0472 23.2881 17.4017 22.8046 14.7179 22.6496C12.0776 22.4971 9.29788 22.655 7.2 23.5496V2.44479C8.59667 1.95877 10.8352 1.41747 13.4029 1.24918C16.1029 1.07223 19.1279 1.31024 21.907 2.42523Z" fill="#365C16"/>
<path fill-rule="evenodd" clip-rule="evenodd" d="M3 4.90369C3 4.04499 3.69739 3.34888 4.55767 3.34888H6.71444C7.04532 3.34888 7.31355 3.61661 7.31355 3.94688C7.31355 4.27715 7.04532 4.54489 6.71444 4.54489H4.55767C4.35914 4.54489 4.19821 4.70553 4.19821 4.90369V26.5515C4.19821 26.7497 4.35914 26.9103 4.55767 26.9103H19.133C19.7761 26.9103 20.2913 27.2999 20.5796 27.7548C20.9782 28.3837 21.586 28.9436 22.2911 28.9436C23.4045 28.9436 24.138 28.4595 24.4866 27.8993C24.7706 27.4429 25.3035 26.9103 26.0556 26.9103H40.6237C40.8223 26.9103 40.9832 26.7497 40.9832 26.5515V4.90369C40.9832 4.70553 40.8223 4.54489 40.6237 4.54489H38.5868C38.2559 4.54489 37.9877 4.27715 37.9877 3.94688C37.9877 3.61661 38.2559 3.34888 38.5868 3.34888H40.6237C41.484 3.34888 42.1814 4.04499 42.1814 4.90369V26.5515C42.1814 27.4102 41.484 28.1064 40.6237 28.1064H26.0556C25.9091 28.1064 25.6946 28.2248 25.5045 28.5303C24.9123 29.4819 23.7693 30.1396 22.2911 30.1396C20.9455 30.1396 20.0249 29.1167 19.567 28.3942C19.4399 28.1937 19.2667 28.1064 19.133 28.1064H4.55767C3.69739 28.1064 3 27.4102 3 26.5515V4.90369Z" fill="#365C16"/>
<path fill-rule="evenodd" clip-rule="evenodd" d="M15.0139 0.334839C15.3607 0.334839 15.6418 0.59722 15.6418 0.920884V7.71068L16.4536 6.95299C16.6988 6.72412 17.0964 6.72412 17.3416 6.95299L18.1534 7.71068V0.920884C18.1534 0.59722 18.4346 0.334839 18.7813 0.334839C19.1281 0.334839 19.4092 0.59722 19.4092 0.920884V9.12552C19.4092 9.36255 19.2563 9.57625 19.0216 9.66696C18.787 9.75766 18.5169 9.70753 18.3373 9.53992L16.8976 8.19618L15.4579 9.53992C15.2783 9.70753 15.0082 9.75766 14.7736 9.66696C14.539 9.57625 14.386 9.36255 14.386 9.12552V0.920884C14.386 0.59722 14.6671 0.334839 15.0139 0.334839Z" fill="#365C16"/>
</svg>
