<svg width="24" height="21" viewBox="0 0 24 21" fill="none" xmlns="http://www.w3.org/2000/svg">
<path d="M12 21L10.9897 20.1018C8.81367 18.1453 7.01367 16.4706 5.58967 15.0777C4.16589 13.6846 3.042 12.4561 2.218 11.3921C1.394 10.3282 0.818333 9.36544 0.491 8.50399C0.163667 7.64275 0 6.77638 0 5.90487C0 4.23598 0.576111 2.83466 1.72833 1.70093C2.88033 0.566976 4.30422 0 6 0C7.17267 0 8.27267 0.295243 9.3 0.88573C10.3273 1.47622 11.2273 2.33505 12 3.46222C12.7727 2.33505 13.6727 1.47622 14.7 0.88573C15.7273 0.295243 16.8273 0 18 0C19.6958 0 21.1197 0.566976 22.2717 1.70093C23.4239 2.83466 24 4.23598 24 5.90487C24 6.77638 23.8363 7.64275 23.509 8.50399C23.1817 9.36544 22.606 10.3282 21.782 11.3921C20.958 12.4561 19.8383 13.6846 18.423 15.0777C17.0077 16.4706 15.2034 18.1453 13.0103 20.1018L12 21Z" fill="#FA9F16"/>
</svg>
