<svg width="58" height="76" viewBox="0 0 58 76" fill="none" xmlns="http://www.w3.org/2000/svg">
<path fill-rule="evenodd" clip-rule="evenodd" d="M10.2587 1.22729C10.4357 0.950672 10.7415 0.783325 11.0699 0.783325H47.6703C48.0086 0.783325 48.3221 0.960836 48.4962 1.25095L57.1647 15.6985C57.3432 15.996 57.3479 16.3666 57.1769 16.6686C57.006 16.9705 56.6858 17.1572 56.3388 17.1572H1.82352C1.47154 17.1572 1.14758 16.9652 0.978603 16.6564C0.809624 16.3476 0.822533 15.9713 1.01227 15.6748L10.2587 1.22729ZM11.597 2.70966L3.58348 15.2308H54.6376L47.1249 2.70966H11.597Z" fill="#ACBC9F"/>
<path fill-rule="evenodd" clip-rule="evenodd" d="M2.09745 15.2469C2.62054 15.3435 2.96629 15.8459 2.86969 16.369C2.70407 17.2658 2.74554 18.636 3.36387 19.7943C3.94664 20.886 5.10068 21.9073 7.43752 22.1103C7.45211 22.1116 7.46667 22.1132 7.48119 22.1151C8.524 22.2538 10.1389 22.1398 11.5299 21.3719C12.8644 20.6352 14.0728 19.2577 14.35 16.6646C14.4065 16.1357 14.8812 15.7528 15.4101 15.8093C15.939 15.8659 16.322 16.3405 16.2654 16.8694C15.9219 20.0826 14.3498 22.0156 12.4608 23.0584C10.6383 24.0644 8.59917 24.2027 7.24922 24.0275C4.32262 23.7673 2.57322 22.4037 1.66452 20.7015C0.789159 19.0617 0.753035 17.2232 0.975385 16.0191C1.07198 15.496 1.57435 15.1503 2.09745 15.2469Z" fill="#ACBC9F"/>
<path fill-rule="evenodd" clip-rule="evenodd" d="M15.5808 15.2469C16.1039 15.3435 16.4497 15.8459 16.3531 16.369C16.1875 17.2658 16.2289 18.636 16.8473 19.7943C17.43 20.886 18.5841 21.9073 20.9209 22.1103C20.9355 22.1116 20.9501 22.1132 20.9646 22.1151C22.0074 22.2538 23.6223 22.1398 25.0133 21.3719C26.3478 20.6352 27.5562 19.2577 27.8334 16.6646C27.8899 16.1357 28.3646 15.7528 28.8935 15.8093C29.4224 15.8659 29.8054 16.3405 29.7488 16.8694C29.4053 20.0826 27.8332 22.0156 25.9442 23.0584C24.1217 24.0644 22.0826 24.2027 20.7326 24.0275C17.806 23.7673 16.0566 22.4037 15.1479 20.7015C14.2726 19.0617 14.2364 17.2232 14.4588 16.0191C14.5554 15.496 15.0577 15.1503 15.5808 15.2469Z" fill="#ACBC9F"/>
<path fill-rule="evenodd" clip-rule="evenodd" d="M29.4505 15.2469C29.9736 15.3435 30.3193 15.8459 30.2227 16.369C30.0571 17.2658 30.0986 18.636 30.7169 19.7943C31.2997 20.886 32.4537 21.9073 34.7905 22.1103C34.8051 22.1116 34.8197 22.1132 34.8342 22.1151C35.877 22.2538 37.4919 22.1398 38.8829 21.3719C40.2174 20.6352 41.4258 19.2577 41.703 16.6646C41.7596 16.1357 42.2342 15.7528 42.7631 15.8093C43.2921 15.8659 43.675 16.3405 43.6184 16.8694C43.2749 20.0826 41.7028 22.0156 39.8139 23.0584C37.9913 24.0644 35.9522 24.2027 34.6022 24.0275C31.6756 23.7673 29.9262 22.4037 29.0175 20.7015C28.1422 19.0617 28.1061 17.2232 28.3284 16.0191C28.425 15.496 28.9274 15.1503 29.4505 15.2469Z" fill="#ACBC9F"/>
<path fill-rule="evenodd" clip-rule="evenodd" d="M42.9353 15.2469C43.4584 15.3435 43.8042 15.8459 43.7076 16.369C43.542 17.2658 43.5834 18.636 44.2018 19.7943C44.7845 20.886 45.9386 21.9073 48.2754 22.1103C48.29 22.1116 48.3046 22.1132 48.3191 22.1151C49.3619 22.2538 50.9768 22.1398 52.3678 21.3719C53.7023 20.6352 54.9107 19.2577 55.1879 16.6646C55.2444 16.1357 55.7191 15.7528 56.248 15.8093C56.7769 15.8659 57.1599 16.3405 57.1033 16.8694C56.7598 20.0826 55.1877 22.0156 53.2987 23.0584C51.4762 24.0644 49.4371 24.2027 48.0871 24.0275C45.1605 23.7673 43.4111 22.4037 42.5024 20.7015C41.627 19.0617 41.5909 17.2232 41.8133 16.0191C41.9099 15.496 42.4122 15.1503 42.9353 15.2469Z" fill="#ACBC9F"/>
<path fill-rule="evenodd" clip-rule="evenodd" d="M6.44657 22.3583C6.97851 22.3583 7.40973 22.7895 7.40973 23.3214V47.9785H50.5596V23.3214C50.5596 22.7895 50.9908 22.3583 51.5228 22.3583C52.0547 22.3583 52.486 22.7895 52.486 23.3214V48.9417C52.486 49.4736 52.0547 49.9049 51.5228 49.9049H6.44657C5.91462 49.9049 5.4834 49.4736 5.4834 48.9417V23.3214C5.4834 22.7895 5.91462 22.3583 6.44657 22.3583Z" fill="#ACBC9F"/>
<path fill-rule="evenodd" clip-rule="evenodd" d="M41.12 31.2194H33.7999C33.3743 31.2194 33.0294 31.5644 33.0294 31.99V38.1542C33.0294 38.5798 33.3743 38.9248 33.7999 38.9248H41.12C41.5455 38.9248 41.8905 38.5798 41.8905 38.1542V31.99C41.8905 31.5644 41.5455 31.2194 41.12 31.2194ZM33.7999 29.2931C32.3105 29.2931 31.103 30.5005 31.103 31.99V38.1542C31.103 39.6437 32.3105 40.8511 33.7999 40.8511H41.12C42.6094 40.8511 43.8168 39.6437 43.8168 38.1542V31.99C43.8168 30.5005 42.6094 29.2931 41.12 29.2931H33.7999Z" fill="#ACBC9F"/>
<path fill-rule="evenodd" clip-rule="evenodd" d="M18.1967 30.2562C16.6009 30.2562 15.3072 31.5498 15.3072 33.1457V48.3637C15.3072 48.8957 14.876 49.3269 14.344 49.3269C13.8121 49.3269 13.3809 48.8957 13.3809 48.3637V33.1457C13.3809 30.486 15.537 28.3298 18.1967 28.3298H21.2788C23.9385 28.3298 26.0947 30.486 26.0947 33.1457V48.3637C26.0947 48.8957 25.6634 49.3269 25.1315 49.3269C24.5996 49.3269 24.1683 48.8957 24.1683 48.3637V33.1457C24.1683 31.5498 22.8747 30.2562 21.2788 30.2562H18.1967Z" fill="#ACBC9F"/>
<path d="M23.574 67.8185V69.0958H13.1804V67.8185H17.5632V66.9044C15.5096 66.7353 14.2197 65.8838 14.2197 64.5627C14.2197 63.1351 15.8602 62.2335 18.3772 62.2335C20.8692 62.2335 22.5096 63.1351 22.5221 64.5627C22.5096 65.89 21.2073 66.7416 19.1661 66.9044V67.8185H23.574ZM22.3969 71.8633V73.1406H14.4326V69.8096H16.0355V71.8633H22.3969ZM18.3772 63.4983C16.7994 63.4983 15.8727 63.8864 15.8852 64.5627C15.8727 65.3015 16.7994 65.6521 18.3772 65.6521C19.955 65.6521 20.8692 65.3015 20.8692 64.5627C20.8692 63.8864 19.955 63.4983 18.3772 63.4983ZM32.8692 61.9455V66.2532H34.5472V67.5681H32.8692V73.366H31.2914V61.9455H32.8692ZM29.6134 62.8972V67.3176H25.9443V69.3838C27.6035 69.3775 28.9747 69.3024 30.4899 69.0457L30.6277 70.323C28.8871 70.6361 27.3217 70.7112 25.3181 70.7112H24.3539V66.0528H28.023V64.187H24.3414V62.8972H29.6134ZM44.1179 61.958V70.1477H42.515V61.958H44.1179ZM44.4184 71.8633V73.1406H36.4792V69.3212H38.0946V71.8633H44.4184ZM37.8692 62.6843C39.6223 62.6843 40.9873 63.8864 40.9873 65.5519C40.9873 67.255 39.6223 68.4446 37.8692 68.4446C36.116 68.4446 34.7511 67.255 34.7511 65.5519C34.7511 63.8864 36.116 62.6843 37.8692 62.6843ZM37.8692 64.0743C36.9801 64.0618 36.3039 64.6253 36.3164 65.5519C36.3039 66.5036 36.9801 67.0546 37.8692 67.0546C38.7332 67.0546 39.4094 66.5036 39.4094 65.5519C39.4094 64.6253 38.7332 64.0618 37.8692 64.0743Z" fill="#ACBC9F"/>
</svg>
