<svg width="46" height="65" viewBox="0 0 46 65" fill="none" xmlns="http://www.w3.org/2000/svg">
<path d="M18.2539 50.2695V54.9922H13.4258V50.2695H18.2539ZM14.5156 51.1719V54.1016H17.1523V51.1719H14.5156ZM21.2656 49.4961V52.2852H22.7891V53.2227H21.2656V56.457H20.1523V49.4961H21.2656ZM18.5703 56.2578C18.5586 57.6523 20.0586 58.7656 22.0508 59.0703L21.6055 59.9492C20.0117 59.6738 18.6641 58.8945 18.0312 57.7695C17.3809 58.8945 16.0273 59.6738 14.4336 59.9492L14 59.0703C15.9688 58.7656 17.4688 57.6523 17.4688 56.2578V55.9531H18.5703V56.2578ZM27.2773 51.1719C27.2773 52.4727 28.2969 53.6914 29.9141 54.1602L29.3516 55.0273C28.127 54.6582 27.2012 53.8555 26.7266 52.8242C26.252 53.9258 25.3145 54.7988 24.0547 55.2148L23.4922 54.3359C25.1211 53.832 26.1406 52.5547 26.1523 51.1719V51.0547H23.7969V50.1523H29.5859V51.0547H27.2773V51.1719ZM32.0938 49.4961V55.1797H30.9805V49.4961H32.0938ZM26.3164 55.6719V56.8438H30.9922V55.6719H32.0938V59.8672H25.2266V55.6719H26.3164ZM26.3164 58.9648H30.9922V57.7227H26.3164V58.9648Z" fill="#333332"/>
<path d="M25.0001 13.5C24.2001 15.9 26.0001 17.5 27.0001 18L26.5 29L27.5 30H29V18C29.5 17 30 16 29.5 13C29.1 10.6 28 10 27.5 10C27 10.1667 25.8001 11.1 25.0001 13.5Z" fill="#ACBC9F"/>
<path d="M15.5009 13.5C15.5011 14.6609 16.5008 17 17.5008 17.5L16.7 29L17.7 30L19.7 29.3268L19.2 18C19.7 17 21.0019 15.3078 21.0009 12.2664C21 9.5 22.8576 9.76652 17.7 9.76644C14.1829 9.76639 15.5003 9.50008 15.5009 13.5Z" fill="#ACBC9F"/>
<path fill-rule="evenodd" clip-rule="evenodd" d="M15.6388 9.37671C15.9633 9.37671 16.2263 9.64467 16.2263 9.97522V15.3533L18.0518 17.2129C18.1714 17.3347 18.2336 17.5032 18.2226 17.6751L17.519 28.6651C17.5225 28.8091 17.5705 29.0409 17.6993 29.2341C17.8167 29.4101 18.0125 29.5763 18.3901 29.6084C18.722 29.6365 18.9056 29.5063 19.038 29.3205C19.1837 29.116 19.2596 28.8414 19.2797 28.6425L18.5776 17.6751C18.5666 17.5032 18.6289 17.3347 18.7484 17.2129L20.5739 15.3533V9.97522C20.5739 9.64467 20.837 9.37671 21.1614 9.37671C21.4859 9.37671 21.7489 9.64467 21.7489 9.97522V15.6012C21.7489 15.7599 21.687 15.9122 21.5769 16.0244L19.7675 17.8677L20.4552 28.6097C20.4569 28.6369 20.4568 28.6642 20.4549 28.6913C20.4298 29.0493 20.306 29.5787 19.9889 30.0237C19.6493 30.5003 19.0888 30.8688 18.2926 30.8013C17.5422 30.7375 17.033 30.3651 16.7273 29.9067C16.4381 29.473 16.3438 28.9852 16.3438 28.6487C16.3438 28.6357 16.3442 28.6227 16.345 28.6097L17.0328 17.8677L15.2233 16.0244C15.1132 15.9122 15.0513 15.7599 15.0513 15.6012V9.97522C15.0513 9.64467 15.3143 9.37671 15.6388 9.37671Z" fill="#365C16"/>
<path fill-rule="evenodd" clip-rule="evenodd" d="M27.5505 10.5889C27.5099 10.5895 27.468 10.59 27.4244 10.59C27.3214 10.59 27.1137 10.6179 26.8244 10.9668C26.5147 11.3404 26.1326 12.0614 25.7567 13.4142C25.1001 15.7774 26.4283 17.075 27.0996 17.4201C27.3093 17.5279 27.4366 17.7537 27.4235 17.9944L26.8411 28.6534C26.8943 28.8394 27.0056 29.0962 27.178 29.3073C27.3659 29.5373 27.5955 29.6807 27.8944 29.6807C28.1754 29.6807 28.3222 29.5578 28.4267 29.3815C28.5481 29.1766 28.5978 28.9063 28.5994 28.7231L28.2472 17.9808C28.2425 17.8367 28.2881 17.6957 28.3756 17.5831C28.4605 17.474 28.5586 17.3748 28.6417 17.2926C28.666 17.2686 28.6894 17.2457 28.7123 17.2233C28.7748 17.162 28.8334 17.1047 28.896 17.039C29.0577 16.8695 29.2121 16.6786 29.3371 16.4216C29.5822 15.9174 29.77 15.0398 29.4341 13.3706C29.0917 11.6686 28.6327 11.0297 28.3181 10.7846C28.0583 10.5822 27.8386 10.5851 27.5505 10.5889ZM29.0276 9.82149C29.6824 10.3316 30.2222 11.3238 30.5848 13.1258C30.9539 14.9606 30.7892 16.137 30.3881 16.962C30.1899 17.3695 29.9477 17.6619 29.7349 17.8851C29.6569 17.9669 29.5776 18.0445 29.5118 18.1089C29.4918 18.1285 29.473 18.147 29.4558 18.1639C29.4468 18.1729 29.4381 18.1815 29.4298 18.1898L29.7741 28.6938C29.7743 28.7005 29.7744 28.7073 29.7744 28.7141C29.7744 29.0544 29.6945 29.5639 29.4302 30.0101C29.1468 30.4883 28.6474 30.889 27.8944 30.889C27.1593 30.889 26.625 30.5089 26.2783 30.0844C25.9407 29.6712 25.7525 29.1868 25.6769 28.85C25.6644 28.7943 25.6596 28.7372 25.6627 28.6802L26.2303 18.2926C25.1902 17.57 23.8669 15.8176 24.6269 13.0822C25.0232 11.656 25.4636 10.7458 25.9302 10.183C26.4173 9.59552 26.9398 9.38173 27.4244 9.38173C27.4486 9.38173 27.4778 9.38083 27.5114 9.37979C27.8025 9.37076 28.4243 9.35147 29.0276 9.82149ZM25.3013 30.6689C25.3547 30.998 25.1384 31.3092 24.8184 31.3641C23.6058 31.5719 22.1597 31.4509 21.5836 31.3662C21.2624 31.319 21.0392 31.013 21.0851 30.6827C21.131 30.3524 21.4286 30.1229 21.7498 30.1701C22.2704 30.2466 23.5817 30.3511 24.6252 30.1723C24.9453 30.1174 25.248 30.3397 25.3013 30.6689Z" fill="#365C16"/>
<path fill-rule="evenodd" clip-rule="evenodd" d="M26.0475 7.97816C22.6274 7.19599 20.0448 7.91102 19.256 8.31005C18.9581 8.46077 18.6011 8.32748 18.4586 8.01234C18.3161 7.6972 18.4421 7.31955 18.74 7.16883C19.7851 6.64017 22.6402 5.90464 26.3003 6.74171C26.6231 6.81553 26.8282 7.15216 26.7584 7.4936C26.6886 7.83504 26.3703 8.05198 26.0475 7.97816Z" fill="#365C16"/>
<path fill-rule="evenodd" clip-rule="evenodd" d="M31.9687 10.5013C32.2349 10.3026 32.6124 10.3563 32.812 10.6212C35.6617 14.4038 36.1701 18.0912 35.6154 21.1666C35.065 24.2179 33.4743 26.6399 32.1537 27.9546C31.9185 28.1887 31.5371 28.1887 31.3019 27.9546C31.0667 27.7204 31.0667 27.3407 31.3019 27.1066C32.471 25.9428 33.928 23.7357 34.4297 20.9547C34.927 18.1978 34.4918 14.8496 31.8483 11.3408C31.6487 11.0758 31.7026 10.7 31.9687 10.5013Z" fill="#365C16"/>
<path fill-rule="evenodd" clip-rule="evenodd" d="M13.7909 11.17C13.5353 10.971 13.1747 11.0277 12.9856 11.2966C10.7424 14.4852 10.3914 18.0043 10.905 21.0296C11.4154 24.0353 12.7867 26.6046 14.0684 27.9528C14.2932 28.1893 14.6578 28.1893 14.8826 27.9528C15.1075 27.7163 15.1075 27.3328 14.8826 27.0963C13.7845 25.9412 12.512 23.6048 12.0386 20.8166C11.5685 18.048 11.8938 14.8848 13.9112 12.0171C14.1003 11.7482 14.0465 11.369 13.7909 11.17Z" fill="#365C16"/>
<path fill-rule="evenodd" clip-rule="evenodd" d="M22.9209 36.6367C32.7051 36.6367 40.6367 28.7051 40.6367 18.9209C40.6367 9.13678 32.7051 1.20515 22.9209 1.20515C13.1368 1.20515 5.20515 9.13678 5.20515 18.9209C5.20515 28.7051 13.1368 36.6367 22.9209 36.6367ZM22.9209 37.8419C33.3707 37.8419 41.8419 29.3707 41.8419 18.9209C41.8419 8.47119 33.3707 0 22.9209 0C12.4712 0 4 8.47119 4 18.9209C4 29.3707 12.4712 37.8419 22.9209 37.8419Z" fill="#365C16"/>
<path fill-rule="evenodd" clip-rule="evenodd" d="M19.2372 9.37671C19.5146 9.37671 19.7395 9.65062 19.7395 9.98852V15.1277C19.7395 15.4656 19.5146 15.7395 19.2372 15.7395C18.9598 15.7395 18.7349 15.4656 18.7349 15.1277V9.98852C18.7349 9.65062 18.9598 9.37671 19.2372 9.37671Z" fill="#365C16"/>
<path fill-rule="evenodd" clip-rule="evenodd" d="M17.5023 9.37671C17.7798 9.37671 18.0047 9.65062 18.0047 9.98852V15.1277C18.0047 15.4656 17.7798 15.7395 17.5023 15.7395C17.2249 15.7395 17 15.4656 17 15.1277V9.98852C17 9.65062 17.2249 9.37671 17.5023 9.37671Z" fill="#365C16"/>
</svg>
