<svg width="46" height="65" viewBox="0 0 46 65" fill="none" xmlns="http://www.w3.org/2000/svg">
<path d="M17.75 56.0938C20.0234 56.0938 21.4531 56.8086 21.4648 58.0391C21.4531 59.2578 20.0234 59.9844 17.75 59.9727C15.5 59.9844 14.0586 59.2578 14.0586 58.0391C14.0586 56.8086 15.5 56.0938 17.75 56.0938ZM17.75 56.9375C16.1562 56.9375 15.1602 57.3477 15.1719 58.0391C15.1602 58.7188 16.1562 59.1172 17.75 59.1172C19.3555 59.1172 20.3516 58.7188 20.3633 58.0391C20.3516 57.3477 19.3555 56.9375 17.75 56.9375ZM21.3828 50.0117V50.8906C21.3828 51.7344 21.3828 52.6016 21.0898 53.6797L20 53.5625C20.2812 52.4902 20.2812 51.7168 20.2812 50.9023H14.1406V50.0117H21.3828ZM22.5781 54.3242V55.2266H13.0273V54.3242H16.8594V52.3555H17.9492V54.3242H22.5781ZM31.6367 49.4961V52.6016H33.1602V53.5273H31.6367V57.125H30.5117V49.4961H31.6367ZM28.7891 50.293C28.7891 53.0469 26.9141 55.0508 23.8438 55.9766L23.375 55.0859C25.8301 54.3477 27.3594 52.9531 27.582 51.2188H23.8203V50.293H28.7891ZM32.0703 58.8711V59.7734H24.9688V56.3398H26.0938V58.8711H32.0703Z" fill="#333332"/>
<path d="M7.5 39L23 11L39 39H30L32 34L23 20.5L14 34L16 39H7.5Z" fill="#ACBC9F"/>
<path fill-rule="evenodd" clip-rule="evenodd" d="M3 39.0139C3 38.7365 3.27033 38.5116 3.60381 38.5116H42.2474C42.5808 38.5116 42.8512 38.7365 42.8512 39.0139C42.8512 39.2913 42.5808 39.5162 42.2474 39.5162H3.60381C3.27033 39.5162 3 39.2913 3 39.0139Z" fill="#365C16"/>
<path fill-rule="evenodd" clip-rule="evenodd" d="M25.4654 5.76816C25.7523 5.92897 25.8564 6.29538 25.698 6.58658L8.13163 38.8701C7.97318 39.1613 7.61215 39.267 7.32523 39.1062C7.03832 38.9454 6.93417 38.579 7.09262 38.2878L24.659 6.00424C24.8174 5.71305 25.1785 5.60735 25.4654 5.76816Z" fill="#365C16"/>
<path fill-rule="evenodd" clip-rule="evenodd" d="M20.7277 5.7665C21.0192 5.60737 21.3843 5.71516 21.5431 6.00727L39.0942 38.2908C39.253 38.5829 39.1454 38.9487 38.8539 39.1079C38.5624 39.267 38.1974 39.1592 38.0385 38.8671L20.4874 6.58355C20.3286 6.29144 20.4362 5.92564 20.7277 5.7665Z" fill="#365C16"/>
<path fill-rule="evenodd" clip-rule="evenodd" d="M23.2378 19.4233C23.4416 19.4263 23.6301 19.5308 23.7397 19.7013L32.7097 33.658C32.8185 33.8273 32.835 34.0394 32.7536 34.2234L30.5718 39.1563C30.4372 39.4606 30.0797 39.5989 29.7732 39.4653C29.4667 39.3318 29.3273 38.9769 29.4619 38.6727L31.5135 34.034L23.2122 21.1176L14.3517 34.0316L16.6217 38.6508C16.7685 38.9494 16.6436 39.3095 16.3427 39.4552C16.0419 39.6009 15.6791 39.4769 15.5323 39.1783L13.108 34.2453C13.0126 34.0512 13.0293 33.8213 13.1518 33.6429L22.7278 19.6862C22.8425 19.519 23.0341 19.4202 23.2378 19.4233Z" fill="#365C16"/>
<path fill-rule="evenodd" clip-rule="evenodd" d="M8.1908 17.7488C8.46823 17.7488 8.69313 18.0112 8.69313 18.3348V21.8511C8.69313 22.1748 8.46823 22.4372 8.1908 22.4372C7.91338 22.4372 7.68848 22.1748 7.68848 21.8511V18.3348C7.68848 18.0112 7.91338 17.7488 8.1908 17.7488Z" fill="#365C16"/>
<path fill-rule="evenodd" clip-rule="evenodd" d="M13.7164 13.0604C14.0863 13.0604 14.3862 13.3415 14.3862 13.6883V17.4558C14.3862 17.8026 14.0863 18.0837 13.7164 18.0837C13.3465 18.0837 13.0466 17.8026 13.0466 17.4558V13.6883C13.0466 13.3415 13.3465 13.0604 13.7164 13.0604Z" fill="#365C16"/>
<path fill-rule="evenodd" clip-rule="evenodd" d="M16.7303 0.6698C17.1002 0.6698 17.4001 0.932182 17.4001 1.25585V4.77213C17.4001 5.09579 17.1002 5.35817 16.7303 5.35817C16.3604 5.35817 16.0605 5.09579 16.0605 4.77213V1.25585C16.0605 0.932182 16.3604 0.6698 16.7303 0.6698Z" fill="#365C16"/>
<path fill-rule="evenodd" clip-rule="evenodd" d="M5.67896 20.093C5.67896 19.7231 5.94134 19.4232 6.265 19.4232H9.78128C10.1049 19.4232 10.3673 19.7231 10.3673 20.093C10.3673 20.4629 10.1049 20.7628 9.78128 20.7628H6.265C5.94134 20.7628 5.67896 20.4629 5.67896 20.093Z" fill="#365C16"/>
<path fill-rule="evenodd" clip-rule="evenodd" d="M11.3721 15.5721C11.3721 15.2947 11.6345 15.0698 11.9581 15.0698H15.4744C15.7981 15.0698 16.0604 15.2947 16.0604 15.5721C16.0604 15.8496 15.7981 16.0745 15.4744 16.0745H11.9581C11.6345 16.0745 11.3721 15.8496 11.3721 15.5721Z" fill="#365C16"/>
<path fill-rule="evenodd" clip-rule="evenodd" d="M14.386 3.01401C14.386 2.6441 14.6484 2.34424 14.972 2.34424H18.4883C18.812 2.34424 19.0744 2.6441 19.0744 3.01401C19.0744 3.38391 18.812 3.68377 18.4883 3.68377H14.972C14.6484 3.68377 14.386 3.38391 14.386 3.01401Z" fill="#365C16"/>
<path fill-rule="evenodd" clip-rule="evenodd" d="M9.46966 0.25424C9.61906 0.464731 9.61418 0.745754 9.45757 0.951109C8.94227 1.62682 8.22605 3.41614 9.46587 5.12318C10.7739 6.92407 12.6935 7.28499 13.4193 7.25254C13.656 7.24196 13.8772 7.36839 13.985 7.57592C14.0928 7.78345 14.0673 8.03379 13.9199 8.21622C13.2421 9.05486 12.0058 10.1115 10.4688 10.5322C8.87963 10.9671 7.03257 10.7008 5.28283 8.97997C5.25536 8.95295 5.2306 8.92339 5.2089 8.89169C4.49488 7.84904 3.78029 6.13221 4.07119 4.39431C4.37447 2.58249 5.73584 0.929258 8.80036 0.0251098C9.05037 -0.0486504 9.32027 0.0437501 9.46966 0.25424ZM6.17935 8.18005C7.60613 9.55991 8.9871 9.7037 10.1447 9.38685C10.9147 9.17612 11.6111 8.75271 12.1639 8.29142C11.0234 8.01623 9.57455 7.31816 8.48221 5.81418C7.40576 4.33208 7.43657 2.81133 7.78034 1.67685C6.08193 2.48185 5.43463 3.56788 5.26397 4.58742C5.04502 5.89544 5.57669 7.27929 6.17935 8.18005Z" fill="#365C16"/>
</svg>
