<svg width="65" height="71" viewBox="0 0 65 71" fill="none" xmlns="http://www.w3.org/2000/svg">
<path d="M25.6055 59.4581C25.6055 60.5851 26.2566 61.7121 27.6967 62.188L26.9829 63.3902C25.9749 63.0333 25.2861 62.3758 24.8791 61.5619C24.4784 62.4572 23.7834 63.1773 22.7378 63.5655L22.0115 62.3884C23.4391 61.8499 24.0902 60.6728 24.0902 59.4581V59.3955H22.3246V58.1432H24.0902V56.9661H25.6055V58.1432H27.3586V59.3955H25.6055V59.4581ZM31.8041 56.8659V63.8284H30.2889V61.0109H29.3747V63.8034H27.872V57.0413H29.3747V59.7211H30.2889V56.8659H31.8041ZM31.8041 64.3168V68.2489H30.2137V65.6066H23.9274V64.3168H31.8041ZM38.0187 63.8284C40.3855 63.8284 41.8631 64.6424 41.8631 66.0324C41.8631 67.4474 40.3855 68.2614 38.0187 68.2614C35.6019 68.2614 34.1117 67.4474 34.1117 66.0324C34.1117 64.6424 35.6019 63.8284 38.0187 63.8284ZM38.0187 65.0682C36.516 65.0682 35.7021 65.3812 35.7146 66.0324C35.7021 66.6836 36.516 67.0217 38.0187 67.0217C39.4964 67.0217 40.2853 66.6836 40.2853 66.0324C40.2853 65.3812 39.4964 65.0682 38.0187 65.0682ZM41.7504 56.8534V59.4957H43.2907V60.8356H41.7504V63.578H40.1475V56.8534H41.7504ZM34.6377 57.5672V59.0073H36.9668V57.5672H38.5697V62.9268H33.0473V57.5672H34.6377ZM34.6377 61.6621H36.9668V60.247H34.6377V61.6621Z" fill="#ACBC9F"/>
<path fill-rule="evenodd" clip-rule="evenodd" d="M46.8435 0.729773C51.3553 1.02291 55.2572 2.02712 57.5016 2.88062C57.8555 3.01521 58.0895 3.35448 58.0895 3.73313V38.0271C58.0895 38.3551 57.9133 38.6579 57.6282 38.82C57.343 38.9821 56.9928 38.9786 56.7109 38.8108C53.8978 37.1364 49.4275 36.7349 44.8071 36.9995C40.2351 37.2613 35.7197 38.1609 32.973 38.9072C32.6988 38.9817 32.4056 38.9242 32.1799 38.7517C31.9542 38.5791 31.8218 38.3112 31.8218 38.0271V3.73313C31.8218 3.36828 32.0392 3.03853 32.3746 2.89481C37.145 0.850344 42.3317 0.436638 46.8435 0.729773ZM33.6459 4.34315V36.8506C36.5063 36.1518 40.575 35.4147 44.7028 35.1783C48.7635 34.9458 53.0388 35.1865 56.2653 36.5505V4.37296C54.1172 3.63195 50.6743 2.80666 46.7252 2.55008C42.5727 2.28029 37.9201 2.64317 33.6459 4.34315Z" fill="#ACBC9F"/>
<path fill-rule="evenodd" clip-rule="evenodd" d="M18.8069 0.729773C14.2951 1.02291 10.3932 2.02712 8.14879 2.88062C7.79487 3.01521 7.56091 3.35448 7.56091 3.73313V38.0271C7.56091 38.3551 7.73705 38.6579 8.02221 38.82C8.30738 38.9821 8.65763 38.9786 8.9395 38.8108C11.7526 37.1364 16.2229 36.7349 20.8433 36.9995C25.4153 37.2613 29.9307 38.1609 32.6774 38.9072C32.9515 38.9817 33.2448 38.9242 33.4705 38.7517C33.6962 38.5791 33.8286 38.3112 33.8286 38.0271V3.73313C33.8286 3.36828 33.6112 3.03853 33.2758 2.89481C28.5054 0.850344 23.3187 0.436638 18.8069 0.729773ZM32.0045 4.34315V36.8506C29.1441 36.1518 25.0754 35.4147 20.9476 35.1783C16.8869 34.9458 12.6116 35.1865 9.38506 36.5505V4.37296C11.5331 3.63195 14.9761 2.80666 18.9252 2.55008C23.0777 2.28029 27.7303 2.64317 32.0045 4.34315Z" fill="#ACBC9F"/>
<path fill-rule="evenodd" clip-rule="evenodd" d="M3 8.11101C3 6.80133 4.06171 5.73962 5.37139 5.73962H8.65485C9.15858 5.73962 9.56693 6.14797 9.56693 6.6517C9.56693 7.15542 9.15858 7.56377 8.65485 7.56377H5.37139C5.06916 7.56377 4.82415 7.80878 4.82415 8.11101V41.1281C4.82415 41.4303 5.06915 41.6753 5.37139 41.6753H27.5607C28.5398 41.6753 29.3242 42.2695 29.7631 42.9632C30.3699 43.9224 31.2952 44.7763 32.3687 44.7763C34.0637 44.7763 35.1804 44.038 35.7112 43.1836C36.1435 42.4875 36.9548 41.6753 38.0997 41.6753H60.2782C60.5804 41.6753 60.8254 41.4303 60.8254 41.1281V8.11101C60.8254 7.80878 60.5804 7.56377 60.2782 7.56377H57.1771C56.6734 7.56377 56.2651 7.15542 56.2651 6.6517C56.2651 6.14797 56.6734 5.73962 57.1771 5.73962H60.2782C61.5879 5.73962 62.6496 6.80133 62.6496 8.11101V41.1281C62.6496 42.4377 61.5879 43.4994 60.2782 43.4994H38.0997C37.8767 43.4994 37.5502 43.6801 37.2607 44.1461C36.3592 45.5974 34.619 46.6005 32.3687 46.6005C30.3201 46.6005 28.9186 45.0404 28.2215 43.9384C28.028 43.6326 27.7644 43.4994 27.5607 43.4994H5.37139C4.06171 43.4994 3 42.4377 3 41.1281V8.11101Z" fill="#ACBC9F"/>
<path fill-rule="evenodd" clip-rule="evenodd" d="M21.6064 0.996826C22.1101 0.996826 22.5185 1.40518 22.5185 1.9089V12.476L23.6977 11.2968C24.0539 10.9406 24.6314 10.9406 24.9876 11.2968L26.1668 12.476V1.9089C26.1668 1.40518 26.5751 0.996826 27.0788 0.996826C27.5826 0.996826 27.9909 1.40518 27.9909 1.9089V14.6779C27.9909 15.0468 27.7687 15.3794 27.4279 15.5206C27.0871 15.6617 26.6948 15.5837 26.4339 15.3229L24.3426 13.2316L22.2513 15.3229C21.9905 15.5837 21.5982 15.6617 21.2574 15.5206C20.9166 15.3794 20.6943 15.0468 20.6943 14.6779V1.9089C20.6943 1.40518 21.1027 0.996826 21.6064 0.996826Z" fill="#ACBC9F"/>
</svg>
