<svg width="13" height="13" viewBox="0 0 13 13" fill="none" xmlns="http://www.w3.org/2000/svg">
<path d="M11.9175 6.97399C11.8127 8.2089 11.2875 9.37099 10.4291 10.2675C9.57073 11.1639 8.43068 11.7409 7.19811 11.9026C5.96555 12.0643 4.71456 11.8011 3.6527 11.1566C2.59084 10.5121 1.78194 9.52506 1.36018 8.35923C0.938432 7.19341 0.929188 5.91888 1.33398 4.7471C1.73878 3.57531 2.53329 2.57671 3.58569 1.91697C4.63809 1.25723 5.88513 0.976002 7.11991 1.11994C8.35469 1.26389 9.50299 1.82435 10.3743 2.70835H8.67793C8.53382 2.70835 8.39561 2.76541 8.29371 2.867C8.19181 2.96858 8.13456 3.10636 8.13456 3.25002C8.13456 3.39367 8.19181 3.53145 8.29371 3.63303C8.39561 3.73462 8.53382 3.79168 8.67793 3.79168H10.9291C11.1966 3.79154 11.4532 3.68552 11.6424 3.49691C11.8316 3.3083 11.938 3.05254 11.9381 2.7858V0.541669C11.9381 0.39801 11.8809 0.260234 11.779 0.158651C11.6771 0.0570686 11.5388 0 11.3947 0C11.2506 0 11.1124 0.0570686 11.0105 0.158651C10.9086 0.260234 10.8514 0.39801 10.8514 0.541669V1.66726C9.7585 0.693731 8.36815 0.116179 6.90519 0.0280104C5.44223 -0.0601584 3.99221 0.346212 2.78964 1.1814C1.58707 2.01658 0.702278 3.23175 0.278357 4.63036C-0.145564 6.02897 -0.0838222 7.52924 0.453596 8.88854C0.991014 10.2478 1.97268 11.3867 3.23984 12.1208C4.50699 12.855 5.98553 13.1416 7.43633 12.9343C8.88713 12.727 10.2253 12.0378 11.2346 10.9783C12.2438 9.91882 12.865 8.55093 12.9977 7.09587C13.0047 7.02044 12.9959 6.94437 12.9718 6.87253C12.9477 6.80068 12.9088 6.73463 12.8577 6.67857C12.8066 6.62252 12.7443 6.57769 12.6749 6.54695C12.6054 6.51621 12.5303 6.50023 12.4543 6.50003C12.3217 6.49844 12.1933 6.54609 12.0941 6.63371C11.9949 6.72132 11.9319 6.84263 11.9175 6.97399Z" fill="#111111" fill-opacity="0.6"/>
</svg>
