<svg width="68" height="82" viewBox="0 0 68 82" fill="none" xmlns="http://www.w3.org/2000/svg">
<path fill-rule="evenodd" clip-rule="evenodd" d="M1.93854 31.2714V52.0758H20.4314V31.2714H1.93854ZM1.55327 29.3451C0.702167 29.3451 0.012207 30.0351 0.012207 30.8862V52.4611C0.012207 53.3122 0.702166 54.0022 1.55327 54.0022H20.8166C21.6677 54.0022 22.3577 53.3122 22.3577 52.4611V30.8862C22.3577 30.0351 21.6677 29.3451 20.8166 29.3451H1.55327Z" fill="#ACBC9F"/>
<path fill-rule="evenodd" clip-rule="evenodd" d="M40.0787 25.8778V52.0759H65.121V25.8778H40.0787ZM39.6934 23.9514C38.8423 23.9514 38.1523 24.6414 38.1523 25.4925V52.4612C38.1523 53.3123 38.8423 54.0022 39.6934 54.0022H65.5063C66.3574 54.0022 67.0474 53.3123 67.0474 52.4612V25.4925C67.0474 24.6414 66.3574 23.9514 65.5063 23.9514H39.6934Z" fill="#ACBC9F"/>
<path fill-rule="evenodd" clip-rule="evenodd" d="M40.0787 25.8778V52.0759H65.121V25.8778H40.0787ZM39.6934 23.9514C38.8423 23.9514 38.1523 24.6414 38.1523 25.4925V52.4612C38.1523 53.3123 38.8423 54.0022 39.6934 54.0022H65.5063C66.3574 54.0022 67.0474 53.3123 67.0474 52.4612V25.4925C67.0474 24.6414 66.3574 23.9514 65.5063 23.9514H39.6934Z" fill="#ACBC9F"/>
<path fill-rule="evenodd" clip-rule="evenodd" d="M19.4688 53.2057C19.4688 52.6738 19.9 52.2426 20.4319 52.2426H40.6584C41.1904 52.2426 41.6216 52.6738 41.6216 53.2057C41.6216 53.7377 41.1904 54.1689 40.6584 54.1689H20.4319C19.9 54.1689 19.4688 53.7377 19.4688 53.2057Z" fill="#ACBC9F"/>
<path fill-rule="evenodd" clip-rule="evenodd" d="M21.0093 47.0674C21.0093 46.5355 21.4405 46.1042 21.9724 46.1042L38.9242 46.1042C39.4561 46.1042 39.8874 46.5355 39.8874 47.0674C39.8874 47.5994 39.4561 48.0306 38.9242 48.0306L21.9724 48.0306C21.4405 48.0306 21.0093 47.5994 21.0093 47.0674Z" fill="#ACBC9F"/>
<path fill-rule="evenodd" clip-rule="evenodd" d="M0.590332 49.7383C0.590332 49.2064 1.02156 48.7751 1.5535 48.7751H20.8168C21.3488 48.7751 21.78 49.2064 21.78 49.7383C21.78 50.2703 21.3488 50.7015 20.8168 50.7015H1.5535C1.02156 50.7015 0.590332 50.2703 0.590332 49.7383Z" fill="#ACBC9F"/>
<path fill-rule="evenodd" clip-rule="evenodd" d="M39.1167 48.9677C39.1167 48.4357 39.5479 48.0045 40.0799 48.0045L65.5075 48.0045C66.0394 48.0045 66.4706 48.4357 66.4706 48.9677C66.4706 49.4996 66.0394 49.9309 65.5075 49.9309L40.0799 49.9309C39.5479 49.9309 39.1167 49.4996 39.1167 48.9677Z" fill="#ACBC9F"/>
<path fill-rule="evenodd" clip-rule="evenodd" d="M11.1841 14.1271C11.1841 13.5952 11.6153 13.1639 12.1472 13.1639H34.4927C35.0247 13.1639 35.4559 13.5952 35.4559 14.1271C35.4559 14.6591 35.0247 15.0903 34.4927 15.0903H13.1104V29.9231C13.1104 30.455 12.6792 30.8862 12.1472 30.8862C11.6153 30.8862 11.1841 30.455 11.1841 29.9231V14.1271Z" fill="#ACBC9F"/>
<path fill-rule="evenodd" clip-rule="evenodd" d="M37.5752 14.3197C37.5752 13.7878 38.0064 13.3566 38.5384 13.3566H49.7111C50.243 13.3566 50.6743 13.7878 50.6743 14.3197V24.3367C50.6743 24.8686 50.243 25.2998 49.7111 25.2998C49.1792 25.2998 48.7479 24.8686 48.7479 24.3367V15.2829H38.5384C38.0064 15.2829 37.5752 14.8517 37.5752 14.3197Z" fill="#ACBC9F"/>
<path fill-rule="evenodd" clip-rule="evenodd" d="M38.6116 6.34135C37.1755 4.25238 34.7302 2.30331 30.5079 2.5672C27.1144 2.7793 24.9944 4.3059 23.6846 6.10295C22.3543 7.92818 21.841 10.0651 21.7794 11.4509V19.5208C21.7794 20.0528 21.3481 20.484 20.8162 20.484C20.2843 20.484 19.853 20.0528 19.853 19.5208V11.4302C19.853 11.4168 19.8533 11.4035 19.8539 11.3901C19.9246 9.69325 20.53 7.1606 22.1279 4.96831C23.7525 2.73933 26.3842 0.894842 30.3878 0.64462C35.4119 0.330613 38.4567 2.7158 40.199 5.25003C41.0584 6.50004 41.6003 7.78062 41.9281 8.7832C42.0925 9.28598 42.2051 9.72521 42.2774 10.0645C42.3425 10.3697 42.3911 10.6673 42.3911 10.8523V19.5208C42.3911 20.0528 41.9599 20.484 41.428 20.484C40.896 20.484 40.4648 20.0528 40.4648 19.5208V10.8523C40.4648 10.8661 40.4642 10.8616 40.4608 10.8377C40.4541 10.791 40.437 10.6704 40.3934 10.4663C40.3349 10.1916 40.2398 9.81811 40.0971 9.38179C39.8109 8.5062 39.3415 7.40294 38.6116 6.34135Z" fill="#ACBC9F"/>
<path fill-rule="evenodd" clip-rule="evenodd" d="M15.3051 25.1925C14.476 23.9749 13.0829 22.8481 10.6367 23.0024C8.66381 23.1269 7.45432 24.0145 6.70518 25.0522C5.9354 26.1185 5.63529 27.3737 5.59821 28.1802V33.1977C5.59821 33.7297 5.16698 34.1609 4.63504 34.1609C4.1031 34.1609 3.67188 33.7297 3.67188 33.1977V28.1593C3.67188 28.1461 3.67215 28.1328 3.67269 28.1196C3.71866 27.0059 4.10905 25.3573 5.14332 23.9247C6.20421 22.4551 7.92563 21.2433 10.5154 21.0799C13.7727 20.8744 15.766 22.4468 16.8973 24.1083C17.4516 24.9221 17.7992 25.7527 18.009 26.4005C18.1143 26.7259 18.187 27.0116 18.2341 27.2349C18.2741 27.4243 18.312 27.6427 18.312 27.7994V33.1977C18.312 33.7297 17.8808 34.1609 17.3489 34.1609C16.8169 34.1609 16.3857 33.7297 16.3857 33.1977V27.8291C16.3857 27.8293 16.3857 27.8291 16.3857 27.8291C16.3845 27.8292 16.3782 27.7694 16.3494 27.6329C16.3158 27.4738 16.2603 27.2534 16.1763 26.994C16.0073 26.4721 15.7312 25.8182 15.3051 25.1925Z" fill="#ACBC9F"/>
<path fill-rule="evenodd" clip-rule="evenodd" d="M47.3104 37.063C48.2796 38.4269 49.9307 39.7139 52.8294 39.5386C55.1632 39.3975 56.5953 38.3876 57.4749 37.22C58.3749 36.0254 58.7228 34.6249 58.7656 33.7272L58.7656 28.1893C58.7656 27.6574 59.1968 27.2262 59.7287 27.2262C60.2607 27.2262 60.6919 27.6574 60.6919 28.1893L60.6919 33.749C60.6919 33.7628 60.6916 33.7766 60.691 33.7904C60.6384 35.0116 60.1911 36.816 59.0135 38.3792C57.8088 39.9782 55.8659 41.2848 52.9457 41.4614C49.2768 41.6833 47.0285 39.9918 45.7401 38.1788C45.1085 37.29 44.7113 36.3812 44.4711 35.6706C44.3506 35.314 44.2676 35.001 44.2137 34.7567C44.1677 34.5478 44.1254 34.3123 44.1254 34.1461L44.1254 28.1893C44.1254 27.6574 44.5566 27.2262 45.0886 27.2262C45.6205 27.2262 46.0518 27.6574 46.0518 28.1893L46.0518 34.12C46.0518 34.1189 46.0516 34.1181 46.0518 34.1181C46.0532 34.118 46.0607 34.1869 46.0949 34.3421C46.1341 34.5198 46.1986 34.7653 46.2961 35.0539C46.4921 35.634 46.8131 36.3633 47.3104 37.063Z" fill="#ACBC9F"/>
<path d="M27.1479 74.4072V76.7238H29.2141V74.4072H30.8045V76.7238H33.4092V78.0137H22.9779V76.7238H25.5701V74.4072H27.1479ZM28.9762 69.3982C28.9762 70.951 30.4413 72.6039 33.0335 72.9796L32.3948 74.307C30.3725 73.9564 28.8698 72.9295 28.1247 71.5395C27.3671 72.9233 25.8706 73.9689 23.867 74.307L23.2284 72.9796C25.7955 72.5789 27.2606 70.9259 27.2731 69.3982V68.5717H28.9762V69.3982ZM40.3626 68.8096V70.0869H39.4234V72.8419C39.893 72.8106 40.3564 72.7605 40.8009 72.7041L40.9136 73.8812C38.597 74.282 35.9297 74.332 34.0388 74.332L33.8635 73.0422L35.0907 73.0297V70.0869H34.164V68.8096H40.3626ZM43.2177 67.9581V74.8329H41.6149V67.9581H43.2177ZM39.3483 75.0458C41.7902 75.0458 43.2804 75.8097 43.2929 77.1746C43.2804 78.5521 41.7902 79.341 39.3483 79.341C36.9189 79.341 35.4288 78.5521 35.4288 77.1746C35.4288 75.8097 36.9189 75.0458 39.3483 75.0458ZM39.3483 76.2605C37.8206 76.2605 37.0191 76.561 37.0191 77.1746C37.0191 77.8008 37.8206 78.1264 39.3483 78.1264C40.876 78.1264 41.6775 77.8008 41.69 77.1746C41.6775 76.561 40.876 76.2605 39.3483 76.2605ZM36.6184 73.0047L37.8832 72.9421V70.0869H36.6184V73.0047Z" fill="#ACBC9F"/>
</svg>
