<svg width="46" height="63" viewBox="0 0 46 63" fill="none" xmlns="http://www.w3.org/2000/svg">
<path d="M18.4766 48.5625C18.4648 51.6562 17.5156 54.4102 13.6836 56.2969L13.0742 55.4648C14.9727 54.5332 16.1035 53.4023 16.7305 52.0664L13.2969 52.3945L13.1328 51.4336L17.0703 51.1641C17.2285 50.6309 17.3223 50.0625 17.3633 49.4648H13.6836V48.5625H18.4766ZM21.1953 47.4961V51.6914H22.8242V52.6055H21.1953V57.9844H20.082V47.4961H21.1953ZM32.4688 47.4961V57.9961H31.4023V47.4961H32.4688ZM30.3945 47.7305V57.457H29.3398V52.4297H28.0273V51.4336H29.3398V47.7305H30.3945ZM28.3086 48.7852V49.6992H27.5V54.3867C27.8574 54.3633 28.2031 54.3223 28.5195 54.2812L28.6016 55.0898C26.9375 55.418 24.7578 55.4648 23.3984 55.4648L23.2695 54.5273L24.3008 54.5156V49.6992H23.4922V48.7852H28.3086ZM25.3086 54.5039C25.6895 54.4922 26.082 54.4805 26.4688 54.457V49.6992H25.3086V54.5039Z" fill="#333332"/>
<path d="M11.1087 10H34C33.873 16.9164 33.169 20.4204 30.5165 26H14.0946C11.2259 19.1831 10.7363 15.7312 11.1087 10Z" fill="#ACBC9F"/>
<path fill-rule="evenodd" clip-rule="evenodd" d="M10.0397 9.37332C10.0748 9.07435 10.3281 8.849 10.6292 8.849H34.0125C34.3274 8.849 34.5875 9.09491 34.6051 9.4093C34.7062 11.2151 34.6453 14.1932 34.1383 17.303C33.6333 20.4006 32.6743 23.7022 30.9314 26.0963C30.7385 26.3613 30.3673 26.4197 30.1023 26.2268C29.8373 26.0339 29.7789 25.6627 29.9718 25.3977C31.5525 23.2265 32.4728 20.1422 32.9668 17.112C33.409 14.4001 33.5005 11.7903 33.4444 10.036H11.1662C10.8929 13.2806 11.1719 20.1507 14.2294 25.4504C14.3932 25.7343 14.2958 26.0972 14.0119 26.261C13.7279 26.4248 13.365 26.3275 13.2012 26.0435C9.78798 20.1271 9.67618 12.4711 10.0397 9.37332Z" fill="#365C16"/>
<path fill-rule="evenodd" clip-rule="evenodd" d="M10.0354 12.7034C10.0354 12.3756 10.3011 12.1099 10.6289 12.1099H34.0123C34.3401 12.1099 34.6058 12.3756 34.6058 12.7034C34.6058 13.0311 34.3401 13.2968 34.0123 13.2968H10.6289C10.3011 13.2968 10.0354 13.0311 10.0354 12.7034Z" fill="#365C16"/>
<path fill-rule="evenodd" clip-rule="evenodd" d="M6 26.0187C6 25.6909 6.26571 25.4252 6.59349 25.4252H38.2857C38.5952 25.4252 38.8528 25.6631 38.8773 25.9717C38.9481 26.8624 38.6817 28.1466 37.6754 29.1806C36.6583 30.2256 34.9652 30.9351 32.3382 30.8241H11.9422C10.9791 30.8474 9.53453 30.6523 8.30627 29.9637C7.04128 29.2545 6 28.0099 6 26.0187ZM7.22957 26.6121C7.39971 27.748 8.06153 28.4657 8.88674 28.9283C9.88077 29.4856 11.1025 29.6581 11.9198 29.6374C11.9248 29.6372 11.9298 29.6372 11.9349 29.6372H32.3508C32.3594 29.6372 32.3679 29.6373 32.3764 29.6377C34.7747 29.7413 36.1046 29.0926 36.8248 28.3527C37.3609 27.8019 37.6036 27.1557 37.6764 26.6121H7.22957Z" fill="#365C16"/>
<path fill-rule="evenodd" clip-rule="evenodd" d="M12.4096 29.7731C12.7374 29.7731 13.0031 30.0388 13.0031 30.3666V31.8111H31.5199V30.3666C31.5199 30.0388 31.7856 29.7731 32.1134 29.7731C32.4412 29.7731 32.7069 30.0388 32.7069 30.3666V32.4046C32.7069 32.7324 32.4412 32.9981 32.1134 32.9981H12.4096C12.0819 32.9981 11.8162 32.7324 11.8162 32.4046V30.3666C11.8162 30.0388 12.0819 29.7731 12.4096 29.7731Z" fill="#365C16"/>
<path fill-rule="evenodd" clip-rule="evenodd" d="M33.6566 15.149C33.6566 14.8213 33.9223 14.5555 34.2501 14.5555H35.5557C36.0932 14.5555 36.8388 14.7716 37.4089 15.4037C37.992 16.0502 38.3192 17.0494 38.1636 18.4744C38.0801 19.2382 37.8039 19.8512 37.3889 20.3229C36.9782 20.7897 36.4576 21.0887 35.9256 21.2735C34.8768 21.638 33.707 21.5868 32.9488 21.438C32.6272 21.3749 32.4176 21.063 32.4807 20.7413C32.5438 20.4197 32.8557 20.2101 33.1774 20.2732C33.8039 20.3962 34.747 20.4265 35.536 20.1523C35.9229 20.0179 36.2525 19.8175 36.4978 19.5388C36.7389 19.2648 36.9246 18.886 36.9836 18.3455C37.1129 17.1617 36.8268 16.5305 36.5275 16.1987C36.2153 15.8526 35.8096 15.7425 35.5557 15.7425H34.2501C33.9223 15.7425 33.6566 15.4768 33.6566 15.149Z" fill="#365C16"/>
<path fill-rule="evenodd" clip-rule="evenodd" d="M33.8545 12.8392C33.8545 12.5114 34.1202 12.2457 34.448 12.2457H35.6745C37.0334 12.2457 38.2377 12.7986 39.0307 13.924C39.8102 15.0303 40.1412 16.616 39.9447 18.6042C39.7003 21.0778 38.4357 22.4868 36.8246 23.1792C35.266 23.8492 33.44 23.8276 32.0259 23.6165C31.7018 23.5681 31.4782 23.2661 31.5266 22.9419C31.575 22.6177 31.877 22.3941 32.2012 22.4425C33.5172 22.639 35.0884 22.6336 36.3559 22.0887C37.571 21.5664 38.5617 20.5297 38.7635 18.4874C38.943 16.6712 38.6212 15.4036 38.0604 14.6077C37.513 13.8309 36.6896 13.4327 35.6745 13.4327H34.448C34.1202 13.4327 33.8545 13.167 33.8545 12.8392Z" fill="#365C16"/>
<path fill-rule="evenodd" clip-rule="evenodd" d="M15.3645 0.314025C15.4533 0.0673208 15.7254 -0.0606375 15.9721 0.0282219C16.691 0.287167 17.1099 0.976996 17.2343 1.67876C17.3605 2.39004 17.2077 3.21184 16.6744 3.84466C15.6386 5.07348 16.2241 6.11915 16.5554 6.31772C16.7804 6.45251 16.8534 6.74412 16.7186 6.96904C16.5838 7.19396 16.2922 7.26702 16.0673 7.13222C15.1717 6.59549 14.5841 4.85123 15.9483 3.23268C16.2757 2.84418 16.3833 2.31793 16.2993 1.84458C16.2137 1.36171 15.9521 1.03032 15.6503 0.921616C15.4036 0.832757 15.2756 0.560729 15.3645 0.314025Z" fill="#365C16"/>
<path fill-rule="evenodd" clip-rule="evenodd" d="M21.5369 0.314025C21.6257 0.0673208 21.8977 -0.0606375 22.1444 0.0282219C22.8634 0.287167 23.2822 0.976996 23.4067 1.67876C23.5328 2.39004 23.3801 3.21184 22.8467 3.84466C21.811 5.07348 22.3965 6.11915 22.7278 6.31772C22.9527 6.45251 23.0258 6.74412 22.891 6.96904C22.7562 7.19396 22.4646 7.26702 22.2397 7.13222C21.3441 6.59549 20.7564 4.85123 22.1207 3.23268C22.4481 2.84418 22.5557 2.31793 22.4717 1.84458C22.3861 1.36171 22.1245 1.03032 21.8227 0.921616C21.5759 0.832757 21.448 0.560729 21.5369 0.314025Z" fill="#365C16"/>
<path fill-rule="evenodd" clip-rule="evenodd" d="M27.7092 0.314025C27.7981 0.0673208 28.0701 -0.0606375 28.3168 0.0282219C29.0357 0.287167 29.4546 0.976996 29.5791 1.67876C29.7052 2.39004 29.5525 3.21184 29.0191 3.84466C27.9834 5.07348 28.5688 6.11915 28.9002 6.31772C29.1251 6.45251 29.1981 6.74412 29.0634 6.96904C28.9286 7.19396 28.637 7.26702 28.412 7.13222C27.5164 6.59549 26.9288 4.85123 28.293 3.23268C28.6205 2.84418 28.728 2.31793 28.6441 1.84458C28.5584 1.36171 28.2968 1.03032 27.995 0.921616C27.7483 0.832757 27.6204 0.560729 27.7092 0.314025Z" fill="#365C16"/>
</svg>
