<svg width="55" height="86" viewBox="0 0 55 86" fill="none" xmlns="http://www.w3.org/2000/svg">
<path fill-rule="evenodd" clip-rule="evenodd" d="M18.8648 10.1641C26.3447 7.79747 34.2029 9.25003 39.1623 11.2999C39.6539 11.5031 39.8877 12.0663 39.6845 12.5579C39.4813 13.0495 38.9181 13.2833 38.4265 13.0802C33.7541 11.1489 26.3751 9.8083 19.4459 12.0007C12.6094 14.1638 6.04709 19.8161 2.95227 32.1988C2.43669 37.1808 3.233 44.535 7.22698 50.4883C11.1914 56.3975 18.3996 61.0689 31.0489 60.5418C37.7865 60.2611 46.0732 54.7997 50.1297 46.5434C54.1304 38.4006 54.012 27.5093 43.8596 16.3041C43.5025 15.9099 43.5325 15.3008 43.9267 14.9436C44.3209 14.5865 44.93 14.6165 45.2872 15.0107C55.9392 26.7674 56.227 38.5017 51.8586 47.3929C47.546 56.1705 38.6883 62.1515 31.1291 62.4665C17.8885 63.0182 10.0072 58.09 5.6273 51.5615C1.29464 45.1034 0.481452 37.2204 1.04361 31.9295C1.04828 31.8855 1.05598 31.8419 1.06664 31.799C4.29692 18.7991 11.3043 12.5562 18.8648 10.1641Z" fill="#ACBC9F"/>
<path fill-rule="evenodd" clip-rule="evenodd" d="M48.0399 6.79635C49.2102 6.79635 50.1589 5.84766 50.1589 4.67738C50.1589 3.50711 49.2102 2.55841 48.0399 2.55841C46.8697 2.55841 45.921 3.50711 45.921 4.67738C45.921 5.84766 46.8697 6.79635 48.0399 6.79635ZM48.0399 8.72268C50.2741 8.72268 52.0852 6.91154 52.0852 4.67738C52.0852 2.44322 50.2741 0.63208 48.0399 0.63208C45.8058 0.63208 43.9946 2.44322 43.9946 4.67738C43.9946 6.91154 45.8058 8.72268 48.0399 8.72268Z" fill="#ACBC9F"/>
<path fill-rule="evenodd" clip-rule="evenodd" d="M46.2449 7.33111C46.6942 7.61583 46.8276 8.2109 46.5429 8.66022L34.2144 28.1162C33.9296 28.5655 33.3346 28.699 32.8853 28.4142C32.4359 28.1295 32.3025 27.5345 32.5872 27.0851L44.9158 7.62915C45.2005 7.17982 45.7955 7.04638 46.2449 7.33111Z" fill="#ACBC9F"/>
<path fill-rule="evenodd" clip-rule="evenodd" d="M38.1841 16.5713C38.3177 17.0862 38.0086 17.6119 37.4938 17.7455C32.5989 19.0157 25.8433 22.5982 21.5394 29.1733C17.2682 35.6983 15.3204 45.31 20.2423 58.8639C20.4238 59.3639 20.1657 59.9164 19.6657 60.0979C19.1657 60.2795 18.6132 60.0214 18.4316 59.5214C13.3365 45.4902 15.2735 35.2284 19.9276 28.1183C24.5491 21.0581 31.7594 17.2434 37.0099 15.881C37.5248 15.7474 38.0505 16.0564 38.1841 16.5713Z" fill="#ACBC9F"/>
<path fill-rule="evenodd" clip-rule="evenodd" d="M35.3267 11.0063C35.3421 11.538 34.9236 11.9816 34.3918 11.997C30.2737 12.1163 19.912 15.2533 12.8461 27.13C9.36686 32.9781 8.90865 39.1743 9.77179 44.5837C10.6371 50.0067 12.8237 54.5843 14.5475 57.1083C14.8475 57.5476 14.7345 58.1469 14.2953 58.4469C13.856 58.7469 13.2567 58.634 12.9567 58.1947C11.0846 55.4534 8.78285 50.6112 7.86952 44.8872C6.95401 39.1496 7.42686 32.4714 11.1906 26.1451C18.6108 13.6729 29.593 10.2089 34.336 10.0715C34.8677 10.056 35.3113 10.4746 35.3267 11.0063Z" fill="#ACBC9F"/>
<path fill-rule="evenodd" clip-rule="evenodd" d="M50.328 21.8037C50.7635 22.1091 50.869 22.7098 50.5635 23.1453C46.2285 29.3267 39.922 32.4605 33.8714 33.8792C27.8306 35.2957 21.9709 35.0226 18.3845 34.3252C17.8623 34.2237 17.5213 33.7181 17.6229 33.1959C17.7244 32.6737 18.23 32.3328 18.7522 32.4343C22.1006 33.0854 27.6833 33.3516 33.4317 32.0038C39.1703 30.6582 44.9996 27.724 48.9864 22.0393C49.2918 21.6037 49.8925 21.4983 50.328 21.8037Z" fill="#ACBC9F"/>
<path fill-rule="evenodd" clip-rule="evenodd" d="M53.1649 28.8967C53.6194 29.173 53.7639 29.7655 53.4876 30.2201C48.5455 38.3507 41.2293 42.233 34.1411 43.7792C27.0772 45.32 20.2022 44.553 15.9942 43.3602C15.4824 43.2152 15.1851 42.6827 15.3302 42.1709C15.4753 41.6591 16.0078 41.3619 16.5195 41.5069C20.4664 42.6257 27.0179 43.3613 33.7305 41.8971C40.4189 40.4381 47.2291 36.8078 51.8415 29.2195C52.1178 28.7649 52.7103 28.6204 53.1649 28.8967Z" fill="#ACBC9F"/>
<path fill-rule="evenodd" clip-rule="evenodd" d="M54.2708 39.0207C54.6662 39.3765 54.6983 39.9855 54.3424 40.3809C40.1441 56.1568 23.4878 54.1137 16.8129 51.0123C16.3305 50.7881 16.1211 50.2154 16.3453 49.733C16.5694 49.2505 17.1422 49.0412 17.6246 49.2653C23.6636 52.0713 39.3697 54.1377 52.9106 39.0923C53.2664 38.6969 53.8754 38.6648 54.2708 39.0207Z" fill="#ACBC9F"/>
<path d="M22.3206 79.0456C24.8125 79.0456 26.3778 79.8345 26.3904 81.1994C26.3778 82.5393 24.8125 83.3408 22.3206 83.3408C19.8536 83.3408 18.2633 82.5393 18.2633 81.1994C18.2633 79.8345 19.8536 79.0456 22.3206 79.0456ZM22.3206 80.2352C20.7552 80.2352 19.8536 80.5608 19.8536 81.1994C19.8536 81.813 20.7552 82.1261 22.3206 82.1261C23.8859 82.1261 24.8 81.813 24.8 81.1994C24.8 80.5608 23.8859 80.2352 22.3206 80.2352ZM26.3277 72.4588V73.3854C26.3277 74.287 26.3277 75.2638 26.0022 76.4409L24.4369 76.2906C24.6873 75.2575 24.7186 74.4874 24.7374 73.711H18.376V72.4588H26.3277ZM27.5549 77.0295V78.3193H17.2114V77.0295H21.0934V75.0384H22.6712V77.0295H27.5549ZM33.1936 78.9204C35.5603 78.9204 37.038 79.7343 37.038 81.1243C37.038 82.5393 35.5603 83.3533 33.1936 83.3533C30.7767 83.3533 29.2866 82.5393 29.2866 81.1243C29.2866 79.7343 30.7767 78.9204 33.1936 78.9204ZM33.1936 80.1601C31.6909 80.1601 30.8769 80.4731 30.8894 81.1243C30.8769 81.7755 31.6909 82.1136 33.1936 82.1136C34.6712 82.1136 35.4601 81.7755 35.4601 81.1243C35.4601 80.4731 34.6712 80.1601 33.1936 80.1601ZM36.9253 71.9453V74.5876H38.4655V75.9275H36.9253V78.6699H35.3224V71.9453H36.9253ZM29.8125 72.6591V74.0992H32.1417V72.6591H33.7445V78.0187H28.2221V72.6591H29.8125ZM29.8125 76.754H32.1417V75.3389H29.8125V76.754Z" fill="#ACBC9F"/>
</svg>
