<svg width="46" height="62" viewBox="0 0 46 62" fill="none" xmlns="http://www.w3.org/2000/svg">
<path d="M18.3711 47.082C18.3711 48.3359 20.0586 49.5195 22.0742 49.8008L21.6406 50.668C19.9648 50.4102 18.4824 49.5898 17.8086 48.4531C17.1289 49.5957 15.6465 50.4102 13.9648 50.668L13.543 49.8008C15.5586 49.5195 17.2344 48.3477 17.2344 47.082V46.6367H18.3711V47.082ZM22.5898 51.4062V52.3086H18.3477V53.5508H21.418V56.9961H20.293V54.4414H14.082V53.5508H17.2461V52.3086H13.0156V51.4062H22.5898ZM32.9961 54.7461V55.6602H23.3867V54.7461H27.5938V52.25H28.6953V54.7461H32.9961ZM28.7188 47.9609C28.7188 49.625 30.5469 51.1836 32.5742 51.5234L32.0938 52.4375C30.3945 52.0977 28.8301 51.0488 28.1328 49.6016C27.4414 51.043 25.8945 52.1094 24.207 52.4375L23.7148 51.5234C25.7305 51.1836 27.5469 49.625 27.5469 47.9609V47.1641H28.7188V47.9609Z" fill="#333332"/>
<rect x="16" y="18" width="6" height="4" rx="1" fill="#ACBC9F"/>
<rect x="24" y="18" width="6" height="4" rx="1" fill="#ACBC9F"/>
<path d="M4.5 14.5C4.5 13.7 17.1667 5.16667 23.5 1L41.5 15L40.5 16.5L23.5 4L6 16.5C5.5 16.1667 4.5 15.3 4.5 14.5Z" fill="#ACBC9F"/>
<path fill-rule="evenodd" clip-rule="evenodd" d="M23.272 0.118919C23.4899 -0.0434152 23.7889 -0.0391638 24.0022 0.129303L41.9464 14.3013C42.1996 14.5012 42.2517 14.8661 42.0646 15.1296L40.8602 16.8254C40.7655 16.9588 40.6211 17.0479 40.4599 17.0723C40.2988 17.0967 40.1347 17.0544 40.0051 16.955L23.6203 4.38779L6.2791 16.9646C6.01718 17.1546 5.65292 17.103 5.45342 16.8476L4.12867 15.1518C4.02816 15.0231 3.98369 14.859 4.00538 14.6969C4.02707 14.5347 4.11307 14.3883 4.24381 14.2909L23.272 0.118919ZM5.45845 14.8935L6.0434 15.6422L23.2781 3.14259C23.4932 2.98657 23.7845 2.99049 23.9954 3.15225L40.2414 15.6129L40.7501 14.8965L23.6196 1.36723L5.45845 14.8935Z" fill="#365C16"/>
<path fill-rule="evenodd" clip-rule="evenodd" d="M8.9593 13.7302C9.29387 13.7302 9.56509 13.998 9.56509 14.3282V32.6272H36.9466V14.3282C36.9466 13.998 37.2178 13.7302 37.5524 13.7302C37.8869 13.7302 38.1582 13.998 38.1582 14.3282V33.2252C38.1582 33.5555 37.8869 33.8232 37.5524 33.8232H8.9593C8.62474 33.8232 8.35352 33.5555 8.35352 33.2252V14.3282C8.35352 13.998 8.62474 13.7302 8.9593 13.7302Z" fill="#365C16"/>
<path fill-rule="evenodd" clip-rule="evenodd" d="M21.5952 10.2238V11.8785H24.9162V10.2238H21.5952ZM21.1208 9.04187C20.7278 9.04187 20.4092 9.35937 20.4092 9.75104V12.3513C20.4092 12.743 20.7278 13.0605 21.1208 13.0605H25.3906C25.7836 13.0605 26.1022 12.743 26.1022 12.3513V9.75104C26.1022 9.35937 25.7836 9.04187 25.3906 9.04187H21.1208Z" fill="#365C16"/>
<path fill-rule="evenodd" clip-rule="evenodd" d="M32.0774 22.9635H14.0995C13.4375 22.9635 12.9009 23.4989 12.9009 24.1595V28.9435H33.276V24.1595C33.276 23.4989 32.7394 22.9635 32.0774 22.9635ZM14.0995 21.7675C12.7756 21.7675 11.7024 22.8384 11.7024 24.1595V29.4219C11.7024 29.8183 12.0244 30.1395 12.4215 30.1395H33.7554C34.1525 30.1395 34.4745 29.8183 34.4745 29.4219V24.1595C34.4745 22.8384 33.4013 21.7675 32.0774 21.7675H14.0995Z" fill="#365C16"/>
<path fill-rule="evenodd" clip-rule="evenodd" d="M21.1126 18.6317H17.3619C17.1029 18.6317 16.893 18.8498 16.893 19.1188V21.5543H21.5814V19.1188C21.5814 18.8498 21.3715 18.6317 21.1126 18.6317ZM17.3619 17.4139C16.4556 17.4139 15.7209 18.1772 15.7209 19.1188V22.0414C15.7209 22.445 16.0358 22.7721 16.4242 22.7721H22.0502C22.4386 22.7721 22.7535 22.445 22.7535 22.0414V19.1188C22.7535 18.1772 22.0188 17.4139 21.1126 17.4139H17.3619Z" fill="#365C16"/>
<path fill-rule="evenodd" clip-rule="evenodd" d="M29.0865 27.9867H17.0902C16.4494 27.9867 15.9025 28.3842 15.6878 28.9435H30.4889C30.2742 28.3842 29.7273 27.9867 29.0865 27.9867ZM17.0902 26.7906C15.5941 26.7906 14.3813 27.9901 14.3813 29.4697C14.3813 29.8396 14.6845 30.1395 15.0586 30.1395H31.1181C31.4921 30.1395 31.7953 29.8396 31.7953 29.4697C31.7953 27.9901 30.5825 26.7906 29.0865 26.7906H17.0902Z" fill="#365C16"/>
<path fill-rule="evenodd" clip-rule="evenodd" d="M29.0717 18.6317H25.1424C24.8711 18.6317 24.6512 18.8498 24.6512 19.1188V21.5543H29.5629V19.1188C29.5629 18.8498 29.343 18.6317 29.0717 18.6317ZM25.1424 17.4139C24.193 17.4139 23.4233 18.1772 23.4233 19.1188V22.0414C23.4233 22.445 23.7532 22.7721 24.1601 22.7721H30.054C30.4609 22.7721 30.7908 22.445 30.7908 22.0414V19.1188C30.7908 18.1772 30.0211 17.4139 29.0717 17.4139H25.1424Z" fill="#365C16"/>
<path fill-rule="evenodd" clip-rule="evenodd" d="M15.2336 15.9526V21.5543H31.6132V15.9526H15.2336ZM14.7588 14.7349C14.3655 14.7349 14.0466 15.062 14.0466 15.4655V22.0414C14.0466 22.4449 14.3655 22.7721 14.7588 22.7721H32.088C32.4813 22.7721 32.8001 22.4449 32.8001 22.0414V15.4655C32.8001 15.062 32.4813 14.7349 32.088 14.7349H14.7588Z" fill="#365C16"/>
<path fill-rule="evenodd" clip-rule="evenodd" d="M11.7024 24.7813C11.7024 24.4114 11.9707 24.1116 12.3017 24.1116H33.8752C34.2062 24.1116 34.4745 24.4114 34.4745 24.7813C34.4745 25.1512 34.2062 25.4511 33.8752 25.4511H12.3017C11.9707 25.4511 11.7024 25.1512 11.7024 24.7813Z" fill="#365C16"/>
</svg>
