<svg width="58" height="81" viewBox="0 0 58 81" fill="none" xmlns="http://www.w3.org/2000/svg">
<path fill-rule="evenodd" clip-rule="evenodd" d="M0.0891191 35.0129C0.110934 33.8505 1.0695 32.9661 2.1926 32.9661H51.7147C52.7994 32.9661 53.7401 33.7949 53.8112 34.9169C54.539 46.4089 48.8877 54.701 44.3432 57.8621C43.9836 58.1123 43.5696 58.2254 43.1659 58.2254H10.4627C10.0932 58.2254 9.71589 58.1292 9.38112 57.9243C5.72681 55.6878 3.37463 51.9071 1.95522 47.7696C0.53348 43.6253 0.0137206 39.0304 0.0891191 35.0129ZM2.1926 34.8943C2.08059 34.8943 2.01834 34.9766 2.01698 35.0491C1.94481 38.8944 2.44575 43.2573 3.77908 47.1439C5.11475 51.0373 7.25203 54.3606 10.3877 56.2797C10.4001 56.2873 10.4251 56.2972 10.4627 56.2972H43.1659C43.211 56.2972 43.2333 56.2854 43.2422 56.2792C47.2351 53.5017 52.5718 45.8551 51.8868 35.0387C51.8826 34.9715 51.8216 34.8943 51.7147 34.8943H2.1926Z" fill="#ACBC9F"/>
<path fill-rule="evenodd" clip-rule="evenodd" d="M34.3913 21.6584C34.9524 21.1089 35.9469 20.4024 37.09 20.0658C38.225 19.7315 39.4541 19.7695 40.6227 20.6305C42.1601 21.7634 42.5277 23.1178 42.4499 24.3236C42.3676 25.5988 41.7795 26.709 41.418 27.1428C41.0809 27.5473 39.9004 28.686 38.4878 30.0056C37.1029 31.2992 35.5644 32.703 34.571 33.6004L35.8634 35.0313C36.8624 34.129 38.4091 32.7176 39.804 31.4147C41.1711 30.1376 42.4652 28.8982 42.8993 28.3772C43.502 27.654 44.2636 26.1612 44.3741 24.4477C44.4891 22.6648 43.8926 20.6449 41.7665 19.0782C40.0042 17.7797 38.1161 17.7534 36.5452 18.2161C35.0066 18.6693 33.7243 19.5982 32.9929 20.3296C32.9686 20.3539 32.9456 20.3795 32.924 20.4063L22.5117 33.3252L24.013 34.5352L34.3913 21.6584Z" fill="#ACBC9F"/>
<path fill-rule="evenodd" clip-rule="evenodd" d="M50.4272 8.18277C49.472 9.06727 48.7912 10.3673 48.4713 11.2981C48.3464 11.6614 48.0176 11.916 47.6346 11.9459C47.2515 11.9758 46.8873 11.7753 46.7075 11.4358C46.1725 10.4253 45.4973 10.1525 44.8912 10.1205C44.2066 10.0843 43.5006 10.3592 43.0721 10.6358C41.101 11.9281 40.4329 13.5264 40.3363 14.9913C40.2361 16.5112 40.7524 17.9474 41.2519 18.7799L39.5985 19.7719C38.941 18.6762 38.2811 16.8538 38.4123 14.8644C38.5471 12.8206 39.5174 10.6596 42.0178 9.02133L42.0225 9.01833C42.6869 8.5884 43.7921 8.13155 44.9928 8.19496C45.8068 8.23794 46.6228 8.52003 47.3284 9.13404C47.7693 8.31859 48.3656 7.46387 49.1171 6.76797C50.4144 5.56676 52.2564 4.78713 54.4667 5.65204C55.7621 6.15892 56.6629 6.96914 57.1077 8.00831C57.5475 9.03599 57.4825 10.1502 57.1203 11.1643C56.541 12.7864 55.1578 14.3037 53.3865 15.2225C53.9582 16.0122 54.4736 16.9956 54.6429 18.0422C54.7764 18.8673 54.6977 19.7612 54.2268 20.6041C53.7586 21.4424 52.9569 22.1332 51.8199 22.658C47.4781 24.6619 43.5673 23.5196 42.0502 22.6093L43.0422 20.9559C44.096 21.5882 47.3325 22.6054 51.0119 20.9072C51.8803 20.5064 52.3223 20.0596 52.5434 19.6638C52.7619 19.2727 52.8181 18.8361 52.7395 18.3501C52.5733 17.3226 51.8227 16.2256 51.1199 15.5228C50.8819 15.2849 50.7853 14.9401 50.8648 14.6132C50.9444 14.2862 51.1886 14.0244 51.5093 13.9224C53.3736 13.3292 54.8132 11.8912 55.3044 10.5158C55.5447 9.84282 55.5399 9.24573 55.335 8.76701C55.1351 8.29977 54.6861 7.80846 53.7641 7.44766C52.4265 6.92426 51.3442 7.33368 50.4272 8.18277Z" fill="#ACBC9F"/>
<path fill-rule="evenodd" clip-rule="evenodd" d="M11.1624 24.4586C10.434 24.363 9.46522 24.4219 8.11535 24.8269C6.22075 25.3953 5.3171 26.7711 4.94599 28.3984C4.56513 30.0684 4.7799 31.9162 5.10433 33.096L3.24515 33.6072C2.86258 32.2161 2.5953 30.0339 3.06606 27.9697C3.54657 25.8627 4.8282 23.7999 7.56128 22.98C9.10371 22.5173 10.3524 22.4075 11.4135 22.5468C12.4839 22.6874 13.2971 23.073 13.9696 23.4984C14.2972 23.7057 14.5955 23.9253 14.8576 24.1182L14.8591 24.1194C15.1308 24.3194 15.3596 24.4876 15.5902 24.6322C16.0306 24.9084 16.4191 25.0604 16.9008 25.0604C17.9693 25.0604 18.5029 24.6507 19.2956 24.0421C19.311 24.0302 19.3266 24.0183 19.3423 24.0063C20.213 23.3381 21.2921 22.5537 23.2638 22.5537C24.9896 22.5537 26.3288 22.806 27.4419 23.4212C28.5593 24.0387 29.3398 24.9621 30.0546 26.0853L28.4279 27.1205C27.7929 26.1227 27.2236 25.5036 26.5093 25.1088C25.7906 24.7117 24.8159 24.4819 23.2638 24.4819C21.935 24.4819 21.2787 24.9508 20.5161 25.536C20.4831 25.5614 20.4497 25.5871 20.416 25.613C19.6193 26.2268 18.6305 26.9885 16.9008 26.9885C15.9363 26.9885 15.192 26.6585 14.5658 26.2658C14.2716 26.0813 13.9913 25.8749 13.7377 25.6881L13.716 25.6722C13.4474 25.4745 13.201 25.2938 12.9387 25.1279C12.4302 24.8062 11.8816 24.5531 11.1624 24.4586Z" fill="#ACBC9F"/>
<path fill-rule="evenodd" clip-rule="evenodd" d="M14.0369 18.2708C14.1441 17.8416 14.5298 17.5405 14.9722 17.5405H18.8285C19.1886 17.5405 19.5188 17.7413 19.6845 18.0611C19.8502 18.3809 19.8238 18.7664 19.6161 19.0606C19.0373 19.8806 18.448 21.4055 18.8241 25.3547L16.9046 25.5375C16.8927 25.4124 16.8817 25.2891 16.8715 25.1677L15.2264 25.7846C14.9227 24.975 14.5029 23.6551 14.2166 22.2888C13.9397 20.9675 13.7477 19.4274 14.0369 18.2708ZM16.8243 24.5218C16.6822 22.2234 16.8737 20.6393 17.2739 19.4687H15.822C15.8068 20.1315 15.9118 20.9773 16.1038 21.8933C16.3057 22.8571 16.5823 23.8028 16.8243 24.5218Z" fill="#ACBC9F"/>
<path fill-rule="evenodd" clip-rule="evenodd" d="M27.3871 3.95473C26.8178 4.74736 26.4664 5.72583 26.3266 6.36888C26.2564 6.69171 26.0258 6.95611 25.7156 7.06956C25.4053 7.183 25.0585 7.12967 24.7967 6.92825C23.2847 5.76517 21.6207 6.41926 20.959 6.92825C20.9448 6.93915 20.9304 6.94966 20.9156 6.95976C20.1763 7.46558 19.8196 8.03487 19.6717 8.60756C19.5183 9.20129 19.5681 9.88573 19.7977 10.6269C20.2638 12.1309 21.3984 13.6305 22.3694 14.5132C23.3905 15.4414 24.2447 17.1008 24.8861 18.6398C25.546 20.2231 26.0514 21.8582 26.318 22.8913L24.451 23.3731C24.2034 22.4137 23.7255 20.8673 23.1063 19.3816C22.4686 17.8515 21.7482 16.5543 21.0724 15.94C19.9224 14.8945 18.5504 13.1162 17.9559 11.1976C17.6553 10.2275 17.5364 9.16454 17.8048 8.12533C18.0769 7.07194 18.7258 6.12821 19.8056 5.38295C20.6734 4.72667 22.71 3.82778 24.8183 4.7204C25.0549 4.10391 25.3853 3.43653 25.821 2.82987C26.579 1.77454 27.7656 0.765137 29.4337 0.765137C31.0184 0.765137 32.6209 0.954125 33.8861 1.82767C34.9313 2.54933 35.626 3.64852 35.9744 5.16749C37.0638 4.77686 38.3946 4.52139 39.6723 4.74159C40.6037 4.90211 41.5205 5.3197 42.2575 6.12783C42.9889 6.92974 43.479 8.04548 43.6921 9.49457L41.7844 9.77511C41.6119 8.60185 41.2423 7.87617 40.8328 7.42715C40.429 6.98437 39.9238 6.74155 39.3448 6.64177C38.1302 6.43245 36.6685 6.87284 35.6694 7.40178C35.3849 7.55238 35.0441 7.55109 34.7608 7.39834C34.4774 7.2456 34.289 6.96154 34.2585 6.64113C34.0827 4.79538 33.4942 3.90024 32.7905 3.41438C32.031 2.88998 30.9341 2.69333 29.4337 2.69333C28.6337 2.69333 27.9563 3.16222 27.3871 3.95473Z" fill="#ACBC9F"/>
<path fill-rule="evenodd" clip-rule="evenodd" d="M50.3402 24.5604C49.8493 24.0685 49.0364 23.7842 48.4009 23.7029L48.6457 21.7903C49.5167 21.9018 50.8009 22.2923 51.705 23.1984C52.174 23.6683 52.5449 24.2835 52.6754 25.0529C52.7728 25.6275 52.7287 26.2438 52.5393 26.8972C53.2103 27.5774 53.875 28.5726 54.0632 29.7752C54.3172 31.399 53.6662 33.1399 51.6414 34.6948L50.467 33.1655C52.0579 31.9438 52.2807 30.8566 52.1582 30.0733C52.0196 29.1881 51.3935 28.3915 50.8189 27.9386C50.4781 27.6699 50.3588 27.2065 50.5275 26.8067C50.7983 26.165 50.8296 25.7016 50.7743 25.3752C50.7198 25.054 50.5687 24.7894 50.3402 24.5604Z" fill="#ACBC9F"/>
<path fill-rule="evenodd" clip-rule="evenodd" d="M27.2096 28.2351C27.5861 27.8586 28.1966 27.8586 28.5731 28.2351L30.1156 29.7777C30.4921 30.1542 30.4921 30.7646 30.1156 31.1411C29.7391 31.5176 29.1287 31.5176 28.7522 31.1411L27.2096 29.5986C26.8331 29.2221 26.8331 28.6116 27.2096 28.2351Z" fill="#ACBC9F"/>
<path fill-rule="evenodd" clip-rule="evenodd" d="M29.716 25.1499C30.0925 24.7734 30.7029 24.7734 31.0794 25.1499L32.622 26.6925C32.9985 27.069 32.9985 27.6794 32.622 28.0559C32.2455 28.4324 31.635 28.4324 31.2585 28.0559L29.716 26.5134C29.3395 26.1369 29.3395 25.5264 29.716 25.1499Z" fill="#ACBC9F"/>
<path fill-rule="evenodd" clip-rule="evenodd" d="M45.3354 29.2281C45.1115 28.7451 45.3215 28.1719 45.8046 27.9479L47.7837 27.0303C48.2667 26.8063 48.8399 27.0164 49.0639 27.4994C49.2878 27.9825 49.0778 28.5556 48.5948 28.7796L46.6156 29.6973C46.1326 29.9212 45.5594 29.7112 45.3354 29.2281Z" fill="#ACBC9F"/>
<path fill-rule="evenodd" clip-rule="evenodd" d="M32.9861 13.1107C32.5283 12.8389 32.3776 12.2473 32.6495 11.7895L33.7634 9.91384C34.0353 9.45603 34.6268 9.3053 35.0846 9.57718C35.5424 9.84906 35.6931 10.4406 35.4213 10.8984L34.3074 12.7741C34.0355 13.2319 33.4439 13.3826 32.9861 13.1107Z" fill="#ACBC9F"/>
<path fill-rule="evenodd" clip-rule="evenodd" d="M27.2829 15.1584C26.8105 15.4039 26.2284 15.22 25.9829 14.7475L23.7573 10.465C23.5118 9.99256 23.6958 9.41051 24.1682 9.16497C24.6407 8.91944 25.2228 9.10341 25.4683 9.57587L27.6938 13.8583C27.9394 14.3308 27.7554 14.9129 27.2829 15.1584Z" fill="#ACBC9F"/>
<path fill-rule="evenodd" clip-rule="evenodd" d="M32.8019 21.2936C33.1784 20.9171 33.7888 20.9171 34.1653 21.2936L36.4792 23.6074C36.8557 23.9839 36.8557 24.5944 36.4792 24.9709C36.1027 25.3474 35.4922 25.3474 35.1157 24.9709L32.8019 22.657C32.4254 22.2805 32.4254 21.6701 32.8019 21.2936Z" fill="#ACBC9F"/>
<path fill-rule="evenodd" clip-rule="evenodd" d="M43.214 19.1862C42.8375 18.8097 42.8375 18.1993 43.214 17.8228L51.698 9.3387C52.0745 8.96219 52.685 8.96219 53.0615 9.3387C53.438 9.7152 53.438 10.3256 53.0615 10.7021L44.5774 19.1862C44.2009 19.5627 43.5905 19.5627 43.214 19.1862Z" fill="#ACBC9F"/>
<path d="M22.5672 69.2774C22.5547 70.705 23.3686 72.0824 25.247 72.646L24.4456 73.8982C23.1495 73.485 22.2541 72.6773 21.7407 71.6316C21.2273 72.7587 20.3006 73.6415 18.9607 74.0735L18.1593 72.8213C20.0627 72.2077 20.9017 70.73 20.9017 69.2774V68.188H22.5672V69.2774ZM27.739 74.9501V79.0575H26.1361V76.2274H19.8999V74.9501H27.739ZM27.739 67.662V74.4617H26.1361V67.662H27.739ZM39.2882 72.9966V74.2614H34.8803V75.2381H38.0485V78.9322H30.0967V75.2381H33.2899V74.2614H28.8946V72.9966H39.2882ZM38.3615 67.9751V69.2524H36.8714V70.993H38.2864V72.2703H29.8838V70.993H31.2863V69.2524H29.8087V67.9751H38.3615ZM31.6745 76.4778V77.6549H36.4832V76.4778H31.6745ZM32.8892 70.993H35.2685V69.2524H32.8892V70.993Z" fill="#ACBC9F"/>
</svg>
