<svg width="46" height="64" viewBox="0 0 46 64" fill="none" xmlns="http://www.w3.org/2000/svg">
<path d="M16.8359 50.0078C16.8242 51.4609 17.8203 52.7852 19.4375 53.3242L18.875 54.2031C17.6621 53.7754 16.748 52.9199 16.2734 51.8242C15.8047 53.002 14.8848 53.9336 13.6367 54.3789L13.0742 53.5117C14.7148 52.9258 15.6992 51.5078 15.6992 50.0078V49H16.8359V50.0078ZM21.7227 55.3047V58.9961H20.6094V56.207H14.6094V55.3047H21.7227ZM21.7227 48.4961V54.8008H20.6094V48.4961H21.7227ZM32.9609 53.5234V54.4141H28.7188V55.5391H31.7891V58.8672H24.5352V55.5391H27.6172V54.4141H23.3867V53.5234H32.9609ZM32.0586 48.8242V49.7266H30.5352V51.7305H32.0117V52.6328H24.3125V51.7305H25.8008V49.7266H24.2656V48.8242H32.0586ZM25.6367 56.418V57.9648H30.7109V56.418H25.6367ZM26.9023 51.7305H29.4219V49.7266H26.9023V51.7305Z" fill="#333332"/>
<path d="M37.9829 21H6.32677C4.74397 28.3379 9.29453 33.3908 11.7677 35H32.0474C37.1915 30.7517 38.1478 23.8966 37.9829 21Z" fill="#ACBC9F"/>
<path fill-rule="evenodd" clip-rule="evenodd" d="M5.00441 21.3684C5.01799 20.6441 5.61474 20.093 6.31392 20.093H37.1436C37.8188 20.093 38.4045 20.6095 38.4487 21.3086C38.9018 28.4695 35.3836 33.6364 32.5545 35.6062C32.3306 35.762 32.0729 35.8326 31.8215 35.8326H11.4624C11.2324 35.8326 10.9975 35.7726 10.7891 35.6449C8.51412 34.2513 7.04979 31.8955 6.16614 29.3173C5.28105 26.7349 4.95747 23.8718 5.00441 21.3684ZM6.31392 21.2945C6.24419 21.2945 6.20543 21.3458 6.20459 21.391C6.15966 23.7871 6.47151 26.5057 7.30157 28.9275C8.13308 31.3535 9.46363 33.4243 11.4157 34.6201C11.4235 34.6249 11.439 34.6311 11.4624 34.6311H31.8215C31.8496 34.6311 31.8635 34.6237 31.869 34.6198C34.3548 32.8891 37.6772 28.1244 37.2507 21.3845C37.2481 21.3427 37.2101 21.2945 37.1436 21.2945H6.31392Z" fill="#365C16"/>
<path fill-rule="evenodd" clip-rule="evenodd" d="M26.1864 13.0463C26.5385 12.7017 27.1627 12.2587 27.8801 12.0475C28.5925 11.8379 29.364 11.8617 30.0974 12.4017C31.0624 13.1121 31.2931 13.9615 31.2443 14.7176C31.1926 15.5173 30.8235 16.2136 30.5966 16.4856C30.385 16.7393 29.6441 17.4534 28.7574 18.2809C27.8882 19.0922 26.9227 19.9725 26.2991 20.5352L27.1103 21.4326C27.7373 20.8667 28.7081 19.9817 29.5836 19.1645C30.4416 18.3637 31.2538 17.5864 31.5263 17.2597C31.9046 16.8062 32.3826 15.87 32.452 14.7955C32.5242 13.6774 32.1498 12.4107 30.8153 11.4282C29.7092 10.6139 28.5242 10.5974 27.5382 10.8876C26.5725 11.1718 25.7677 11.7543 25.3086 12.213C25.2934 12.2282 25.2789 12.2443 25.2654 12.2611L18.7302 20.3627L19.6725 21.1215L26.1864 13.0463Z" fill="#365C16"/>
<path fill-rule="evenodd" clip-rule="evenodd" d="M36.1915 4.51683C35.6028 5.07769 35.1833 5.90203 34.9861 6.49224C34.9091 6.72265 34.7066 6.88403 34.4705 6.90299C34.2344 6.92195 34.01 6.79487 33.8992 6.57954C33.5695 5.93882 33.1534 5.76582 32.7798 5.74552C32.358 5.72259 31.9229 5.89688 31.6589 6.07226C30.4441 6.89175 30.0324 7.90519 29.9729 8.83407C29.9111 9.79788 30.2293 10.7086 30.5371 11.2364L29.5182 11.8655C29.113 11.1707 28.7064 10.0151 28.7872 8.75363C28.8703 7.45765 29.4682 6.08735 31.0091 5.04856L31.012 5.04666C31.4215 4.77404 32.1026 4.48435 32.8425 4.52456C33.3441 4.55182 33.847 4.73068 34.2818 5.12002C34.5535 4.60295 34.921 4.06098 35.3841 3.61971C36.1835 2.85803 37.3187 2.36367 38.6809 2.9121C39.4791 3.23352 40.0343 3.74727 40.3084 4.4062C40.5794 5.05785 40.5393 5.76435 40.3161 6.40743C39.9591 7.43595 39.1068 8.39809 38.0151 8.98067C38.3675 9.48146 38.6851 10.105 38.7894 10.7687C38.8717 11.2919 38.8232 11.8587 38.533 12.3932C38.2444 12.9247 37.7504 13.3628 37.0498 13.6955C34.374 14.9662 31.964 14.2418 31.0291 13.6646L31.6404 12.6162C32.2898 13.0171 34.2843 13.6622 36.5518 12.5854C37.087 12.3312 37.3594 12.0479 37.4956 11.7969C37.6302 11.5489 37.6649 11.2721 37.6164 10.9639C37.514 10.3124 37.0514 9.61678 36.6183 9.17112C36.4717 9.02025 36.4121 8.80163 36.4611 8.59432C36.5102 8.387 36.6607 8.22098 36.8583 8.15629C38.0072 7.78015 38.8944 6.86834 39.1971 5.99621C39.3452 5.56946 39.3422 5.19085 39.216 4.88729C39.0927 4.59102 38.8161 4.27948 38.2479 4.0507C37.4236 3.71881 36.7565 3.97842 36.1915 4.51683Z" fill="#365C16"/>
<path fill-rule="evenodd" clip-rule="evenodd" d="M11.8055 14.916C11.3577 14.8584 10.7622 14.8939 9.93247 15.1379C8.76787 15.4803 8.21239 16.3092 7.98427 17.2897C7.75015 18.2958 7.88217 19.4091 8.0816 20.1199L6.93877 20.4279C6.7036 19.5897 6.5393 18.275 6.82868 17.0314C7.12405 15.7619 7.91187 14.5191 9.59189 14.0252C10.54 13.7464 11.3076 13.6802 11.9598 13.7642C12.6178 13.8489 13.1177 14.0812 13.5311 14.3375C13.7324 14.4624 13.9158 14.5947 14.0769 14.7109L14.0779 14.7116C14.2449 14.8321 14.3855 14.9334 14.5273 15.0206C14.7979 15.187 15.0368 15.2785 15.3329 15.2785C15.9897 15.2785 16.3177 15.0317 16.8049 14.6651C16.8145 14.6579 16.824 14.6507 16.8337 14.6435C17.3689 14.2409 18.0322 13.7683 19.2442 13.7683C20.3051 13.7683 21.1283 13.9203 21.8125 14.291C22.4994 14.663 22.9791 15.2194 23.4185 15.8961L22.4185 16.5198C22.0282 15.9186 21.6783 15.5456 21.2392 15.3077C20.7974 15.0684 20.1983 14.93 19.2442 14.93C18.4274 14.93 18.024 15.2126 17.5552 15.5651C17.5349 15.5804 17.5144 15.5959 17.4937 15.6115C17.0039 15.9813 16.3961 16.4402 15.3329 16.4402C14.74 16.4402 14.2825 16.2414 13.8976 16.0048C13.7167 15.8936 13.5444 15.7693 13.3885 15.6568L13.3752 15.6471C13.2101 15.528 13.0586 15.4192 12.8974 15.3192C12.5848 15.1254 12.2476 14.9729 11.8055 14.916Z" fill="#365C16"/>
<path fill-rule="evenodd" clip-rule="evenodd" d="M13.4619 10.856C13.5288 10.577 13.7696 10.3813 14.0459 10.3813H16.4538C16.6787 10.3813 16.8848 10.5118 16.9883 10.7197C17.0918 10.9275 17.0753 11.1781 16.9456 11.3693C16.5842 11.9023 16.2162 12.8933 16.4511 15.4601L15.2525 15.5789C15.2451 15.4975 15.2382 15.4174 15.2318 15.3385L14.2046 15.7395C14.015 15.2132 13.7528 14.3554 13.5741 13.4674C13.4012 12.6087 13.2813 11.6077 13.4619 10.856ZM15.2023 14.9187C15.1136 13.4249 15.2332 12.3953 15.4831 11.6345H14.5765C14.567 12.0653 14.6326 12.615 14.7525 13.2104C14.8786 13.8368 15.0513 14.4514 15.2023 14.9187Z" fill="#365C16"/>
<path fill-rule="evenodd" clip-rule="evenodd" d="M21.8497 1.98434C21.4909 2.47746 21.2694 3.0862 21.1813 3.48626C21.137 3.6871 20.9917 3.8516 20.7962 3.92217C20.6006 3.99275 20.3821 3.95957 20.2171 3.83426C19.2642 3.11067 18.2154 3.51761 17.7984 3.83426C17.7895 3.84104 17.7804 3.84758 17.7711 3.85386C17.3052 4.16855 17.0804 4.52273 16.9871 4.87901C16.8905 5.24839 16.9218 5.6742 17.0666 6.13531C17.3603 7.07098 18.0754 8.00392 18.6873 8.55311C19.3308 9.13058 19.8692 10.1629 20.2734 11.1204C20.6893 12.1054 21.0078 13.1227 21.1759 13.7654L19.9992 14.0651C19.8432 13.4682 19.542 12.5062 19.1517 11.5818C18.7498 10.6299 18.2958 9.82293 17.8699 9.44073C17.1451 8.79034 16.2805 7.68397 15.9058 6.49036C15.7163 5.88684 15.6414 5.22552 15.8105 4.579C15.982 3.92365 16.391 3.33653 17.0715 2.87289C17.6184 2.46459 18.902 1.90537 20.2307 2.46069C20.3798 2.07716 20.588 1.66196 20.8626 1.28454C21.3404 0.627979 22.0882 0 23.1395 0C24.1382 0 25.1482 0.117575 25.9455 0.661036C26.6042 1.11 27.0421 1.79384 27.2617 2.73884C27.9482 2.49582 28.787 2.33688 29.5922 2.47387C30.1792 2.57374 30.757 2.83353 31.2215 3.3363C31.6824 3.83519 31.9913 4.52933 32.1256 5.43085L30.9233 5.60538C30.8146 4.87546 30.5817 4.42399 30.3236 4.14464C30.0691 3.86917 29.7507 3.71811 29.3858 3.65603C28.6203 3.52581 27.6991 3.79979 27.0694 4.12886C26.8901 4.22255 26.6753 4.22175 26.4968 4.12672C26.3182 4.03169 26.1995 3.85497 26.1803 3.65564C26.0695 2.50734 25.6985 1.95045 25.2551 1.64817C24.7764 1.32193 24.0851 1.19959 23.1395 1.19959C22.6353 1.19959 22.2084 1.4913 21.8497 1.98434Z" fill="#365C16"/>
<path fill-rule="evenodd" clip-rule="evenodd" d="M36.2761 14.7857C35.9884 14.4794 35.5121 14.3023 35.1396 14.2516L35.2831 13.0604C35.7935 13.1299 36.5461 13.3731 37.0759 13.9374C37.3508 14.2301 37.5681 14.6133 37.6446 15.0925C37.7017 15.4503 37.6758 15.8342 37.5648 16.2411C37.9581 16.6648 38.3476 17.2846 38.4579 18.0336C38.6068 19.045 38.2252 20.1292 37.0387 21.0976L36.3505 20.1452C37.2828 19.3842 37.4133 18.7071 37.3415 18.2193C37.2603 17.6679 36.8934 17.1718 36.5567 16.8897C36.3569 16.7224 36.287 16.4338 36.3859 16.1847C36.5446 15.7851 36.563 15.4965 36.5305 15.2932C36.4986 15.0931 36.41 14.9284 36.2761 14.7857Z" fill="#365C16"/>
<path fill-rule="evenodd" clip-rule="evenodd" d="M21.9076 17.2426C22.1256 17.0246 22.479 17.0246 22.6969 17.2426L23.59 18.1356C23.8079 18.3536 23.8079 18.707 23.59 18.9249C23.372 19.1429 23.0186 19.1429 22.8006 18.9249L21.9076 18.0319C21.6896 17.8139 21.6896 17.4605 21.9076 17.2426Z" fill="#365C16"/>
<path fill-rule="evenodd" clip-rule="evenodd" d="M23.2745 15.2333C23.5288 15.0153 23.941 15.0153 24.1953 15.2333L25.2372 16.1263C25.4915 16.3443 25.4915 16.6977 25.2372 16.9157C24.9829 17.1336 24.5706 17.1336 24.3163 16.9157L23.2745 16.0226C23.0202 15.8047 23.0202 15.4513 23.2745 15.2333Z" fill="#365C16"/>
<path fill-rule="evenodd" clip-rule="evenodd" d="M33.0715 17.7879C32.9318 17.4864 33.0628 17.1288 33.3643 16.989L34.5993 16.4164C34.9008 16.2766 35.2584 16.4077 35.3982 16.7091C35.538 17.0106 35.4069 17.3682 35.1055 17.508L33.8704 18.0806C33.569 18.2204 33.2113 18.0893 33.0715 17.7879Z" fill="#365C16"/>
<path fill-rule="evenodd" clip-rule="evenodd" d="M25.3658 7.73007C25.0801 7.56041 24.986 7.19128 25.1557 6.90559L25.8508 5.73511C26.0205 5.44942 26.3896 5.35536 26.6753 5.52502C26.961 5.69468 27.055 6.06382 26.8854 6.3495L26.1903 7.51998C26.0206 7.80567 25.6515 7.89973 25.3658 7.73007Z" fill="#365C16"/>
<path fill-rule="evenodd" clip-rule="evenodd" d="M21.8071 9.00798C21.5123 9.16119 21.149 9.04639 20.9958 8.75156L19.607 6.07917C19.4538 5.78434 19.5686 5.42112 19.8634 5.2679C20.1583 5.11469 20.5215 5.22949 20.6747 5.52432L22.0635 8.19671C22.2167 8.49154 22.1019 8.85476 21.8071 9.00798Z" fill="#365C16"/>
<path fill-rule="evenodd" clip-rule="evenodd" d="M25.2714 12.9039C25.5091 12.6661 25.8947 12.6661 26.1324 12.9039L27.5938 14.3652C27.8315 14.603 27.8315 14.9885 27.5938 15.2263C27.356 15.4641 26.9704 15.4641 26.7327 15.2263L25.2714 13.765C25.0336 13.5272 25.0336 13.1417 25.2714 12.9039Z" fill="#365C16"/>
<path fill-rule="evenodd" clip-rule="evenodd" d="M31.7481 11.5214C31.5131 11.2864 31.5131 10.9055 31.7481 10.6706L37.0424 5.37625C37.2773 5.1413 37.6583 5.1413 37.8932 5.37625C38.1282 5.6112 38.1282 5.99213 37.8932 6.22708L32.5989 11.5214C32.3639 11.7563 31.983 11.7563 31.7481 11.5214Z" fill="#365C16"/>
</svg>
