<svg width="65" height="71" viewBox="0 0 65 71" fill="none" xmlns="http://www.w3.org/2000/svg">
<path d="M32.4302 62.4885V63.7533H28.135V65.7193H26.5572V63.7533H21.999V62.4885H32.4302ZM31.0903 57.3543V61.5493H23.3013V57.3543H31.0903ZM24.8666 58.594V60.3096H29.525V58.594H24.8666ZM31.2781 66.7712V68.0485H23.2262V64.7301H24.8165V66.7712H31.2781ZM41.8256 56.8534V61.4867H43.3157V62.8141H41.8256V68.2489H40.2102V56.8534H41.8256ZM32.5714 65.0306C33.4042 65.0306 34.3747 65.0306 35.389 65.0056V64.0288C34.1743 63.7909 33.3854 63.0207 33.3979 61.9626C33.3854 60.6853 34.5375 59.8212 36.203 59.8212C37.8309 59.8212 38.9955 60.6853 39.008 61.9626C38.9955 63.0207 38.194 63.7971 36.9919 64.0288V64.9429C37.8935 64.8991 38.8014 64.824 39.6466 64.705L39.7468 65.8696C37.3175 66.3204 34.7128 66.3329 32.7843 66.3329L32.5714 65.0306ZM39.559 58.1182V59.3704H32.7969V58.1182H35.389V56.916H36.9919V58.1182H39.559ZM36.203 61.0359C35.4266 61.0359 34.9006 61.374 34.9132 61.9626C34.9006 62.5637 35.4266 62.8893 36.203 62.8893C36.9543 62.8893 37.4677 62.5637 37.4677 61.9626C37.4677 61.374 36.9543 61.0359 36.203 61.0359Z" fill="#ACBC9F"/>
<path fill-rule="evenodd" clip-rule="evenodd" d="M46.8435 0.729773C51.3553 1.02291 55.2572 2.02712 57.5016 2.88062C57.8555 3.01521 58.0895 3.35448 58.0895 3.73313V38.0271C58.0895 38.3551 57.9133 38.6579 57.6282 38.82C57.343 38.9821 56.9928 38.9786 56.7109 38.8108C53.8978 37.1364 49.4275 36.7349 44.8071 36.9995C40.2351 37.2613 35.7197 38.1609 32.973 38.9072C32.6988 38.9817 32.4056 38.9242 32.1799 38.7517C31.9542 38.5791 31.8218 38.3112 31.8218 38.0271V3.73313C31.8218 3.36828 32.0392 3.03853 32.3746 2.89481C37.145 0.850344 42.3317 0.436638 46.8435 0.729773ZM33.6459 4.34315V36.8506C36.5063 36.1518 40.575 35.4147 44.7028 35.1783C48.7635 34.9458 53.0388 35.1865 56.2653 36.5505V4.37296C54.1172 3.63195 50.6743 2.80666 46.7252 2.55008C42.5727 2.28029 37.9201 2.64317 33.6459 4.34315Z" fill="#ACBC9F"/>
<path fill-rule="evenodd" clip-rule="evenodd" d="M18.8069 0.729773C14.2951 1.02291 10.3932 2.02712 8.14879 2.88062C7.79487 3.01521 7.56091 3.35448 7.56091 3.73313V38.0271C7.56091 38.3551 7.73705 38.6579 8.02221 38.82C8.30738 38.9821 8.65763 38.9786 8.9395 38.8108C11.7526 37.1364 16.2229 36.7349 20.8433 36.9995C25.4153 37.2613 29.9307 38.1609 32.6774 38.9072C32.9515 38.9817 33.2448 38.9242 33.4705 38.7517C33.6962 38.5791 33.8286 38.3112 33.8286 38.0271V3.73313C33.8286 3.36828 33.6112 3.03853 33.2758 2.89481C28.5054 0.850344 23.3187 0.436638 18.8069 0.729773ZM32.0045 4.34315V36.8506C29.1441 36.1518 25.0754 35.4147 20.9476 35.1783C16.8869 34.9458 12.6116 35.1865 9.38506 36.5505V4.37296C11.5331 3.63195 14.9761 2.80666 18.9252 2.55008C23.0777 2.28029 27.7303 2.64317 32.0045 4.34315Z" fill="#ACBC9F"/>
<path fill-rule="evenodd" clip-rule="evenodd" d="M3 8.11101C3 6.80133 4.06171 5.73962 5.37139 5.73962H8.65485C9.15858 5.73962 9.56693 6.14797 9.56693 6.6517C9.56693 7.15542 9.15858 7.56377 8.65485 7.56377H5.37139C5.06916 7.56377 4.82415 7.80878 4.82415 8.11101V41.1281C4.82415 41.4303 5.06915 41.6753 5.37139 41.6753H27.5607C28.5398 41.6753 29.3242 42.2695 29.7631 42.9632C30.3699 43.9224 31.2952 44.7763 32.3687 44.7763C34.0637 44.7763 35.1804 44.038 35.7112 43.1836C36.1435 42.4875 36.9548 41.6753 38.0997 41.6753H60.2782C60.5804 41.6753 60.8254 41.4303 60.8254 41.1281V8.11101C60.8254 7.80878 60.5804 7.56377 60.2782 7.56377H57.1771C56.6734 7.56377 56.2651 7.15542 56.2651 6.6517C56.2651 6.14797 56.6734 5.73962 57.1771 5.73962H60.2782C61.5879 5.73962 62.6496 6.80133 62.6496 8.11101V41.1281C62.6496 42.4377 61.5879 43.4994 60.2782 43.4994H38.0997C37.8767 43.4994 37.5502 43.6801 37.2607 44.1461C36.3592 45.5974 34.619 46.6005 32.3687 46.6005C30.3201 46.6005 28.9186 45.0404 28.2215 43.9384C28.028 43.6326 27.7644 43.4994 27.5607 43.4994H5.37139C4.06171 43.4994 3 42.4377 3 41.1281V8.11101Z" fill="#ACBC9F"/>
<path fill-rule="evenodd" clip-rule="evenodd" d="M21.6064 0.996826C22.1101 0.996826 22.5185 1.40518 22.5185 1.9089V12.476L23.6977 11.2968C24.0539 10.9406 24.6314 10.9406 24.9876 11.2968L26.1668 12.476V1.9089C26.1668 1.40518 26.5751 0.996826 27.0788 0.996826C27.5826 0.996826 27.9909 1.40518 27.9909 1.9089V14.6779C27.9909 15.0468 27.7687 15.3794 27.4279 15.5206C27.0871 15.6617 26.6948 15.5837 26.4339 15.3229L24.3426 13.2316L22.2513 15.3229C21.9905 15.5837 21.5982 15.6617 21.2574 15.5206C20.9166 15.3794 20.6943 15.0468 20.6943 14.6779V1.9089C20.6943 1.40518 21.1027 0.996826 21.6064 0.996826Z" fill="#ACBC9F"/>
</svg>
