<svg width="62" height="82" viewBox="0 0 62 82" fill="none" xmlns="http://www.w3.org/2000/svg">
<path fill-rule="evenodd" clip-rule="evenodd" d="M19.2263 15.4559C19.7588 15.4559 20.1904 15.8876 20.1904 16.42V25.0832L23.186 28.0788C23.3822 28.275 23.4844 28.5463 23.4663 28.8232L22.3117 46.5263C22.3174 46.7582 22.3962 47.1317 22.6076 47.4429C22.8001 47.7264 23.1216 47.9941 23.7412 48.0458C24.2858 48.0912 24.5871 47.8814 24.8043 47.5821C25.0435 47.2527 25.1679 46.8103 25.201 46.4899L24.0488 28.8232C24.0308 28.5463 24.1329 28.275 24.3292 28.0788L27.3247 25.0832V16.42C27.3247 15.8876 27.7564 15.4559 28.2888 15.4559C28.8213 15.4559 29.2529 15.8876 29.2529 16.42V25.4826C29.2529 25.7382 29.1514 25.9835 28.9705 26.1643L26.0014 29.1335L27.1299 46.4371C27.1327 46.4809 27.1326 46.5248 27.1295 46.5686C27.0883 47.1452 26.8851 47.998 26.3647 48.7149C25.8075 49.4825 24.8876 50.0762 23.5811 49.9673C22.3497 49.8647 21.5142 49.2648 21.0126 48.5263C20.538 47.8276 20.3832 47.042 20.3832 46.4999C20.3832 46.479 20.3839 46.458 20.3853 46.4371L21.5138 29.1335L18.5446 26.1643C18.3638 25.9835 18.2622 25.7382 18.2622 25.4826V16.42C18.2622 15.8876 18.6938 15.4559 19.2263 15.4559Z" fill="#ACBC9F"/>
<path fill-rule="evenodd" clip-rule="evenodd" d="M22.1194 15.4559C22.6518 15.4559 23.0835 15.8876 23.0835 16.42V24.5185C23.0835 25.0509 22.6518 25.4826 22.1194 25.4826C21.5869 25.4826 21.1553 25.0509 21.1553 24.5185V16.42C21.1553 15.8876 21.5869 15.4559 22.1194 15.4559Z" fill="#ACBC9F"/>
<path fill-rule="evenodd" clip-rule="evenodd" d="M38.5217 17.5752C38.4551 17.5761 38.3863 17.577 38.3147 17.577C38.1458 17.577 37.805 17.6214 37.3302 18.1783C36.822 18.7745 36.195 19.9251 35.5782 22.0839C34.5007 25.8552 36.6803 27.9259 37.7818 28.4766C38.1259 28.6487 38.3348 29.0089 38.3132 29.393L37.3576 46.403C37.4449 46.6999 37.6276 47.1097 37.9105 47.4464C38.2188 47.8135 38.5955 48.0424 39.086 48.0424C39.5471 48.0424 39.7881 47.8463 39.9595 47.5649C40.1587 47.238 40.2403 46.8067 40.2429 46.5142L39.665 29.3714C39.6573 29.1415 39.732 28.9163 39.8757 28.7367C40.015 28.5626 40.1759 28.4043 40.3123 28.2732C40.3522 28.2348 40.3906 28.1983 40.4281 28.1626C40.5308 28.0648 40.6268 27.9733 40.7296 27.8685C40.995 27.598 41.2484 27.2933 41.4534 26.8832C41.8557 26.0786 42.1638 24.6781 41.6127 22.0143C41.0507 19.2983 40.2975 18.2786 39.7813 17.8875C39.355 17.5645 38.9945 17.5692 38.5217 17.5752ZM40.9456 16.3505C42.0201 17.1646 42.9059 18.7479 43.5009 21.6237C44.1066 24.5516 43.8363 26.4291 43.178 27.7455C42.8529 28.3959 42.4555 28.8626 42.1062 29.2187C41.9782 29.3492 41.8482 29.473 41.7402 29.5758C41.7073 29.6072 41.6764 29.6365 41.6483 29.6636C41.6334 29.6779 41.6192 29.6916 41.6055 29.7049L42.1706 46.4674C42.1709 46.4782 42.1711 46.4891 42.1711 46.4999C42.1711 47.0429 42.04 47.856 41.6062 48.5681C41.1413 49.3312 40.3217 49.9706 39.086 49.9706C37.8797 49.9706 37.003 49.364 36.4341 48.6866C35.8801 48.0272 35.5712 47.2542 35.4471 46.7167C35.4266 46.6279 35.4188 46.5367 35.424 46.4458L36.3553 29.8689C34.6486 28.7158 32.477 25.9193 33.7242 21.5541C34.3745 19.2781 35.0972 17.8255 35.8629 16.9274C36.6621 15.9899 37.5196 15.6488 38.3147 15.6488C38.3545 15.6488 38.4024 15.6473 38.4576 15.6457C38.9353 15.6313 39.9555 15.6005 40.9456 16.3505ZM34.8309 49.6193C34.9184 50.1445 34.5636 50.6413 34.0384 50.7288C32.0486 51.0604 29.6756 50.8673 28.7302 50.7322C28.2031 50.6569 27.8369 50.1686 27.9122 49.6415C27.9875 49.1144 28.4758 48.7481 29.0029 48.8234C29.8572 48.9454 32.009 49.1122 33.7214 48.8268C34.2466 48.7393 34.7433 49.0941 34.8309 49.6193Z" fill="#ACBC9F"/>
<path fill-rule="evenodd" clip-rule="evenodd" d="M35.9914 13.1204C30.4774 11.9282 26.3136 13.0181 25.0419 13.6263C24.5616 13.856 23.9859 13.6529 23.7562 13.1725C23.5265 12.6922 23.7296 12.1165 24.21 11.8868C25.8948 11.081 30.4979 9.95987 36.3989 11.2358C36.9193 11.3483 37.25 11.8614 37.1374 12.3818C37.0249 12.9023 36.5118 13.2329 35.9914 13.1204Z" fill="#ACBC9F"/>
<path fill-rule="evenodd" clip-rule="evenodd" d="M45.2579 17.1913C45.6839 16.8718 46.2882 16.9581 46.6077 17.3841C51.169 23.4658 51.9828 29.3946 51.0948 34.3395C50.2138 39.2454 47.6677 43.1397 45.554 45.2534C45.1775 45.6299 44.5671 45.6299 44.1906 45.2534C43.8141 44.8769 43.8141 44.2665 44.1906 43.89C46.0618 42.0187 48.394 38.4701 49.197 33.9987C49.993 29.5661 49.2964 24.1827 45.0651 18.541C44.7456 18.1151 44.832 17.5108 45.2579 17.1913Z" fill="#ACBC9F"/>
<path fill-rule="evenodd" clip-rule="evenodd" d="M16.3294 18.5373C15.9014 18.2206 15.2977 18.3108 14.9809 18.7388C11.2247 23.8148 10.6369 29.4166 11.4971 34.2325C12.3517 39.0173 14.648 43.1072 16.7941 45.2534C17.1706 45.6299 17.7811 45.6299 18.1576 45.2534C18.5341 44.8769 18.5341 44.2665 18.1576 43.89C16.3188 42.0512 14.188 38.332 13.3952 33.8935C12.6081 29.4862 13.1528 24.4508 16.5309 19.8858C16.8476 19.4578 16.7574 18.854 16.3294 18.5373Z" fill="#ACBC9F"/>
<path fill-rule="evenodd" clip-rule="evenodd" d="M30.989 59.0332C46.6432 59.0332 59.3335 46.3429 59.3335 30.6887C59.3335 15.0345 46.6432 2.34421 30.989 2.34421C15.3348 2.34421 2.6445 15.0345 2.6445 30.6887C2.6445 46.3429 15.3348 59.0332 30.989 59.0332ZM30.989 60.9614C47.7081 60.9614 61.2617 47.4078 61.2617 30.6887C61.2617 13.9696 47.7081 0.416016 30.989 0.416016C14.2698 0.416016 0.716309 13.9696 0.716309 30.6887C0.716309 47.4078 14.2698 60.9614 30.989 60.9614Z" fill="#ACBC9F"/>
<path fill-rule="evenodd" clip-rule="evenodd" d="M25.0119 15.4559C25.5444 15.4559 25.976 15.8876 25.976 16.42V24.5185C25.976 25.0509 25.5444 25.4826 25.0119 25.4826C24.4795 25.4826 24.0479 25.0509 24.0479 24.5185V16.42C24.0479 15.8876 24.4795 15.4559 25.0119 15.4559Z" fill="#ACBC9F"/>
<path d="M26.1974 69.4509V74.7104H20.7752V69.4509H26.1974ZM22.353 70.7157V73.4456H24.6196V70.7157H22.353ZM29.4783 68.662V71.5046H31.0185V72.832H29.4783V76.188H27.8754V68.662H29.4783ZM26.6106 75.9376C26.6106 77.2023 27.8128 78.4421 30.2421 78.7551L29.616 80.0074C27.8316 79.7319 26.5292 78.9617 25.8342 77.8911C25.1392 78.9617 23.8369 79.7319 22.0399 80.0074L21.4263 78.7551C23.8306 78.4421 25.0328 77.2023 25.0328 75.9376V75.6496H26.6106V75.9376ZM37.8718 69.2881V70.5654H35.5927C35.6679 71.7676 36.5257 72.9697 38.3101 73.4581L37.5087 74.6978C36.2063 74.3284 35.2922 73.5458 34.7788 72.544C34.2591 73.6272 33.3262 74.485 31.9738 74.8982L31.1723 73.646C32.9881 73.12 33.8709 71.8552 33.9523 70.5654H31.6106V69.2881H37.8718ZM40.6769 68.662V74.8481H39.074V68.662H40.6769ZM34.6285 75.324V76.3884H39.0865V75.324H40.6769V79.9322H33.0507V75.324H34.6285ZM34.6285 78.6549H39.0865V77.6281H34.6285V78.6549Z" fill="#ACBC9F"/>
</svg>
