<svg width="46" height="66" viewBox="0 0 46 66" fill="none" xmlns="http://www.w3.org/2000/svg">
<path d="M17.75 57.0938C20.0234 57.0938 21.4531 57.8086 21.4648 59.0391C21.4531 60.2578 20.0234 60.9844 17.75 60.9727C15.5 60.9844 14.0586 60.2578 14.0586 59.0391C14.0586 57.8086 15.5 57.0938 17.75 57.0938ZM17.75 57.9375C16.1562 57.9375 15.1602 58.3477 15.1719 59.0391C15.1602 59.7188 16.1562 60.1172 17.75 60.1172C19.3555 60.1172 20.3516 59.7188 20.3633 59.0391C20.3516 58.3477 19.3555 57.9375 17.75 57.9375ZM21.3828 51.0117V51.8906C21.3828 52.7344 21.3828 53.6016 21.0898 54.6797L20 54.5625C20.2812 53.4902 20.2812 52.7168 20.2812 51.9023H14.1406V51.0117H21.3828ZM22.5781 55.3242V56.2266H13.0273V55.3242H16.8594V53.3555H17.9492V55.3242H22.5781ZM28.25 57.0352C30.418 57.0352 31.7305 57.7617 31.7305 59.0039C31.7305 60.2578 30.418 60.9844 28.25 60.9961C26.0586 60.9844 24.7227 60.2578 24.7227 59.0039C24.7227 57.7617 26.0586 57.0352 28.25 57.0352ZM28.25 57.9141C26.7266 57.9141 25.8242 58.3008 25.8359 59.0039C25.8242 59.707 26.7266 60.1055 28.25 60.1055C29.7617 60.1055 30.6406 59.707 30.6406 59.0039C30.6406 58.3008 29.7617 57.9141 28.25 57.9141ZM31.6367 50.4961V53.0625H33.1602V54.0117H31.6367V56.7656H30.5234V50.4961H31.6367ZM24.8867 51.1523V52.6641H27.6406V51.1523H28.7422V56.0273H23.7969V51.1523H24.8867ZM24.8867 55.1367H27.6406V53.543H24.8867V55.1367Z" fill="#333332"/>
<ellipse cx="21" cy="21.5" rx="15" ry="15.5" fill="#ACBC9F"/>
<path fill-rule="evenodd" clip-rule="evenodd" d="M17.2281 6.12193C21.8995 4.64238 26.8071 5.55049 29.9044 6.83202C30.2114 6.95905 30.3574 7.31118 30.2305 7.61852C30.1036 7.92586 29.7519 8.07202 29.4448 7.94499C26.5269 6.73763 21.9185 5.89951 17.591 7.27013C13.3214 8.62244 9.22309 12.1562 7.29029 19.8975C6.9683 23.0121 7.46562 27.6098 9.95996 31.3317C12.4358 35.026 16.9376 37.9464 24.8374 37.6169C29.0452 37.4414 34.2204 34.0271 36.7538 28.8654C39.2524 23.7747 39.1784 16.9658 32.838 9.96054C32.615 9.71409 32.6337 9.33329 32.8799 9.11C33.1261 8.88671 33.5065 8.90548 33.7295 9.15193C40.382 16.5019 40.5617 23.8379 37.8336 29.3965C35.1402 34.884 29.6083 38.6233 24.8875 38.8202C16.6184 39.1651 11.6963 36.0841 8.96092 32.0026C6.25506 27.9652 5.74721 23.0369 6.09829 19.7292C6.10121 19.7017 6.10601 19.6744 6.11267 19.6476C8.13007 11.5203 12.5064 7.61744 17.2281 6.12193Z" fill="#365C16"/>
<path fill-rule="evenodd" clip-rule="evenodd" d="M35.6371 3.82724C36.3637 3.82724 36.9527 3.23822 36.9527 2.51163C36.9527 1.78503 36.3637 1.19601 35.6371 1.19601C34.9105 1.19601 34.3215 1.78503 34.3215 2.51163C34.3215 3.23822 34.9105 3.82724 35.6371 3.82724ZM35.6371 5.02326C37.0243 5.02326 38.1487 3.89876 38.1487 2.51163C38.1487 1.12449 37.0243 0 35.6371 0C34.25 0 33.1255 1.12449 33.1255 2.51163C33.1255 3.89876 34.25 5.02326 35.6371 5.02326Z" fill="#365C16"/>
<path fill-rule="evenodd" clip-rule="evenodd" d="M34.5159 4.11234C34.8009 4.29071 34.8856 4.6635 34.705 4.94498L26.8851 17.1334C26.7045 17.4149 26.3271 17.4985 26.0421 17.3201C25.7571 17.1417 25.6724 16.769 25.853 16.4875L33.6729 4.29906C33.8535 4.01757 34.2309 3.93397 34.5159 4.11234Z" fill="#365C16"/>
<path fill-rule="evenodd" clip-rule="evenodd" d="M29.4221 10.1588C29.5065 10.478 29.3113 10.8038 28.9861 10.8866C25.8949 11.6738 21.6286 13.8942 18.9106 17.9694C16.2133 22.0135 14.9832 27.9707 18.0915 36.3713C18.2061 36.6811 18.0431 37.0236 17.7273 37.1361C17.4116 37.2487 17.0627 37.0887 16.948 36.7788C13.7303 28.0824 14.9536 21.7223 17.8928 17.3155C20.8113 12.9397 25.3648 10.5754 28.6806 9.73095C29.0057 9.64814 29.3377 9.83971 29.4221 10.1588Z" fill="#365C16"/>
<path fill-rule="evenodd" clip-rule="evenodd" d="M27.4323 6.60864C27.4419 6.93877 27.1803 7.21415 26.8479 7.22372C24.2737 7.29783 17.7967 9.24547 13.3799 16.6194C11.205 20.2503 10.9186 24.0974 11.4582 27.4559C11.9991 30.823 13.3659 33.6651 14.4434 35.2322C14.6309 35.5049 14.5603 35.877 14.2857 36.0633C14.0111 36.2495 13.6365 36.1794 13.449 35.9067C12.2788 34.2047 10.84 31.1983 10.2691 27.6444C9.6968 24.082 9.99237 19.9357 12.3451 16.0079C16.9833 8.26426 23.8482 6.11357 26.813 6.02821C27.1454 6.01864 27.4226 6.27851 27.4323 6.60864Z" fill="#365C16"/>
<path fill-rule="evenodd" clip-rule="evenodd" d="M36.8871 13.1707C37.16 13.3634 37.2261 13.7424 37.0347 14.0173C34.3182 17.918 30.3662 19.8955 26.5746 20.7908C22.7892 21.6846 19.1172 21.5122 16.8698 21.0722C16.5426 21.0081 16.3289 20.6891 16.3926 20.3595C16.4562 20.03 16.773 19.8149 17.1002 19.8789C19.1985 20.2898 22.6969 20.4578 26.2991 19.6073C29.8951 18.7582 33.5481 16.9066 36.0464 13.3193C36.2378 13.0445 36.6142 12.9779 36.8871 13.1707Z" fill="#365C16"/>
<path fill-rule="evenodd" clip-rule="evenodd" d="M38.8621 17.8345C39.1481 18.0035 39.2389 18.3657 39.0652 18.6436C35.9567 23.6146 31.3549 25.9882 26.8965 26.9336C22.4535 27.8756 18.1292 27.4067 15.4825 26.6774C15.1606 26.5887 14.9736 26.2632 15.0649 25.9503C15.1561 25.6374 15.491 25.4556 15.8129 25.5443C18.2954 26.2284 22.4162 26.6781 26.6383 25.7829C30.8451 24.8909 35.1286 22.6713 38.0298 18.0319C38.2036 17.754 38.5762 17.6656 38.8621 17.8345Z" fill="#365C16"/>
<path fill-rule="evenodd" clip-rule="evenodd" d="M39.2906 23.932C39.5359 24.1555 39.5558 24.5379 39.3351 24.7862C30.5286 34.6935 20.1975 33.4104 16.0575 31.4627C15.7583 31.322 15.6284 30.9623 15.7674 30.6593C15.9065 30.3564 16.2617 30.2249 16.5609 30.3656C20.3066 32.1278 30.0482 33.4255 38.447 23.977C38.6677 23.7287 39.0454 23.7085 39.2906 23.932Z" fill="#365C16"/>
</svg>
