<svg width="11" height="14" viewBox="0 0 11 14" fill="none" xmlns="http://www.w3.org/2000/svg">
<path fill-rule="evenodd" clip-rule="evenodd" d="M5.66475 12.8422C6.43149 12.1464 7.14111 11.3902 7.78675 10.5808C9.14675 8.87217 9.97408 7.1875 10.0301 5.6895C10.0522 5.0807 9.95147 4.47367 9.73378 3.90469C9.51608 3.3357 9.18595 2.81643 8.76308 2.37789C8.34021 1.93935 7.83329 1.59054 7.2726 1.3523C6.71191 1.11406 6.10895 0.99127 5.49975 0.99127C4.89054 0.99127 4.28758 1.11406 3.72689 1.3523C3.1662 1.59054 2.65929 1.93935 2.23642 2.37789C1.81355 2.81643 1.48341 3.3357 1.26572 3.90469C1.04803 4.47367 0.947255 5.0807 0.969415 5.6895C1.02608 7.1875 1.85408 8.87217 3.21341 10.5808C3.85906 11.3902 4.56867 12.1464 5.33541 12.8422C5.40919 12.9088 5.46408 12.9573 5.50008 12.9875L5.66475 12.8422ZM5.00808 13.6188C5.00808 13.6188 0.166748 9.5415 0.166748 5.5295C0.166748 4.11501 0.728651 2.75846 1.72885 1.75826C2.72904 0.75807 4.08559 0.196167 5.50008 0.196167C6.91457 0.196167 8.27112 0.75807 9.27132 1.75826C10.2715 2.75846 10.8334 4.11501 10.8334 5.5295C10.8334 9.5415 5.99208 13.6188 5.99208 13.6188C5.72275 13.8668 5.27941 13.8642 5.00808 13.6188ZM5.50008 7.39617C5.99515 7.39617 6.46995 7.1995 6.82001 6.84943C7.17008 6.49937 7.36675 6.02457 7.36675 5.5295C7.36675 5.03443 7.17008 4.55964 6.82001 4.20957C6.46995 3.8595 5.99515 3.66283 5.50008 3.66283C5.00501 3.66283 4.53022 3.8595 4.18015 4.20957C3.83008 4.55964 3.63341 5.03443 3.63341 5.5295C3.63341 6.02457 3.83008 6.49937 4.18015 6.84943C4.53022 7.1995 5.00501 7.39617 5.50008 7.39617ZM5.50008 8.19617C4.79284 8.19617 4.11456 7.91522 3.61446 7.41512C3.11437 6.91502 2.83341 6.23674 2.83341 5.5295C2.83341 4.82226 3.11437 4.14398 3.61446 3.64388C4.11456 3.14379 4.79284 2.86283 5.50008 2.86283C6.20733 2.86283 6.8856 3.14379 7.3857 3.64388C7.8858 4.14398 8.16675 4.82226 8.16675 5.5295C8.16675 6.23674 7.8858 6.91502 7.3857 7.41512C6.8856 7.91522 6.20733 8.19617 5.50008 8.19617Z" fill="#365C16"/>
<path fill-rule="evenodd" clip-rule="evenodd" d="M5.66475 12.8422C6.43149 12.1464 7.14111 11.3902 7.78675 10.5808C9.14675 8.87217 9.97408 7.1875 10.0301 5.6895C10.0522 5.0807 9.95147 4.47367 9.73378 3.90469C9.51608 3.3357 9.18595 2.81643 8.76308 2.37789C8.34021 1.93935 7.83329 1.59054 7.2726 1.3523C6.71191 1.11406 6.10895 0.99127 5.49975 0.99127C4.89054 0.99127 4.28758 1.11406 3.72689 1.3523C3.1662 1.59054 2.65929 1.93935 2.23642 2.37789C1.81355 2.81643 1.48341 3.3357 1.26572 3.90469C1.04803 4.47367 0.947255 5.0807 0.969415 5.6895C1.02608 7.1875 1.85408 8.87217 3.21341 10.5808C3.85906 11.3902 4.56867 12.1464 5.33541 12.8422C5.40919 12.9088 5.46408 12.9573 5.50008 12.9875L5.66475 12.8422ZM3.61446 7.41512C4.11456 7.91522 4.79284 8.19617 5.50008 8.19617C6.20733 8.19617 6.8856 7.91522 7.3857 7.41512C7.8858 6.91502 8.16675 6.23674 8.16675 5.5295C8.16675 4.82226 7.8858 4.14398 7.3857 3.64388C6.8856 3.14379 6.20733 2.86283 5.50008 2.86283C4.79284 2.86283 4.11456 3.14379 3.61446 3.64388C3.11437 4.14398 2.83341 4.82226 2.83341 5.5295C2.83341 6.23674 3.11437 6.91502 3.61446 7.41512Z" fill="#365C16"/>
</svg>
