<svg width="58" height="76" viewBox="0 0 58 76" fill="none" xmlns="http://www.w3.org/2000/svg">
<path fill-rule="evenodd" clip-rule="evenodd" d="M10.2587 1.22729C10.4357 0.950672 10.7415 0.783325 11.0699 0.783325H47.6703C48.0086 0.783325 48.3221 0.960836 48.4962 1.25095L57.1647 15.6985C57.3432 15.996 57.3479 16.3666 57.1769 16.6686C57.006 16.9705 56.6858 17.1572 56.3388 17.1572H1.82352C1.47154 17.1572 1.14758 16.9652 0.978603 16.6564C0.809624 16.3476 0.822533 15.9713 1.01227 15.6748L10.2587 1.22729ZM11.597 2.70966L3.58348 15.2308H54.6376L47.1249 2.70966H11.597Z" fill="#ACBC9F"/>
<path fill-rule="evenodd" clip-rule="evenodd" d="M2.09745 15.2469C2.62054 15.3435 2.96629 15.8459 2.86969 16.369C2.70407 17.2658 2.74554 18.636 3.36387 19.7943C3.94664 20.886 5.10068 21.9073 7.43752 22.1103C7.45211 22.1116 7.46667 22.1132 7.48119 22.1151C8.524 22.2538 10.1389 22.1398 11.5299 21.3719C12.8644 20.6352 14.0728 19.2577 14.35 16.6646C14.4065 16.1357 14.8812 15.7528 15.4101 15.8093C15.939 15.8659 16.322 16.3405 16.2654 16.8694C15.9219 20.0826 14.3498 22.0156 12.4608 23.0584C10.6383 24.0644 8.59917 24.2027 7.24922 24.0275C4.32262 23.7673 2.57322 22.4037 1.66452 20.7015C0.789159 19.0617 0.753035 17.2232 0.975385 16.0191C1.07198 15.496 1.57435 15.1503 2.09745 15.2469Z" fill="#ACBC9F"/>
<path fill-rule="evenodd" clip-rule="evenodd" d="M15.5808 15.2469C16.1039 15.3435 16.4497 15.8459 16.3531 16.369C16.1875 17.2658 16.2289 18.636 16.8473 19.7943C17.43 20.886 18.5841 21.9073 20.9209 22.1103C20.9355 22.1116 20.9501 22.1132 20.9646 22.1151C22.0074 22.2538 23.6223 22.1398 25.0133 21.3719C26.3478 20.6352 27.5562 19.2577 27.8334 16.6646C27.8899 16.1357 28.3646 15.7528 28.8935 15.8093C29.4224 15.8659 29.8054 16.3405 29.7488 16.8694C29.4053 20.0826 27.8332 22.0156 25.9442 23.0584C24.1217 24.0644 22.0826 24.2027 20.7326 24.0275C17.806 23.7673 16.0566 22.4037 15.1479 20.7015C14.2726 19.0617 14.2364 17.2232 14.4588 16.0191C14.5554 15.496 15.0577 15.1503 15.5808 15.2469Z" fill="#ACBC9F"/>
<path fill-rule="evenodd" clip-rule="evenodd" d="M29.4505 15.2469C29.9736 15.3435 30.3193 15.8459 30.2227 16.369C30.0571 17.2658 30.0986 18.636 30.7169 19.7943C31.2997 20.886 32.4537 21.9073 34.7905 22.1103C34.8051 22.1116 34.8197 22.1132 34.8342 22.1151C35.877 22.2538 37.4919 22.1398 38.8829 21.3719C40.2174 20.6352 41.4258 19.2577 41.703 16.6646C41.7596 16.1357 42.2342 15.7528 42.7631 15.8093C43.2921 15.8659 43.675 16.3405 43.6184 16.8694C43.2749 20.0826 41.7028 22.0156 39.8139 23.0584C37.9913 24.0644 35.9522 24.2027 34.6022 24.0275C31.6756 23.7673 29.9262 22.4037 29.0175 20.7015C28.1422 19.0617 28.1061 17.2232 28.3284 16.0191C28.425 15.496 28.9274 15.1503 29.4505 15.2469Z" fill="#ACBC9F"/>
<path fill-rule="evenodd" clip-rule="evenodd" d="M42.9353 15.2469C43.4584 15.3435 43.8042 15.8459 43.7076 16.369C43.542 17.2658 43.5834 18.636 44.2018 19.7943C44.7845 20.886 45.9386 21.9073 48.2754 22.1103C48.29 22.1116 48.3046 22.1132 48.3191 22.1151C49.3619 22.2538 50.9768 22.1398 52.3678 21.3719C53.7023 20.6352 54.9107 19.2577 55.1879 16.6646C55.2444 16.1357 55.7191 15.7528 56.248 15.8093C56.7769 15.8659 57.1599 16.3405 57.1033 16.8694C56.7598 20.0826 55.1877 22.0156 53.2987 23.0584C51.4762 24.0644 49.4371 24.2027 48.0871 24.0275C45.1605 23.7673 43.4111 22.4037 42.5024 20.7015C41.627 19.0617 41.5909 17.2232 41.8133 16.0191C41.9099 15.496 42.4122 15.1503 42.9353 15.2469Z" fill="#ACBC9F"/>
<path fill-rule="evenodd" clip-rule="evenodd" d="M6.44657 22.3583C6.97851 22.3583 7.40973 22.7895 7.40973 23.3214V47.9785H50.5596V23.3214C50.5596 22.7895 50.9908 22.3583 51.5228 22.3583C52.0547 22.3583 52.486 22.7895 52.486 23.3214V48.9417C52.486 49.4736 52.0547 49.9049 51.5228 49.9049H6.44657C5.91462 49.9049 5.4834 49.4736 5.4834 48.9417V23.3214C5.4834 22.7895 5.91462 22.3583 6.44657 22.3583Z" fill="#ACBC9F"/>
<path fill-rule="evenodd" clip-rule="evenodd" d="M41.12 31.2194H33.7999C33.3743 31.2194 33.0294 31.5644 33.0294 31.99V38.1542C33.0294 38.5798 33.3743 38.9248 33.7999 38.9248H41.12C41.5455 38.9248 41.8905 38.5798 41.8905 38.1542V31.99C41.8905 31.5644 41.5455 31.2194 41.12 31.2194ZM33.7999 29.2931C32.3105 29.2931 31.103 30.5005 31.103 31.99V38.1542C31.103 39.6437 32.3105 40.8511 33.7999 40.8511H41.12C42.6094 40.8511 43.8168 39.6437 43.8168 38.1542V31.99C43.8168 30.5005 42.6094 29.2931 41.12 29.2931H33.7999Z" fill="#ACBC9F"/>
<path fill-rule="evenodd" clip-rule="evenodd" d="M18.1967 30.2562C16.6009 30.2562 15.3072 31.5498 15.3072 33.1457V48.3637C15.3072 48.8957 14.876 49.3269 14.344 49.3269C13.8121 49.3269 13.3809 48.8957 13.3809 48.3637V33.1457C13.3809 30.486 15.537 28.3298 18.1967 28.3298H21.2788C23.9385 28.3298 26.0947 30.486 26.0947 33.1457V48.3637C26.0947 48.8957 25.6634 49.3269 25.1315 49.3269C24.5996 49.3269 24.1683 48.8957 24.1683 48.3637V33.1457C24.1683 31.5498 22.8747 30.2562 21.2788 30.2562H18.1967Z" fill="#ACBC9F"/>
<path d="M18.2502 67.3301V68.5824H7.83153V67.3301H12.2645V66.3534H9.0963V62.4464H16.998V63.6861H10.6867V65.1011H17.0606V66.3534H13.8298V67.3301H18.2502ZM13.0158 69.1584C15.4828 69.1584 16.9729 69.9098 16.9855 71.2622C16.9729 72.5896 15.4828 73.3534 13.0158 73.3534C10.5239 73.3534 9.02116 72.5896 9.02116 71.2622C9.02116 69.9098 10.5239 69.1584 13.0158 69.1584ZM13.0158 70.3731C11.438 70.3731 10.6366 70.6736 10.6491 71.2622C10.6366 71.8633 11.438 72.1388 13.0158 72.1388C14.5561 72.1388 15.3701 71.8633 15.3826 71.2622C15.3701 70.6736 14.5561 70.3731 13.0158 70.3731ZM20.5704 63.0349V69.2461C21.616 69.2273 22.5802 69.1521 23.6509 68.9205L23.8638 70.2604C22.4613 70.5609 21.2341 70.611 19.7689 70.611H18.9675V63.0349H20.5704ZM28.4094 61.9455V73.3409H26.9068V61.9455H28.4094ZM25.9676 62.1583V72.84H24.4523V66.8417H22.1733V65.5519H24.4523V62.1583H25.9676ZM38.218 61.9455V66.3158H39.8334V67.6307H38.218V73.3159H36.6152V61.9455H38.218ZM35.1751 63.1101C35.1626 66.5162 33.8352 69.4715 30.0033 71.3498L29.1017 70.1226C31.8003 68.7702 33.2466 66.9545 33.5472 64.4124H29.7529V63.1101H35.1751ZM49.8048 61.9455V73.3409H48.3021V61.9455H49.8048ZM47.3755 62.1959V72.84H45.8853V67.6056H44.0195C43.3683 68.908 42.3101 70.035 40.6885 70.9742L39.7869 69.8471C42.0847 68.4822 43.099 66.823 43.3182 64.5877H40.413V63.2979H44.9085C44.9023 64.3811 44.7896 65.4017 44.5203 66.3409H45.8853V62.1959H47.3755Z" fill="#ACBC9F"/>
</svg>
