<svg width="16" height="15" viewBox="0 0 16 15" fill="none" xmlns="http://www.w3.org/2000/svg">
<path d="M14.1538 1.95652H12.0215L10.9731 0.290218C10.9169 0.200993 10.8408 0.127829 10.7516 0.0772056C10.6624 0.0265828 10.5627 6.44062e-05 10.4615 0H5.53846C5.43725 6.44062e-05 5.33762 0.0265828 5.24839 0.0772056C5.15916 0.127829 5.08309 0.200993 5.02692 0.290218L3.97769 1.95652H1.84615C1.35652 1.95652 0.886947 2.16265 0.540726 2.52957C0.194505 2.89649 0 3.39414 0 3.91304V13.0435C0 13.5624 0.194505 14.06 0.540726 14.4269C0.886947 14.7939 1.35652 15 1.84615 15H14.1538C14.6435 15 15.1131 14.7939 15.4593 14.4269C15.8055 14.06 16 13.5624 16 13.0435V3.91304C16 3.39414 15.8055 2.89649 15.4593 2.52957C15.1131 2.16265 14.6435 1.95652 14.1538 1.95652ZM10.7692 8.15217C10.7692 8.73262 10.6068 9.30003 10.3025 9.78265C9.99824 10.2653 9.56575 10.6414 9.05974 10.8636C8.55373 11.0857 7.99693 11.1438 7.45975 11.0306C6.92257 10.9173 6.42914 10.6378 6.04186 10.2274C5.65457 9.81694 5.39083 9.29401 5.28398 8.72472C5.17713 8.15543 5.23197 7.56534 5.44156 7.02908C5.65116 6.49282 6.0061 6.03447 6.4615 5.71199C6.9169 5.38951 7.4523 5.21739 8 5.21739C8.73445 5.21739 9.43881 5.52659 9.95814 6.07697C10.4775 6.62735 10.7692 7.37382 10.7692 8.15217Z" fill="#111111" fill-opacity="0.4"/>
</svg>
