<svg width="25" height="21" viewBox="0 0 25 21" fill="none" xmlns="http://www.w3.org/2000/svg">
<path d="M12.5 21L11.4897 20.1018C9.31367 18.1453 7.51367 16.4706 6.08967 15.0777C4.66589 13.6846 3.542 12.4561 2.718 11.3921C1.894 10.3282 1.31833 9.36544 0.991 8.50399C0.663667 7.64275 0.5 6.77638 0.5 5.90487C0.5 4.23598 1.07611 2.83466 2.22833 1.70093C3.38033 0.566976 4.80422 0 6.5 0C7.67267 0 8.77267 0.295243 9.8 0.88573C10.8273 1.47622 11.7273 2.33505 12.5 3.46222C13.2727 2.33505 14.1727 1.47622 15.2 0.88573C16.2273 0.295243 17.3273 0 18.5 0C20.1958 0 21.6197 0.566976 22.7717 1.70093C23.9239 2.83466 24.5 4.23598 24.5 5.90487C24.5 6.77638 24.3363 7.64275 24.009 8.50399C23.6817 9.36544 23.106 10.3282 22.282 11.3921C21.458 12.4561 20.3383 13.6846 18.923 15.0777C17.5077 16.4706 15.7034 18.1453 13.5103 20.1018L12.5 21ZM12.5 19.2236C14.6333 17.326 16.3889 15.7005 17.7667 14.3472C19.1444 12.9937 20.2333 11.8194 21.0333 10.8243C21.8333 9.8292 22.3889 8.94773 22.7 8.17988C23.0111 7.41181 23.1667 6.65347 23.1667 5.90487C23.1667 4.59267 22.7222 3.49918 21.8333 2.62438C20.9444 1.74959 19.8333 1.31219 18.5 1.31219C17.4384 1.31219 16.459 1.61039 15.5617 2.20678C14.6641 2.80317 13.8607 3.70104 13.1513 4.90038H11.8487C11.1222 3.6842 10.3146 2.78207 9.42567 2.19399C8.53678 1.60612 7.56156 1.31219 6.5 1.31219C5.18378 1.31219 4.07689 1.74959 3.17933 2.62438C2.282 3.49918 1.83333 4.59267 1.83333 5.90487C1.83333 6.65347 1.98889 7.41181 2.3 8.17988C2.61111 8.94773 3.16667 9.8292 3.96667 10.8243C4.76667 11.8194 5.85556 12.9894 7.23333 14.3344C8.61111 15.6794 10.3667 17.3091 12.5 19.2236Z" fill="white"/>
</svg>
