<svg width="46" height="65" viewBox="0 0 46 65" fill="none" xmlns="http://www.w3.org/2000/svg">
<path d="M17.082 50.6211V54.3594H14.4219V56.5156C15.5645 56.5098 16.6543 56.4688 17.9492 56.2344L18.043 57.1484C16.5898 57.4062 15.3945 57.4414 14.0703 57.4531H13.3438V53.4688H16.0156V51.5234H13.332V50.6211H17.082ZM22.0273 49.4961V59.9961H20.9609V49.4961H22.0273ZM19.8711 49.7305V59.457H18.8164V54.1133H17.5742V53.2109H18.8164V49.7305H19.8711ZM32.1523 49.4961V60.0195H31.0391V54.1836H28.8711V53.2695H31.0391V49.4961H32.1523ZM27.1367 52.4492C27.1367 54.2305 28.25 56.1406 29.8672 56.8555L29.1992 57.7461C27.9863 57.1602 27.0488 55.9355 26.5859 54.5C26.1172 56.0293 25.1621 57.3359 23.9492 57.957L23.2695 57.0898C24.875 56.3281 26 54.3359 26.0117 52.4492V51.4648H23.6914V50.5508H29.4688V51.4648H27.1367V52.4492Z" fill="#333332"/>
<path d="M10.5 24C9.69997 24 15.8333 12.6667 19 7L19.5 22.5C16.8333 23 11.3 24 10.5 24Z" fill="#ACBC9F"/>
<path d="M20 23V2.5L32 21L20 23Z" fill="#ACBC9F"/>
<path fill-rule="evenodd" clip-rule="evenodd" d="M36.8659 27.7182C36.4324 28.1633 36.3162 28.771 36.353 29.1942C36.3841 29.5522 36.1192 29.8676 35.7612 29.8988C35.4032 29.9299 35.0878 29.6649 35.0567 29.307C34.9959 28.6084 35.1724 27.5919 35.9339 26.8102C36.7177 26.0056 37.9979 25.5735 39.888 25.8255C40.2112 25.8686 40.4526 26.1443 40.4526 26.4704V29.9822C40.4526 30.3416 40.1613 30.6328 39.802 30.6328C39.4427 30.6328 39.1514 30.3416 39.1514 29.9822V27.0621C37.8987 26.9975 37.2263 27.3482 36.8659 27.7182Z" fill="#365C16"/>
<path fill-rule="evenodd" clip-rule="evenodd" d="M29.5099 37.6694C29.1588 37.7231 28.8399 37.9156 28.6688 38.0696C28.6254 38.1087 28.5769 38.1417 28.5246 38.1679C28.0683 38.396 27.3688 38.6289 26.627 38.6914C25.8919 38.7532 25.0141 38.6545 24.3147 38.0935C23.8707 37.7373 23.4906 37.6882 23.1856 37.7316C22.8648 37.7773 22.5732 37.935 22.3493 38.0941C21.5669 38.7814 20.2573 39.0151 18.7006 38.1555C17.7623 37.6375 16.9865 37.8059 16.4232 38.1439C15.9996 38.398 15.3056 38.7011 14.561 38.7915C13.813 38.8823 12.9011 38.7656 12.2367 38.0182C12.0812 37.8432 11.7601 37.7359 11.3242 37.7724C11.1209 37.7895 10.9313 37.8362 10.7856 37.894C10.6478 37.9487 10.5992 37.993 10.5981 37.9918C10.598 37.9917 10.5983 37.9912 10.5989 37.9903C10.2659 38.4194 9.73394 38.7842 9.13757 38.9599C8.52584 39.14 7.79362 39.1343 7.11975 38.7287C6.4773 38.342 6.01011 38.1209 5.54287 38.0333C5.08994 37.9484 4.57875 37.979 3.8438 38.2073C3.50066 38.3139 3.13607 38.1221 3.02946 37.779C2.92286 37.4358 3.11462 37.0712 3.45777 36.9646C4.33241 36.6929 5.065 36.6198 5.78267 36.7544C6.48604 36.8863 7.1163 37.2079 7.79079 37.6138C8.08881 37.7932 8.42966 37.8119 8.76995 37.7117C9.12206 37.608 9.41832 37.3909 9.57345 37.1893L9.57557 37.1865L9.57558 37.1865C9.76559 36.9422 10.0552 36.784 10.3056 36.6846C10.5758 36.5774 10.8911 36.5029 11.2156 36.4757C11.8351 36.4238 12.6603 36.5361 13.2093 37.1537C13.4814 37.4599 13.8865 37.5626 14.4042 37.4998C14.9253 37.4365 15.4458 37.2129 15.7538 37.0281L15.7538 37.0281C16.6538 36.4881 17.9266 36.2418 19.3295 37.0164C20.5101 37.6683 21.2095 37.3722 21.5039 37.1045C21.5214 37.0886 21.5398 37.0737 21.5589 37.0598C21.8685 36.8347 22.3717 36.5332 23.0022 36.4434C23.6605 36.3496 24.4022 36.4956 25.1289 37.0784C25.4626 37.3461 25.9504 37.4425 26.5179 37.3947C27.0406 37.3507 27.5452 37.1901 27.8738 37.0372C28.1977 36.7683 28.7087 36.4756 29.3132 36.3831C30.0023 36.2777 30.7883 36.4404 31.4739 37.1259C32.2001 37.8522 33.0249 37.6877 33.3926 37.5035C33.7537 37.1389 34.2987 36.7606 34.9417 36.5873C35.6598 36.3938 36.5033 36.4603 37.2739 37.0784C38.3012 37.9024 39.0475 37.6504 39.274 37.4919C39.278 37.4891 39.2821 37.4863 39.2862 37.4836C39.6396 37.248 40.223 36.9667 40.8646 36.8824C41.5214 36.796 42.3188 36.913 42.9169 37.5965C43.1535 37.8669 43.1261 38.278 42.8557 38.5146C42.5853 38.7512 42.1742 38.7238 41.9376 38.4534C41.7163 38.2004 41.4162 38.1223 41.0342 38.1725C40.6397 38.2243 40.2456 38.409 40.013 38.5629C39.2622 39.0833 37.885 39.2367 36.4598 38.0935C36.0598 37.7726 35.6595 37.7416 35.2802 37.8438C34.8729 37.9535 34.4992 38.2201 34.2721 38.4662C34.2301 38.5117 34.1818 38.551 34.1287 38.5828C33.4782 38.9731 31.8866 39.3789 30.5537 38.046C30.1857 37.678 29.8255 37.6211 29.5099 37.6694Z" fill="#365C16"/>
<path fill-rule="evenodd" clip-rule="evenodd" d="M6.85739 27.7158C9.27155 27.5527 10.9802 27.8076 12.3816 28.1084C12.7226 28.1816 13.0555 28.2607 13.3833 28.3386C14.5086 28.6059 15.5738 28.859 16.702 28.81C17.061 28.7944 17.3393 28.4907 17.3237 28.1317C17.3081 27.7728 17.0045 27.4944 16.6455 27.51C15.7143 27.5505 14.8815 27.3536 13.803 27.0986C13.4505 27.0152 13.0717 26.9256 12.6546 26.8361C11.0016 26.4814 8.93499 26.1875 5.92718 26.4883C5.73223 26.5078 5.55645 26.6141 5.44865 26.7777C5.34085 26.9413 5.31251 27.1448 5.37151 27.3316L7.12743 32.892C7.23563 33.2347 7.60111 33.4247 7.94376 33.3165C8.2864 33.2083 8.47645 32.8428 8.36825 32.5002L6.85739 27.7158Z" fill="#365C16"/>
<path fill-rule="evenodd" clip-rule="evenodd" d="M30.9737 27.0792C31.3282 27.1381 31.5678 27.4731 31.509 27.8276C31.4858 27.9672 31.5213 28.2665 31.6728 28.5234C31.8079 28.7527 31.9896 28.8818 32.2528 28.8818C32.6473 28.8818 33.2518 28.878 33.9607 28.8735C35.8271 28.8617 38.4179 28.8453 39.81 28.8821C40.1625 28.8914 40.4435 29.1798 40.4435 29.5324V32.2571C40.4435 32.6165 40.1522 32.9078 39.7929 32.9078C39.4335 32.9078 39.1422 32.6165 39.1422 32.2571V30.1706C37.7141 30.1511 35.6086 30.1644 34.0049 30.1746C33.2836 30.1791 32.6638 30.1831 32.2528 30.1831C31.4225 30.1831 30.8612 29.7092 30.5518 29.1841C30.2586 28.6867 30.148 28.0804 30.2253 27.6145C30.2842 27.26 30.6193 27.0203 30.9737 27.0792Z" fill="#365C16"/>
<path fill-rule="evenodd" clip-rule="evenodd" d="M19.4206 0.0253791C19.6994 -0.0547693 19.9975 0.059346 20.1516 0.305152L33.0283 20.8506C33.1467 21.0394 33.1601 21.2756 33.064 21.4767C32.9679 21.6777 32.7756 21.8156 32.5543 21.8421L20.2509 23.3144V25.8188C20.2509 26.1781 19.9596 26.4694 19.6003 26.4694C19.241 26.4694 18.9497 26.1781 18.9497 25.8188V0.650666C18.9497 0.360573 19.1418 0.105527 19.4206 0.0253791ZM20.2509 22.0039L31.3807 20.672L20.2509 2.91386V22.0039Z" fill="#365C16"/>
<path fill-rule="evenodd" clip-rule="evenodd" d="M30.217 26.4345C27.5086 26.2944 22.5479 26.1477 20.1236 26.4639C18.7684 26.6407 17.8758 27.0828 17.3192 27.5094H30.217V26.4345ZM19.9553 25.1737C22.7192 24.8131 28.4297 25.0237 30.9058 25.1693C31.2497 25.1895 31.5183 25.4743 31.5183 25.8188V28.16C31.5183 28.5193 31.227 28.8106 30.8676 28.8106H15.9424C15.728 28.8106 15.5274 28.705 15.4061 28.5284C15.2847 28.3517 15.2582 28.1265 15.3351 27.9265C15.6833 27.0212 17.0826 25.5484 19.9553 25.1737Z" fill="#365C16"/>
<path fill-rule="evenodd" clip-rule="evenodd" d="M28.7494 32.5108C28.741 32.5182 28.7377 32.5222 28.7377 32.5222L28.7377 32.5222C28.7134 32.5519 28.6866 32.5794 28.6575 32.6044C28.3051 32.9071 27.7691 33.3037 27.0161 33.4113C26.2504 33.5208 25.3747 33.3171 24.365 32.6549C23.5546 32.1234 22.7354 32.3548 22.3507 32.6183C22.3374 32.6305 22.3234 32.6435 22.3087 32.6571C22.0597 32.8872 21.6158 33.2976 21.0831 33.4896C20.7657 33.604 20.3933 33.6529 19.9944 33.5462C19.5987 33.4405 19.2381 33.1981 18.912 32.8358C18.549 32.4324 18.0862 32.3178 17.6555 32.3644C17.4366 32.3881 17.2375 32.4533 17.0832 32.5356C16.9205 32.6223 16.8486 32.7052 16.8306 32.7353C16.6426 33.0486 16.3325 33.2678 16.0305 33.411C15.7168 33.5598 15.3493 33.6569 14.9691 33.688C14.2172 33.7496 13.3066 33.5563 12.6634 32.8328C12.4132 32.5512 11.9977 32.3775 11.5622 32.3624C11.1129 32.3468 10.8011 32.5 10.6726 32.6671C10.3939 33.0295 9.94222 33.5297 9.30414 33.7478C8.60023 33.9883 7.82422 33.8386 7.04328 33.1997C6.53406 32.783 5.90952 32.6054 5.30259 32.5662C4.6916 32.5267 4.14639 32.6314 3.85653 32.728C3.51565 32.8417 3.14719 32.6574 3.03356 32.3166C2.91994 31.9757 3.10416 31.6072 3.44505 31.4936C3.88681 31.3463 4.60002 31.2169 5.38644 31.2677C6.17693 31.3187 7.08881 31.5557 7.86726 32.1926C8.37399 32.6072 8.68855 32.583 8.88343 32.5164C9.14412 32.4273 9.39947 32.188 9.64122 31.8737C10.1133 31.26 10.9061 31.0376 11.6073 31.062C12.3221 31.0868 13.1028 31.3684 13.636 31.9683C13.9293 32.2983 14.385 32.4303 14.8629 32.3912C15.0976 32.3719 15.3108 32.3122 15.473 32.2353C15.5534 32.1972 15.6141 32.1582 15.6563 32.1241C15.6771 32.1074 15.6917 32.0932 15.7014 32.0825C15.7062 32.0772 15.7096 32.073 15.7117 32.0701C15.7139 32.0672 15.7148 32.0657 15.7148 32.0658C15.8919 31.7705 16.1762 31.5445 16.4711 31.3873C16.7743 31.2257 17.134 31.112 17.5154 31.0707C18.2852 30.9874 19.1887 31.1981 19.8792 31.9653C20.0799 32.1883 20.2338 32.2633 20.3305 32.2892C20.4238 32.3141 20.5215 32.3089 20.6418 32.2655C20.913 32.1678 21.1652 31.938 21.4503 31.6782C21.468 31.6621 21.4859 31.6458 21.5039 31.6294C21.5214 31.6135 21.5398 31.5986 21.5589 31.5846C22.2595 31.0751 23.6931 30.6581 25.0786 31.5668C25.8994 32.1051 26.4595 32.1764 26.832 32.1232C27.2015 32.0704 27.497 31.8807 27.7746 31.6471C27.9648 31.4374 28.2173 31.2913 28.4632 31.1935C28.738 31.0841 29.0524 31.0157 29.3783 30.9956C30.0242 30.9557 30.7893 31.1029 31.4179 31.6009C31.911 31.9916 32.3437 32.1326 32.6999 32.158C33.0371 32.182 33.3471 32.1051 33.6188 31.9777C34.1427 31.5711 34.7906 31.4089 35.4043 31.3991C36.0458 31.3889 36.7021 31.5431 37.2531 31.8186C38.4082 32.3961 39.0367 32.1829 39.274 32.0168C39.278 32.014 39.2821 32.0112 39.2862 32.0084C39.6396 31.7729 40.223 31.4916 40.8646 31.4072C41.5214 31.3209 42.3188 31.4378 42.9169 32.1214C43.1535 32.3918 43.1261 32.8028 42.8557 33.0394C42.5853 33.276 42.1742 33.2486 41.9376 32.9782C41.7163 32.7253 41.4162 32.6471 41.0342 32.6973C40.6397 32.7492 40.2457 32.9338 40.0131 33.0877C39.2745 33.6002 38.1139 33.7038 36.6712 32.9824C36.3052 32.7994 35.8554 32.6934 35.425 32.7002C34.9927 32.7071 34.6317 32.8255 34.3858 33.0305C34.3479 33.0621 34.3065 33.0892 34.2624 33.1115C33.812 33.3388 33.2482 33.5015 32.6074 33.4559C31.9617 33.4099 31.2844 33.1553 30.6098 32.6208C30.2901 32.3675 29.8655 32.2692 29.4585 32.2943C29.2579 32.3067 29.0801 32.3485 28.9442 32.4025C28.8769 32.4293 28.8254 32.457 28.7889 32.4812C28.771 32.4931 28.7581 32.5032 28.7494 32.5108Z" fill="#365C16"/>
<path fill-rule="evenodd" clip-rule="evenodd" d="M19.8874 4.74939C20.2098 4.90807 20.3425 5.29805 20.1839 5.62044L11.5095 23.2445L19.5081 22.1019C19.8638 22.0511 20.1934 22.2982 20.2442 22.6539C20.295 23.0097 20.0478 23.3392 19.6921 23.39L10.4736 24.707C10.2347 24.7411 9.99664 24.6402 9.85496 24.445C9.71328 24.2497 9.69129 23.992 9.79783 23.7756L19.0164 5.04582C19.1751 4.72343 19.565 4.59072 19.8874 4.74939Z" fill="#365C16"/>
</svg>
