<svg width="15" height="14" viewBox="0 0 15 14" fill="none" xmlns="http://www.w3.org/2000/svg">
<path fill-rule="evenodd" clip-rule="evenodd" d="M14.4353 12.5741L10.4905 8.73956C11.1976 7.80246 11.5764 6.66953 11.5711 5.50756C11.5576 2.47441 9.03285 0.0175744 5.9113 5.57178e-05C4.41746 -0.00651157 2.98297 0.567712 1.92738 1.59481C0.871788 2.6219 0.282792 4.01655 0.291601 5.46806C0.305093 8.50148 2.83012 10.9585 5.95195 10.9761C7.15268 10.9811 8.32289 10.6088 9.28795 9.91456L9.29207 9.91156L13.2332 13.7431C13.4463 13.9603 13.7638 14.0482 14.0627 13.9728C14.3616 13.8973 14.595 13.6704 14.6724 13.3799C14.7498 13.0894 14.659 12.7809 14.4353 12.5741ZM5.948 9.87807C3.45067 9.86411 1.43069 7.89867 1.41973 5.47207C1.41299 4.31101 1.88422 3.19552 2.72853 2.37391C3.57284 1.55229 4.72016 1.09275 5.91507 1.09757C8.4124 1.11153 10.4324 3.07697 10.4434 5.50357C10.4501 6.66463 9.97886 7.78012 9.13455 8.60174C8.29023 9.42335 7.14292 9.88289 5.948 9.87807Z" fill="#111111" fill-opacity="0.3"/>
</svg>
