<svg width="22" height="22" viewBox="0 0 22 22" fill="none" xmlns="http://www.w3.org/2000/svg">
<path fill-rule="evenodd" clip-rule="evenodd" d="M21.1148 19.362L15.3653 13.61C16.3959 12.2043 16.948 10.5048 16.9403 8.76174C16.9206 4.2118 13.2407 0.526363 8.69097 0.500084C6.51367 0.490232 4.42286 1.35161 2.88432 2.89233C1.34578 4.43304 0.487302 6.52511 0.500142 8.70248C0.519807 13.2528 4.20008 16.9386 8.75022 16.9649C10.5003 16.9725 12.2059 16.4139 13.6125 15.3726L13.6185 15.3681L19.3628 21.1156C19.6734 21.4414 20.1362 21.5733 20.5718 21.4602C21.0075 21.347 21.3476 21.0066 21.4604 20.5708C21.5732 20.135 21.4409 19.6723 21.1148 19.362ZM8.74445 15.3178C5.10454 15.2969 2.16037 12.3486 2.14439 8.70851C2.13457 6.96684 2.8214 5.29352 4.052 4.06103C5.28261 2.82855 6.95484 2.1392 8.69645 2.14644C12.3364 2.16738 15.2805 5.11568 15.2965 8.75576C15.3063 10.4974 14.6195 12.1708 13.3889 13.4032C12.1583 14.6357 10.4861 15.3251 8.74445 15.3178Z" fill="#AFAFAF"/>
</svg>
