<svg width="63" height="78" viewBox="0 0 63 78" fill="none" xmlns="http://www.w3.org/2000/svg">
<path fill-rule="evenodd" clip-rule="evenodd" d="M31.6323 0.722343C31.9875 0.459319 32.4747 0.466207 32.8223 0.739168L62.0649 23.7015C62.4775 24.0255 62.5623 24.6167 62.2574 25.0436L60.2948 27.7912C60.1404 28.0074 59.9051 28.1517 59.6425 28.1912C59.3798 28.2308 59.1124 28.1622 58.9012 28.0012L32.1999 7.63903L3.94017 28.0168C3.51334 28.3246 2.91972 28.2409 2.59461 27.8271L0.435763 25.0795C0.271968 24.8711 0.199494 24.6052 0.234838 24.3424C0.270183 24.0797 0.410339 23.8424 0.623399 23.6846L31.6323 0.722343ZM2.60282 24.661L3.55606 25.8742L31.6423 5.62149C31.9929 5.36869 32.4676 5.37504 32.8113 5.63714L59.2863 25.8266L60.1153 24.6659L32.1988 2.74493L2.60282 24.661Z" fill="#ACBC9F"/>
<path fill-rule="evenodd" clip-rule="evenodd" d="M8.66538 22.7069C9.20733 22.7069 9.64667 23.1462 9.64667 23.6882V53.7158H54.0012V23.6882C54.0012 23.1462 54.4405 22.7069 54.9825 22.7069C55.5244 22.7069 55.9638 23.1462 55.9638 23.6882V54.6971C55.9638 55.2391 55.5244 55.6784 54.9825 55.6784H8.66538C8.12342 55.6784 7.68408 55.2391 7.68408 54.6971V23.6882C7.68408 23.1462 8.12342 22.7069 8.66538 22.7069Z" fill="#ACBC9F"/>
<path fill-rule="evenodd" clip-rule="evenodd" d="M29.0764 17.0153V19.7629H34.5716V17.0153H29.0764ZM28.2913 15.0527C27.641 15.0527 27.1138 15.5799 27.1138 16.2303V20.548C27.1138 21.1983 27.641 21.7255 28.2913 21.7255H35.3566C36.007 21.7255 36.5342 21.1983 36.5342 20.548V16.2303C36.5342 15.5799 36.007 15.0527 35.3566 15.0527H28.2913Z" fill="#ACBC9F"/>
<path fill-rule="evenodd" clip-rule="evenodd" d="M46.3474 37.8188H16.9086C15.8247 37.8188 14.946 38.6975 14.946 39.7814V47.6317H48.31V39.7814C48.31 38.6975 47.4313 37.8188 46.3474 37.8188ZM16.9086 35.8562C14.7408 35.8562 12.9834 37.6136 12.9834 39.7814V48.4168C12.9834 49.0671 13.5106 49.5943 14.161 49.5943H49.095C49.7454 49.5943 50.2726 49.0671 50.2726 48.4168V39.7814C50.2726 37.6136 48.5152 35.8562 46.3474 35.8562H16.9086Z" fill="#ACBC9F"/>
<path fill-rule="evenodd" clip-rule="evenodd" d="M28.2911 30.7536H22.0108C21.5772 30.7536 21.2258 31.1051 21.2258 31.5386V35.4638H29.0761V31.5386C29.0761 31.1051 28.7247 30.7536 28.2911 30.7536ZM22.0108 28.791C20.4933 28.791 19.2632 30.0212 19.2632 31.5386V36.2489C19.2632 36.8992 19.7904 37.4264 20.4407 37.4264H29.8612C30.5115 37.4264 31.0387 36.8992 31.0387 36.2489V31.5386C31.0387 30.0212 29.8086 28.791 28.2911 28.791H22.0108Z" fill="#ACBC9F"/>
<path fill-rule="evenodd" clip-rule="evenodd" d="M41.1654 46.0617H21.6965C20.6565 46.0617 19.7689 46.714 19.4205 47.6318H43.4413C43.0929 46.714 42.2053 46.0617 41.1654 46.0617ZM21.6965 44.0991C19.2685 44.0991 17.3003 46.0674 17.3003 48.4953C17.3003 49.1023 17.7924 49.5944 18.3993 49.5944H44.4625C45.0695 49.5944 45.5616 49.1023 45.5616 48.4953C45.5616 46.0674 43.5933 44.0991 41.1654 44.0991H21.6965Z" fill="#ACBC9F"/>
<path fill-rule="evenodd" clip-rule="evenodd" d="M41.2447 30.7536H34.9644C34.5309 30.7536 34.1794 31.1051 34.1794 31.5386V35.4638H42.0297V31.5386C42.0297 31.1051 41.6783 30.7536 41.2447 30.7536ZM34.9644 28.791C33.447 28.791 32.2168 30.0212 32.2168 31.5386V36.2489C32.2168 36.8992 32.744 37.4264 33.3944 37.4264H42.8148C43.4651 37.4264 43.9923 36.8992 43.9923 36.2489V31.5386C43.9923 30.0212 42.7622 28.791 41.2447 28.791H34.9644Z" fill="#ACBC9F"/>
<path fill-rule="evenodd" clip-rule="evenodd" d="M18.4782 26.4359V35.4638H45.5619V26.4359H18.4782ZM17.6932 24.4733C17.0428 24.4733 16.5156 25.0005 16.5156 25.6508V36.2488C16.5156 36.8991 17.0428 37.4264 17.6932 37.4264H46.347C46.9973 37.4264 47.5245 36.8991 47.5245 36.2488V25.6508C47.5245 25.0005 46.9973 24.4733 46.347 24.4733H17.6932Z" fill="#ACBC9F"/>
<path fill-rule="evenodd" clip-rule="evenodd" d="M12.7861 40.7628C12.7861 40.2208 13.2255 39.7815 13.7674 39.7815H49.094C49.636 39.7815 50.0753 40.2208 50.0753 40.7628C50.0753 41.3047 49.636 41.7441 49.094 41.7441H13.7674C13.2255 41.7441 12.7861 41.3047 12.7861 40.7628Z" fill="#ACBC9F"/>
<path d="M26.804 65.1348C26.804 66.3495 28.1314 67.6643 30.6735 68.0024L30.0724 69.2296C28.1314 68.9604 26.7101 68.1277 25.9776 67.0006C25.245 68.1277 23.8237 68.9604 21.8952 69.2296L21.2941 68.0024C23.8237 67.6643 25.1511 66.3495 25.1636 65.1348V64.7591H26.804V65.1348ZM31.1744 69.8307V71.0955H26.7539V72.2225H29.9096V76.0168H28.3193V73.4748H21.9328V72.2225H25.1761V71.0955H20.7807V69.8307H31.1744ZM41.9096 73.3746V74.6519H31.4784V73.3746H35.8362V70.7949H37.4266V73.3746H41.9096ZM37.4767 66.0865C37.4767 67.7144 38.9418 69.43 41.5465 69.8307L40.8703 71.1581C38.8667 70.7949 37.3765 69.7243 36.6252 68.303C35.8738 69.718 34.3962 70.8012 32.4051 71.1581L31.7289 69.8307C34.3085 69.43 35.7611 67.7019 35.7736 66.0865V65.2725H37.4767V66.0865Z" fill="#ACBC9F"/>
</svg>
