<svg width="66" height="80" viewBox="0 0 66 80" fill="none" xmlns="http://www.w3.org/2000/svg">
<path fill-rule="evenodd" clip-rule="evenodd" d="M3.56055 55.8659C3.56055 55.3674 3.96467 54.9633 4.46317 54.9633H62.2311C62.7296 54.9633 63.1337 55.3674 63.1337 55.8659C63.1337 56.3644 62.7296 56.7685 62.2311 56.7685H4.46317C3.96467 56.7685 3.56055 56.3644 3.56055 55.8659Z" fill="#ACBC9F"/>
<path fill-rule="evenodd" clip-rule="evenodd" d="M37.3937 6.15354C37.8301 6.39453 37.9885 6.94365 37.7475 7.38003L11.0298 55.7606C10.7889 56.197 10.2397 56.3554 9.80336 56.1144C9.36697 55.8734 9.20857 55.3243 9.44956 54.8879L36.1672 6.50733C36.4082 6.07095 36.9573 5.91255 37.3937 6.15354Z" fill="#ACBC9F"/>
<path fill-rule="evenodd" clip-rule="evenodd" d="M30.0262 6.15105C30.4639 5.91257 31.0121 6.07412 31.2506 6.51188L57.6072 54.8925C57.8457 55.3302 57.6841 55.8784 57.2464 56.1169C56.8086 56.3554 56.2604 56.1939 56.0219 55.7561L29.6653 7.3755C29.4269 6.93774 29.5884 6.38953 30.0262 6.15105Z" fill="#ACBC9F"/>
<path fill-rule="evenodd" clip-rule="evenodd" d="M33.7216 26.6211C34.025 26.6256 34.3058 26.7823 34.469 27.0382L47.8278 47.979C47.9899 48.2331 48.0145 48.5513 47.8933 48.8273L44.6439 56.2288C44.4435 56.6853 43.911 56.8928 43.4546 56.6924C42.9981 56.4921 42.7905 55.9596 42.9909 55.5031L46.0465 48.5433L33.6834 29.1633L20.4875 48.5396L23.8683 55.4702C24.0869 55.9183 23.9008 56.4587 23.4528 56.6772C23.0048 56.8958 22.4644 56.7097 22.2458 56.2617L18.6353 48.8602C18.4933 48.569 18.5182 48.2241 18.7005 47.9564L32.962 27.0155C33.1328 26.7647 33.4182 26.6165 33.7216 26.6211Z" fill="#ACBC9F"/>
<path fill-rule="evenodd" clip-rule="evenodd" d="M11.1443 23.9131C11.6428 23.9131 12.0469 24.3172 12.0469 24.8157V30.2314C12.0469 30.73 11.6428 31.1341 11.1443 31.1341C10.6458 31.1341 10.2417 30.73 10.2417 30.2314V24.8157C10.2417 24.3172 10.6458 23.9131 11.1443 23.9131Z" fill="#ACBC9F"/>
<path fill-rule="evenodd" clip-rule="evenodd" d="M19.4466 17.2336C19.9451 17.2336 20.3492 17.6378 20.3492 18.1363V23.552C20.3492 24.0505 19.9451 24.4546 19.4466 24.4546C18.9481 24.4546 18.5439 24.0505 18.5439 23.552V18.1363C18.5439 17.6378 18.9481 17.2336 19.4466 17.2336Z" fill="#ACBC9F"/>
<path fill-rule="evenodd" clip-rule="evenodd" d="M24.1404 0.581665C24.6389 0.581665 25.043 0.985783 25.043 1.48429V6.90003C25.043 7.39853 24.6389 7.80265 24.1404 7.80265C23.6419 7.80265 23.2378 7.39853 23.2378 6.90003V1.48429C23.2378 0.985783 23.6419 0.581665 24.1404 0.581665Z" fill="#ACBC9F"/>
<path fill-rule="evenodd" clip-rule="evenodd" d="M7.53369 27.5236C7.53369 27.0251 7.93781 26.621 8.43631 26.621H13.8521C14.3506 26.621 14.7547 27.0251 14.7547 27.5236C14.7547 28.0221 14.3506 28.4262 13.8521 28.4262H8.43631C7.93781 28.4262 7.53369 28.0221 7.53369 27.5236Z" fill="#ACBC9F"/>
<path fill-rule="evenodd" clip-rule="evenodd" d="M15.8369 20.8442C15.8369 20.3456 16.241 19.9415 16.7395 19.9415H22.1553C22.6538 19.9415 23.0579 20.3456 23.0579 20.8442C23.0579 21.3427 22.6538 21.7468 22.1553 21.7468H16.7395C16.241 21.7468 15.8369 21.3427 15.8369 20.8442Z" fill="#ACBC9F"/>
<path fill-rule="evenodd" clip-rule="evenodd" d="M20.5308 4.19217C20.5308 3.69367 20.9349 3.28955 21.4334 3.28955H26.8491C27.3476 3.28955 27.7517 3.69367 27.7517 4.19217C27.7517 4.69068 27.3476 5.0948 26.8491 5.0948H21.4334C20.9349 5.0948 20.5308 4.69068 20.5308 4.19217Z" fill="#ACBC9F"/>
<path fill-rule="evenodd" clip-rule="evenodd" d="M12.9661 2.03633C13.1892 2.35596 13.1819 2.7827 12.948 3.09453C12.1785 4.12059 11.1089 6.83768 12.9604 9.42983C14.9137 12.1645 17.7805 12.7125 18.8644 12.6633C19.2179 12.6472 19.5482 12.8392 19.7092 13.1543C19.8701 13.4694 19.8321 13.8496 19.6119 14.1266C18.5997 15.4001 16.7535 17.0046 14.4582 17.6434C12.0849 18.3039 9.32655 17.8994 6.71352 15.2864C6.67249 15.2453 6.63552 15.2004 6.6031 15.1523C5.53681 13.569 4.46965 10.962 4.90408 8.32303C5.35699 5.57178 7.39003 3.06135 11.9665 1.6884C12.3399 1.57639 12.743 1.7167 12.9661 2.03633ZM8.05236 14.0717C10.1831 16.167 12.2454 16.3853 13.9742 15.9042C15.124 15.5842 16.1641 14.9413 16.9896 14.2408C15.2864 13.8229 13.1227 12.7629 11.4914 10.4791C9.88387 8.22854 9.92988 5.91928 10.4433 4.19657C7.90688 5.41897 6.94021 7.0681 6.68535 8.61626C6.35838 10.6025 7.15237 12.7039 8.05236 14.0717Z" fill="#ACBC9F"/>
<path d="M27.8781 73.7215C30.3701 73.7215 31.9354 74.5104 31.9479 75.8753C31.9354 77.2153 30.3701 78.0167 27.8781 78.0167C25.4112 78.0167 23.8208 77.2153 23.8208 75.8753C23.8208 74.5104 25.4112 73.7215 27.8781 73.7215ZM27.8781 74.9111C26.3128 74.9111 25.4112 75.2367 25.4112 75.8753C25.4112 76.489 26.3128 76.802 27.8781 76.802C29.4434 76.802 30.3575 76.489 30.3575 75.8753C30.3575 75.2367 29.4434 74.9111 27.8781 74.9111ZM31.8853 67.1347V68.0613C31.8853 68.9629 31.8853 69.9397 31.5597 71.1168L29.9944 70.9665C30.2448 69.9334 30.2761 69.1633 30.2949 68.3869H23.9335V67.1347H31.8853ZM33.1125 71.7054V72.9952H22.7689V71.7054H26.6509V69.7143H28.2287V71.7054H33.1125ZM42.4828 66.6212V69.8145H44.0231V71.1293H42.4828V74.7859H40.8674V66.6212H42.4828ZM39.3772 67.4728C39.3772 70.5533 37.4488 72.7072 34.0301 73.6714L33.3664 72.4066C35.9148 71.6928 37.3611 70.3717 37.6241 68.7751H33.8673V67.4728H39.3772ZM42.871 76.539V77.8163H35.0695V73.9469H36.6849V76.539H42.871Z" fill="#ACBC9F"/>
</svg>
