<svg width="56" height="76" viewBox="0 0 56 76" fill="none" xmlns="http://www.w3.org/2000/svg">
<path fill-rule="evenodd" clip-rule="evenodd" d="M7.3267 14.3384C7.39098 13.8599 7.79936 13.5027 8.28221 13.5027H46.2677C46.7762 13.5027 47.1973 13.8976 47.2298 14.4051C47.3952 16.9853 47.2955 21.2307 46.4682 25.6633C45.6441 30.0795 44.0765 34.799 41.2237 38.2223C40.8829 38.6314 40.2749 38.6866 39.8659 38.3458C39.4568 38.0049 39.4016 37.397 39.7425 36.9879C42.2886 33.9326 43.774 29.5895 44.5728 25.3096C45.277 21.5362 45.4308 17.9031 45.3488 15.4309H9.14413C8.71947 20.0405 9.19832 29.6513 14.1 37.0739C14.3934 37.5182 14.2711 38.1162 13.8268 38.4096C13.3825 38.7031 12.7844 38.5807 12.491 38.1364C6.91437 29.6918 6.73168 18.768 7.3267 14.3384Z" fill="#ACBC9F"/>
<path fill-rule="evenodd" clip-rule="evenodd" d="M7.31836 19.0945C7.31836 18.562 7.75 18.1304 8.28246 18.1304H46.2679C46.8004 18.1304 47.232 18.562 47.232 19.0945C47.232 19.6269 46.8004 20.0586 46.2679 20.0586H8.28246C7.75 20.0586 7.31836 19.6269 7.31836 19.0945Z" fill="#ACBC9F"/>
<path fill-rule="evenodd" clip-rule="evenodd" d="M0.762695 37.9908C0.762695 37.4584 1.19434 37.0267 1.72679 37.0267H53.2096C53.7083 37.0267 54.1246 37.407 54.1698 37.9035C54.2916 39.2438 53.8271 41.1218 52.1713 42.6081C50.5153 44.0945 47.7844 45.0889 43.5506 44.9323H10.4141C8.86728 44.9652 6.53928 44.6916 4.55656 43.7205C2.5305 42.7282 0.762695 40.9372 0.762695 37.9908ZM2.78802 38.9549C3.09296 40.3918 4.08972 41.3448 5.40469 41.9889C7.03265 42.7862 9.03676 43.0343 10.3823 43.0044C10.3894 43.0042 10.3965 43.0041 10.4037 43.0041H43.5686C43.5808 43.0041 43.5929 43.0044 43.605 43.0048C47.5364 43.1532 49.7169 42.2201 50.8833 41.1731C51.6776 40.4601 52.056 39.6475 52.1947 38.9549H2.78802Z" fill="#ACBC9F"/>
<path fill-rule="evenodd" clip-rule="evenodd" d="M11.175 43.1969C11.7075 43.1969 12.1391 43.6285 12.1391 44.161V46.0892H42.219V44.161C42.219 43.6285 42.6506 43.1969 43.1831 43.1969C43.7155 43.1969 44.1472 43.6285 44.1472 44.161V47.0533C44.1472 47.5857 43.7155 48.0174 43.1831 48.0174H11.175C10.6426 48.0174 10.2109 47.5857 10.2109 47.0533V44.161C10.2109 43.6285 10.6426 43.1969 11.175 43.1969Z" fill="#ACBC9F"/>
<path fill-rule="evenodd" clip-rule="evenodd" d="M45.6901 22.5652C45.6901 22.0327 46.1217 21.6011 46.6542 21.6011H48.7752C49.6089 21.6011 50.8055 21.8925 51.7405 22.7982C52.7168 23.7438 53.2708 25.224 53.0098 27.3124C52.7155 29.6669 51.0578 30.8621 49.3396 31.3837C47.6586 31.8939 45.7814 31.8227 44.5631 31.6138C44.0383 31.5239 43.6858 31.0255 43.7757 30.5007C43.8657 29.9759 44.3641 29.6234 44.8889 29.7134C45.9202 29.8902 47.4751 29.9346 48.7796 29.5386C50.0469 29.1539 50.928 28.421 51.0965 27.0733C51.2982 25.4595 50.856 24.6259 50.399 24.1832C49.9007 23.7006 49.2269 23.5293 48.7752 23.5293H46.6542C46.1217 23.5293 45.6901 23.0976 45.6901 22.5652Z" fill="#ACBC9F"/>
<path fill-rule="evenodd" clip-rule="evenodd" d="M46.0106 19.2873C46.0106 18.7549 46.4422 18.3232 46.9747 18.3232H48.9671C51.1246 18.3232 53.0739 19.0857 54.3814 20.7067C55.6799 22.3166 56.2269 24.6263 55.9025 27.4941C55.7021 29.2655 55.0869 30.6832 54.1631 31.7846C53.2441 32.8803 52.0609 33.6142 50.7936 34.0901C48.2848 35.0321 45.3435 35.003 43.0578 34.7048C42.5298 34.6359 42.1576 34.1521 42.2265 33.6241C42.2953 33.0961 42.7792 32.7239 43.3072 32.7928C45.4563 33.0731 48.0335 33.0668 50.1157 32.2849C51.1439 31.8989 52.0244 31.3341 52.6858 30.5455C53.3424 29.7626 53.8244 28.7105 53.9865 27.2774C54.2728 24.7463 53.7593 23.0068 52.8805 21.9172C52.0107 20.8388 50.6659 20.2514 48.9671 20.2514H46.9747C46.4422 20.2514 46.0106 19.8198 46.0106 19.2873Z" fill="#ACBC9F"/>
<path fill-rule="evenodd" clip-rule="evenodd" d="M15.9653 1.50922C16.0932 1.1029 16.5262 0.877153 16.9325 1.00501C19.227 1.72701 19.7974 4.83222 18.0685 6.62414C17.2357 7.48735 17.0922 8.25564 17.172 8.79967C17.258 9.38701 17.6084 9.78949 17.8713 9.92713C18.2487 10.1247 18.3944 10.5908 18.1969 10.9682C17.9993 11.3455 17.5332 11.4913 17.1558 11.2937C16.4222 10.9096 15.7978 10.0614 15.6457 9.02337C15.4872 7.94203 15.842 6.71029 16.9584 5.55309C18.0263 4.44623 17.4912 2.79793 16.4695 2.47644C16.0632 2.34858 15.8374 1.91555 15.9653 1.50922Z" fill="#ACBC9F"/>
<path fill-rule="evenodd" clip-rule="evenodd" d="M25.9917 1.50922C26.1195 1.1029 26.5526 0.877153 26.9589 1.00501C29.2534 1.72701 29.8238 4.83222 28.0949 6.62414C27.2621 7.48735 27.1186 8.25564 27.1983 8.79967C27.2844 9.38701 27.6348 9.78949 27.8977 9.92713C28.275 10.1247 28.4208 10.5908 28.2232 10.9682C28.0256 11.3455 27.5596 11.4913 27.1822 11.2937C26.4485 10.9096 25.8242 10.0614 25.6721 9.02337C25.5136 7.94203 25.8683 6.71029 26.9848 5.55309C28.0527 4.44623 27.5176 2.79793 26.4959 2.47644C26.0896 2.34858 25.8638 1.91555 25.9917 1.50922Z" fill="#ACBC9F"/>
<path fill-rule="evenodd" clip-rule="evenodd" d="M36.019 1.50922C36.1469 1.1029 36.5799 0.877153 36.9862 1.00501C39.2808 1.72701 39.8511 4.83222 38.1223 6.62414C37.2894 7.48735 37.1459 8.25564 37.2257 8.79967C37.3117 9.38701 37.6621 9.78949 37.925 9.92713C38.3024 10.1247 38.4481 10.5908 38.2506 10.9682C38.053 11.3455 37.5869 11.4913 37.2095 11.2937C36.4759 10.9096 35.8516 10.0614 35.6994 9.02337C35.5409 7.94203 35.8957 6.71029 37.0121 5.55309C38.0801 4.44623 37.5449 2.79793 36.5232 2.47644C36.1169 2.34858 35.8912 1.91555 36.019 1.50922Z" fill="#ACBC9F"/>
<path d="M23.7743 63.7515C23.7618 67.2703 22.9102 70.2005 18.6526 72.3294L17.776 71.1272C19.6794 70.1818 20.8127 69.1236 21.4576 67.8588L18.0891 68.1719L17.8887 66.807L21.946 66.5565C22.0587 66.0807 22.1401 65.5672 22.1839 65.0288H18.4898V63.7515H23.7743ZM26.8172 62.662V67.0324H28.4326V68.3472H26.8172V74.0324H25.2144V62.662H26.8172ZM38.4917 62.662V74.0575H36.9514V62.662H38.4917ZM36.1876 62.8874V73.519H34.6723V68.2345H33.5704V66.807H34.6723V62.8874H36.1876ZM33.8333 63.9518V65.2416H33.107V69.9751C33.4264 69.9501 33.7332 69.9188 34.0212 69.875L34.1339 71.027C32.3306 71.4152 30.0015 71.4528 28.5739 71.4528L28.3986 70.1379H29.3503V65.2416H28.6115V63.9518H33.8333ZM30.7653 70.1129L31.6544 70.0753V65.2416H30.7653V70.1129Z" fill="#ACBC9F"/>
</svg>
