<svg width="168" height="51" viewBox="0 0 168 51" fill="none" xmlns="http://www.w3.org/2000/svg">
<path d="M18.0444 15.2748V17.4281H0.961426V15.2748H8.15967V12.4652H2.93018V6.18982H13.4917V4.13904H2.90967V2.04724H16.0757V8.2406H5.55518V10.3324H16.5063V12.4652H10.7642V15.2748H18.0444ZM28.8931 1.63708C28.8931 6.68201 26.3911 9.61462 20.3823 11.0297L19.4595 9.04041C22.0435 8.47644 23.7148 7.64587 24.7505 6.59998L19.9106 6.94861L19.5415 5.00037L25.8784 4.77478C26.0015 4.42615 26.0835 4.05701 26.1245 3.66736H20.4849V1.63708H28.8931ZM34.8403 0.83728V10.2914H32.2358V6.96912H28.9341V4.8363H32.2358V0.83728H34.8403ZM34.8403 10.9886V16.0336H25.0376V17.2435H35.2505V19.2943H22.4536V14.1469H32.2563V12.9984H22.4331V10.9886H34.8403ZM57.3784 2.47791V4.65173C57.3784 7.35876 57.3784 9.96326 56.5171 14.0033L53.9126 13.7572C54.2817 12.1986 54.4868 10.8348 54.6304 9.57361L43.8022 10.1068L43.4741 8.01501L54.7534 7.60486C54.8047 6.58972 54.8047 5.6156 54.8149 4.65173V4.5697H44.0483V2.47791H57.3784ZM59.1216 15.1312V17.264H42.1001V15.1312H59.1216ZM75.897 0.83728V19.5404H73.2925V0.83728H75.897ZM70.1138 2.39587V9.59412H63.9614V13.0189C66.8018 13.0087 69.2217 12.8446 71.9595 12.4037L72.1851 14.516C69.1089 15.0492 66.3403 15.1722 62.936 15.1722H61.2544V7.52283H67.4478V4.50818H61.2339V2.39587H70.1138ZM94.5796 0.83728V19.4994H92.0776V0.83728H94.5796ZM90.6831 1.10388V18.6381H88.2222V9.8197H86.7251C86.479 13.4906 84.9204 15.7054 82.6235 15.7054C80.1626 15.7054 78.563 13.1215 78.563 8.91736C78.563 4.73376 80.1626 2.17029 82.6235 2.17029C84.8691 2.17029 86.4072 4.26208 86.7046 7.74841H88.2222V1.10388H90.6831ZM82.6235 4.63123C81.5776 4.63123 80.9624 6.06677 80.9829 8.91736C80.9624 11.7885 81.5776 13.2035 82.6235 13.183C83.6899 13.2035 84.3257 11.7885 84.3257 8.91736C84.3257 6.06677 83.6899 4.63123 82.6235 4.63123ZM112.175 0.83728V19.5404H109.53V0.83728H112.175ZM102.044 2.14978C104.854 2.14978 106.946 4.73376 106.946 8.79431C106.946 12.8959 104.854 15.4594 102.044 15.4594C99.1733 15.4594 97.0815 12.8959 97.1021 8.79431C97.0815 4.73376 99.1733 2.14978 102.044 2.14978ZM102.044 4.50818C100.588 4.50818 99.6245 6.02576 99.6245 8.79431C99.6245 11.5834 100.588 13.0804 102.044 13.0804C103.459 13.0804 104.423 11.5834 104.423 8.79431C104.423 6.02576 103.459 4.50818 102.044 4.50818ZM130.448 0.83728V19.5404H127.864V9.53259H124.583V7.42029H127.864V0.83728H130.448ZM124.275 2.39587V4.50818H118.164V7.60486H123.598V9.65564H118.164V13.183C120.748 13.1625 122.819 13.0702 125.136 12.7113L125.403 14.8031C122.675 15.2133 120.235 15.3158 117.036 15.3158H115.559V2.39587H124.275ZM149.664 8.71228V10.0043H133.032V8.71228H149.664ZM147.674 5.90271V7.21521H135.247V1.6781H147.49V2.97009H136.867V5.90271H147.674ZM147.51 11.6449V15.8695H136.682V17.7562H148.064V19.0687H135.083V14.6595H145.931V12.8959H135.042V11.6449H147.51ZM159.487 1.37048C163.547 1.37048 165.926 2.47791 165.926 4.50818C165.926 6.57947 163.547 7.68689 159.487 7.7074C155.426 7.68689 153.027 6.57947 153.027 4.50818C153.027 2.47791 155.426 1.37048 159.487 1.37048ZM159.487 2.58044C156.452 2.58044 154.688 3.31873 154.708 4.50818C154.688 5.77966 156.452 6.47693 159.487 6.47693C162.501 6.47693 164.286 5.77966 164.286 4.50818C164.286 3.31873 162.501 2.58044 159.487 2.58044ZM167.792 8.93787V10.2504H151.181V8.93787H167.792ZM165.66 11.8295V15.9105H154.832V17.7972H166.213V19.0687H153.232V14.7211H164.081V13.0599H153.191V11.8295H165.66ZM37.0757 32.0629V38.0717H39.8237V39.4252H37.0757V45.7211H35.4761V32.0629H37.0757ZM33.7329 34.2982V35.6107H22.8638V34.2982H27.4985V32.0629H29.0981V34.2982H33.7329ZM28.2983 36.6156C30.9028 36.6156 32.6665 37.9486 32.687 40.0199C32.6665 42.0707 30.9028 43.3832 28.2983 43.3832C25.6733 43.3832 23.8892 42.0707 23.9097 40.0199C23.8892 37.9486 25.6733 36.6156 28.2983 36.6156ZM28.2983 37.8871C26.5757 37.8871 25.4272 38.7279 25.4478 40.0199C25.4272 41.3119 26.5757 42.1322 28.2983 42.1117C30.0005 42.1322 31.1489 41.3119 31.1694 40.0199C31.1489 38.7279 30.0005 37.8871 28.2983 37.8871ZM37.9165 48.5306V49.8842H25.6733V44.6342H27.2524V48.5306H37.9165ZM61.0083 48.5306V49.8842H48.396V44.6342H50.0161V48.5306H61.0083ZM62.9155 41.8246V43.1781H46.2427V41.8246H53.7485V38.7279H55.3276V41.8246H62.9155ZM55.3481 33.3549C55.3481 35.9388 58.5474 38.1332 61.7466 38.6459L61.1108 39.9174C58.373 39.3842 55.6763 37.8358 54.5483 35.6312C53.4204 37.8461 50.7441 39.4047 47.9858 39.9174L47.3296 38.6459C50.5288 38.1127 53.728 35.9183 53.728 33.3549V32.5345H55.3481V33.3549ZM80.019 32.0424V50.2738H78.4604V32.0424H80.019ZM76.3481 32.432V49.351H74.8101V40.4916H72.4722C72.2979 44.0394 70.7905 46.2543 68.5347 46.2543C66.1558 46.2543 64.6177 43.7933 64.6177 39.9174C64.6177 36.0414 66.1558 33.5804 68.5347 33.5804C70.7495 33.5804 72.2466 35.7235 72.4517 39.1586H74.8101V32.432H76.3481ZM68.5347 35.098C67.0581 35.098 66.1147 36.9437 66.1353 39.9174C66.1147 42.8705 67.0581 44.7367 68.5347 44.7162C70.0112 44.7367 70.9546 42.8705 70.9546 39.9174C70.9546 36.9437 70.0112 35.098 68.5347 35.098ZM88.9604 36.9437C88.9604 40.2455 91.0728 43.5677 93.7183 44.7777L92.7544 46.0902C90.6831 45.0238 88.9707 42.8397 88.1606 40.2455C87.3506 42.973 85.6382 45.3109 83.5669 46.4183L82.521 45.1263C85.187 43.8138 87.3198 40.307 87.3198 36.9437V33.6215H88.9604V36.9437ZM97.6558 32.0424V50.3148H96.0562V39.5892H91.729V38.2767H96.0562V32.0424H97.6558ZM108.32 32.8217V35.4467H113.631V32.8217H115.231V40.7582H106.741V32.8217H108.32ZM108.32 39.4457H113.631V36.6976H108.32V39.4457ZM120.214 32.0424V36.0004H122.962V37.3539H120.214V41.476H118.615V32.0424H120.214ZM120.214 42.3373V46.7465H110.207V48.7562H120.891V50.0687H108.627V45.516H118.615V43.6293H108.586V42.3373H120.214ZM139.225 32.0629V45.6595H137.605V41.2504H132.704V39.9174H137.605V37.1488H132.95C131.668 40.0302 128.869 42.2245 125.136 43.4242L124.418 42.1322C128.684 40.7274 131.617 38.1024 131.965 34.8109H125.321V33.4779H133.729C133.729 34.2982 133.616 35.0878 133.421 35.8363H137.605V32.0629H139.225ZM139.697 48.5306V49.8842H127.618V44.306H129.258V48.5306H139.697ZM145.213 33.765L145.07 44.4291H143.347L143.204 33.765H145.213ZM144.208 48.7357C143.491 48.7357 142.875 48.141 142.896 47.4027C142.875 46.6849 143.491 46.0902 144.208 46.0902C144.926 46.0902 145.521 46.6849 145.521 47.4027C145.521 48.141 144.926 48.7357 144.208 48.7357Z" fill="#365C16"/>
</svg>
