<svg width="20" height="23" viewBox="0 0 20 23" fill="none" xmlns="http://www.w3.org/2000/svg">
<path d="M10.3702 7.93213C11.0759 7.93213 11.7656 8.14138 12.3524 8.53341C12.9391 8.92544 13.3964 9.48265 13.6664 10.1346C13.9364 10.7865 14.0071 11.5039 13.8694 12.1959C13.7318 12.888 13.392 13.5237 12.893 14.0227C12.3941 14.5217 11.7583 14.8614 11.0663 14.9991C10.3742 15.1368 9.65682 15.0661 9.00489 14.7961C8.35297 14.526 7.79576 14.0688 7.40373 13.482C7.0117 12.8953 6.80245 12.2055 6.80245 11.4999C6.80245 10.5537 7.17834 9.64619 7.84743 8.9771C8.51651 8.30802 9.42399 7.93213 10.3702 7.93213ZM10.3702 13.2838C10.723 13.2838 11.0679 13.1792 11.3613 12.9831C11.6546 12.7871 11.8833 12.5085 12.0183 12.1826C12.1533 11.8566 12.1887 11.4979 12.1198 11.1519C12.051 10.8058 11.8811 10.488 11.6316 10.2385C11.3821 9.98902 11.0643 9.81912 10.7182 9.75029C10.3722 9.68146 10.0135 9.71678 9.68756 9.8518C9.36159 9.98682 9.08299 10.2155 8.88697 10.5088C8.69096 10.8022 8.58634 11.1471 8.58634 11.4999C8.58634 11.973 8.77428 12.4267 9.10882 12.7613C9.44337 13.0958 9.8971 13.2838 10.3702 13.2838Z" fill="#111111"/>
<path d="M2.08029 13.1946L2.47631 12.9663C2.29802 11.9962 2.29802 11.0018 2.47631 10.0318L2.08029 9.80346C1.77574 9.62776 1.50879 9.3938 1.29467 9.11493C1.08054 8.83607 0.923443 8.51776 0.832336 8.17818C0.74123 7.8386 0.717901 7.4844 0.763681 7.1358C0.809462 6.78721 0.923452 6.45104 1.09915 6.1465C1.27485 5.84196 1.50881 5.575 1.78768 5.36088C2.06654 5.14676 2.38485 4.98966 2.72443 4.89855C3.06401 4.80744 3.41821 4.78411 3.76681 4.82989C4.1154 4.87567 4.45157 4.98966 4.75611 5.16536L5.15303 5.39459C5.90267 4.7541 6.76417 4.25759 7.69417 3.93002V3.47246C7.69417 2.76278 7.97609 2.08218 8.4779 1.58036C8.97971 1.07855 9.66032 0.796631 10.37 0.796631C11.0797 0.796631 11.7603 1.07855 12.2621 1.58036C12.7639 2.08218 13.0458 2.76278 13.0458 3.47246V3.93002C13.9758 4.25876 14.837 4.7565 15.5861 5.39816L15.9848 5.16715C16.5998 4.81231 17.3306 4.71633 18.0164 4.90033C18.7023 5.08433 19.2869 5.53323 19.6417 6.14828C19.9966 6.76333 20.0925 7.49415 19.9085 8.17996C19.7245 8.86578 19.2756 9.45041 18.6606 9.80524L18.2646 10.0336C18.4429 11.0036 18.4429 11.998 18.2646 12.9681L18.6606 13.1964C19.2756 13.5512 19.7245 14.1359 19.9085 14.8217C20.0925 15.5075 19.9966 16.2383 19.6417 16.8534C19.2869 17.4684 18.7023 17.9173 18.0164 18.1013C17.3306 18.2853 16.5998 18.1893 15.9848 17.8345L15.5879 17.6053C14.8379 18.2459 13.9761 18.7424 13.0458 19.0698V19.5274C13.0458 20.2371 12.7639 20.9177 12.2621 21.4195C11.7603 21.9213 11.0797 22.2032 10.37 22.2032C9.66032 22.2032 8.97971 21.9213 8.4779 21.4195C7.97609 20.9177 7.69417 20.2371 7.69417 19.5274V19.0698C6.76422 18.7411 5.90301 18.2434 5.15392 17.6017L4.75522 17.8318C4.14017 18.1867 3.40935 18.2826 2.72354 18.0986C2.03773 17.9146 1.45309 17.4657 1.09826 16.8507C0.743422 16.2356 0.647446 15.5048 0.831446 14.819C1.01544 14.1332 1.46434 13.5486 2.0794 13.1937L2.08029 13.1946ZM4.35295 9.82665C4.0509 10.9211 4.0509 12.077 4.35295 13.1714C4.40569 13.3619 4.39367 13.5645 4.31876 13.7475C4.24385 13.9304 4.1103 14.0832 3.93909 14.182L2.97223 14.7404C2.76725 14.8586 2.61765 15.0535 2.55635 15.2821C2.49504 15.5107 2.52705 15.7542 2.64533 15.9592C2.76361 16.1642 2.95847 16.3138 3.18705 16.3751C3.41562 16.4364 3.65919 16.4044 3.86417 16.2861L4.83282 15.726C5.00417 15.6267 5.20366 15.5873 5.39988 15.614C5.59609 15.6406 5.77785 15.7318 5.91653 15.8731C6.71043 16.6836 7.7106 17.2619 8.8091 17.5455C9.00083 17.5948 9.17072 17.7065 9.292 17.863C9.41327 18.0195 9.47904 18.2118 9.47895 18.4098V19.5274C9.47895 19.764 9.57292 19.9908 9.74019 20.1581C9.90746 20.3254 10.1343 20.4194 10.3709 20.4194C10.6074 20.4194 10.8343 20.3254 11.0016 20.1581C11.1689 19.9908 11.2628 19.764 11.2628 19.5274V18.4107C11.2627 18.2127 11.3285 18.0203 11.4498 17.8639C11.5711 17.7074 11.7409 17.5957 11.9327 17.5464C13.0312 17.2616 14.0311 16.6821 14.8244 15.8704C14.963 15.7291 15.1448 15.6379 15.341 15.6113C15.5372 15.5846 15.7367 15.624 15.9081 15.7233L16.8749 16.2825C16.9764 16.342 17.0886 16.3808 17.2052 16.3968C17.3217 16.4127 17.4403 16.4054 17.554 16.3754C17.6677 16.3453 17.7744 16.293 17.8678 16.2216C17.9613 16.1501 18.0396 16.0609 18.0985 15.959C18.1573 15.8572 18.1954 15.7447 18.2105 15.628C18.2257 15.5114 18.2176 15.3929 18.1868 15.2794C18.156 15.1658 18.103 15.0595 18.0309 14.9666C17.9589 14.8736 17.8691 14.7958 17.7669 14.7377L16.8 14.1793C16.6288 14.0805 16.4952 13.9277 16.4203 13.7448C16.3454 13.5619 16.3334 13.3593 16.3861 13.1688C16.6882 12.0743 16.6882 10.9184 16.3861 9.82397C16.3344 9.63389 16.347 9.432 16.422 9.24982C16.497 9.06765 16.6303 8.91545 16.8009 8.81697L17.7678 8.25862C17.9727 8.14034 18.1223 7.94548 18.1836 7.7169C18.2449 7.48832 18.2129 7.24475 18.0947 7.03978C17.9764 6.8348 17.7815 6.6852 17.5529 6.6239C17.3244 6.56259 17.0808 6.5946 16.8758 6.71288L15.9072 7.27302C15.7363 7.37248 15.5372 7.41235 15.3412 7.38636C15.1452 7.36036 14.9634 7.26998 14.8244 7.12942C14.0304 6.31895 13.0303 5.74068 11.9318 5.45703C11.7395 5.40758 11.5691 5.29536 11.4478 5.13816C11.3264 4.98095 11.261 4.78775 11.2619 4.58917V3.47246C11.2619 3.2359 11.168 3.00903 11.0007 2.84176C10.8334 2.67449 10.6066 2.58051 10.37 2.58051C10.1334 2.58051 9.90657 2.67449 9.7393 2.84176C9.57203 3.00903 9.47805 3.2359 9.47805 3.47246V4.58917C9.47815 4.78714 9.41238 4.97952 9.29111 5.136C9.16983 5.29248 8.99994 5.40416 8.8082 5.45346C7.70932 5.73812 6.70911 6.31765 5.91564 7.12942C5.77696 7.27076 5.59519 7.36194 5.39898 7.38859C5.20277 7.41523 5.00327 7.37583 4.83193 7.27659L3.86506 6.71734C3.76359 6.65785 3.65134 6.61902 3.5348 6.60309C3.41825 6.58715 3.29971 6.59442 3.18599 6.62449C3.07226 6.65456 2.96561 6.70682 2.87217 6.77827C2.77873 6.84972 2.70034 6.93895 2.64153 7.04082C2.58271 7.14269 2.54463 7.25519 2.52946 7.37184C2.5143 7.48849 2.52237 7.60698 2.55319 7.7205C2.58401 7.83402 2.63697 7.94032 2.70905 8.03329C2.78112 8.12625 2.87086 8.20405 2.97312 8.26218L3.93999 8.82054C4.1103 8.91928 4.24317 9.0716 4.31787 9.25375C4.39257 9.4359 4.4049 9.63765 4.35295 9.82754V9.82665Z" fill="#111111"/>
</svg>
