<svg width="291" height="55" viewBox="0 0 291 55" fill="none" xmlns="http://www.w3.org/2000/svg">
<rect x="0.5" width="290" height="55" rx="27.5" fill="#FFE305"/>
<g clip-path="url(#clip0_442_673)">
<path d="M32.7473 35.377C33.5968 34.4219 34.3883 33.4302 34.6943 32.1088C34.3761 31.8932 34.0294 31.6864 33.7121 31.4396C32.0928 30.1806 31.0171 28.5937 30.9997 26.4286C30.9832 24.3347 31.9533 22.7184 33.5249 21.5048C36.9932 18.8273 41.9412 18.8442 45.4433 21.4807C47.5784 23.0881 48.5146 25.8057 47.7163 28.1473C47.0748 30.0292 45.7719 31.3024 44.0789 32.1863C42.2654 33.1335 40.3315 33.3981 38.3204 33.2279C38.088 33.2083 37.8089 33.2769 37.6104 33.4025C36.2399 34.2677 34.787 34.9351 33.251 35.4162C33.1192 35.4572 32.9796 35.4715 32.8435 35.4991C32.8115 35.4581 32.7785 35.4171 32.7464 35.3761L32.7473 35.377Z" fill="#3C1E1E"/>
</g>
<path d="M83.256 21.016H85.32C85.32 22.168 85.2293 23.2667 85.048 24.312C84.8773 25.3573 84.5573 26.3493 84.088 27.288C83.6187 28.2267 82.952 29.1067 82.088 29.928C81.224 30.7493 80.0987 31.512 78.712 32.216L77.576 30.584C78.728 30.008 79.672 29.3947 80.408 28.744C81.1547 28.0827 81.7307 27.3787 82.136 26.632C82.552 25.8747 82.84 25.0533 83 24.168C83.1707 23.2827 83.256 22.3227 83.256 21.288V21.016ZM78.504 21.016H84.504V22.712H78.504V21.016ZM83.304 24.648V26.28L77.992 26.792L77.72 24.984L83.304 24.648ZM87.112 19.576H89.256V34.392H87.112V19.576ZM88.712 25.256H91.32V27H88.712V25.256ZM97.9748 21.016H100.039C100.039 22.168 99.9481 23.2667 99.7668 24.312C99.5961 25.3573 99.2761 26.3493 98.8068 27.288C98.3374 28.2267 97.6708 29.1067 96.8068 29.928C95.9428 30.7493 94.8174 31.512 93.4308 32.216L92.2948 30.584C93.4468 30.008 94.3908 29.3947 95.1268 28.744C95.8734 28.0827 96.4494 27.3787 96.8548 26.632C97.2708 25.8747 97.5588 25.0533 97.7188 24.168C97.8894 23.2827 97.9748 22.3227 97.9748 21.288V21.016ZM93.2228 21.016H99.2228V22.712H93.2228V21.016ZM98.0228 24.648V26.28L92.7108 26.792L92.4388 24.984L98.0228 24.648ZM101.831 19.576H103.975V34.392H101.831V19.576ZM103.431 25.256H106.039V27H103.431V25.256ZM112.726 27.928H114.838V31.304H112.726V27.928ZM113.782 20.36C114.838 20.36 115.782 20.5307 116.614 20.872C117.456 21.2027 118.118 21.672 118.598 22.28C119.078 22.888 119.318 23.608 119.318 24.44C119.318 25.2613 119.078 25.9813 118.598 26.6C118.118 27.2187 117.456 27.6987 116.614 28.04C115.782 28.3707 114.838 28.536 113.782 28.536C112.736 28.536 111.792 28.3707 110.95 28.04C110.118 27.6987 109.456 27.2187 108.966 26.6C108.486 25.9813 108.246 25.2613 108.246 24.44C108.246 23.608 108.486 22.888 108.966 22.28C109.456 21.672 110.118 21.2027 110.95 20.872C111.792 20.5307 112.736 20.36 113.782 20.36ZM113.782 22.04C113.11 22.04 112.512 22.136 111.99 22.328C111.478 22.52 111.072 22.792 110.774 23.144C110.486 23.496 110.342 23.928 110.342 24.44C110.342 24.9413 110.486 25.3733 110.774 25.736C111.072 26.088 111.478 26.36 111.99 26.552C112.512 26.744 113.11 26.84 113.782 26.84C114.464 26.84 115.062 26.744 115.574 26.552C116.096 26.36 116.502 26.088 116.79 25.736C117.078 25.3733 117.222 24.9413 117.222 24.44C117.222 23.928 117.078 23.496 116.79 23.144C116.502 22.792 116.096 22.52 115.574 22.328C115.062 22.136 114.464 22.04 113.782 22.04ZM107.094 30.968H120.518V32.696H107.094V30.968ZM121.812 31.064H135.236V32.792H121.812V31.064ZM127.444 28.248H129.556V31.752H127.444V28.248ZM123.332 20.552H133.716V25.496H125.46V27.976H123.348V23.832H131.604V22.248H123.332V20.552ZM123.348 27.144H134.052V28.84H123.348V27.144ZM142.938 26.3984H144.102C144.513 26.3984 144.852 26.3281 145.117 26.1875C145.388 26.0417 145.589 25.8438 145.719 25.5938C145.854 25.3385 145.922 25.0443 145.922 24.7109C145.922 24.3828 145.862 24.099 145.742 23.8594C145.622 23.6146 145.44 23.4271 145.195 23.2969C144.956 23.1615 144.648 23.0938 144.273 23.0938C143.971 23.0938 143.693 23.1536 143.438 23.2734C143.188 23.3932 142.987 23.5651 142.836 23.7891C142.69 24.0078 142.617 24.2708 142.617 24.5781H140.547C140.547 23.9635 140.708 23.4245 141.031 22.9609C141.359 22.4922 141.802 22.125 142.359 21.8594C142.917 21.5938 143.539 21.4609 144.227 21.4609C144.977 21.4609 145.633 21.5859 146.195 21.8359C146.763 22.0807 147.203 22.4427 147.516 22.9219C147.833 23.401 147.992 23.9948 147.992 24.7031C147.992 25.0417 147.911 25.3802 147.75 25.7188C147.594 26.0521 147.362 26.3542 147.055 26.625C146.753 26.8906 146.38 27.1068 145.938 27.2734C145.5 27.4349 144.997 27.5156 144.43 27.5156H142.938V26.3984ZM142.938 27.9922V26.8906H144.43C145.07 26.8906 145.625 26.9661 146.094 27.1172C146.568 27.263 146.958 27.4714 147.266 27.7422C147.573 28.0078 147.799 28.3177 147.945 28.6719C148.096 29.026 148.172 29.4062 148.172 29.8125C148.172 30.3438 148.073 30.8177 147.875 31.2344C147.677 31.6458 147.398 31.9948 147.039 32.2812C146.685 32.5677 146.268 32.7865 145.789 32.9375C145.31 33.0833 144.792 33.1562 144.234 33.1562C143.75 33.1562 143.279 33.0911 142.82 32.9609C142.367 32.8255 141.958 32.625 141.594 32.3594C141.229 32.0885 140.94 31.75 140.727 31.3438C140.513 30.9323 140.406 30.4557 140.406 29.9141H142.477C142.477 30.2266 142.552 30.5052 142.703 30.75C142.859 30.9948 143.073 31.1875 143.344 31.3281C143.62 31.4635 143.93 31.5312 144.273 31.5312C144.654 31.5312 144.979 31.4635 145.25 31.3281C145.526 31.1875 145.737 30.9896 145.883 30.7344C146.029 30.474 146.102 30.1641 146.102 29.8047C146.102 29.3776 146.021 29.0312 145.859 28.7656C145.698 28.5 145.466 28.3047 145.164 28.1797C144.867 28.0547 144.513 27.9922 144.102 27.9922H142.938ZM149.656 31.016H163.08V32.744H149.656V31.016ZM155.304 28.152H157.416V31.896H155.304V28.152ZM155.288 22.68H157.16V23C157.16 23.7147 157.021 24.3867 156.744 25.016C156.467 25.6347 156.056 26.1947 155.512 26.696C154.979 27.1973 154.323 27.6187 153.544 27.96C152.765 28.3013 151.864 28.536 150.84 28.664L150.072 26.968C150.979 26.8613 151.757 26.68 152.408 26.424C153.069 26.1573 153.608 25.8373 154.024 25.464C154.451 25.0907 154.765 24.696 154.968 24.28C155.181 23.8533 155.288 23.4267 155.288 23V22.68ZM155.56 22.68H157.432V23C157.432 23.4267 157.533 23.8533 157.736 24.28C157.949 24.696 158.264 25.0907 158.68 25.464C159.107 25.8373 159.651 26.1573 160.312 26.424C160.973 26.68 161.752 26.8613 162.648 26.968L161.88 28.664C160.856 28.536 159.955 28.3013 159.176 27.96C158.397 27.6187 157.736 27.1973 157.192 26.696C156.659 26.1947 156.253 25.6347 155.976 25.016C155.699 24.3867 155.56 23.7147 155.56 23V22.68ZM150.792 21.608H161.912V23.304H150.792V21.608ZM155.304 19.8H157.416V22.296H155.304V19.8ZM168.775 20.808H175.847V27.976H168.775V20.808ZM173.751 22.504H170.871V26.296H173.751V22.504ZM177.879 19.608H180.007V30.408H177.879V19.608ZM179.415 23.88H181.975V25.624H179.415V23.88ZM170.455 32.456H180.535V34.168H170.455V32.456ZM170.455 29.352H172.599V33.32H170.455V29.352ZM188.998 25.048H191.43V26.76H188.998V25.048ZM193.766 19.592H195.798V34.408H193.766V19.592ZM190.758 19.832H192.742V33.752H190.758V19.832ZM186.406 20.632C187.057 20.632 187.622 20.8507 188.102 21.288C188.593 21.7147 188.966 22.3333 189.222 23.144C189.489 23.944 189.622 24.904 189.622 26.024C189.622 27.1333 189.489 28.0933 189.222 28.904C188.966 29.7147 188.593 30.3387 188.102 30.776C187.622 31.2027 187.051 31.416 186.39 31.416C185.75 31.416 185.185 31.2027 184.694 30.776C184.214 30.3387 183.841 29.7147 183.574 28.904C183.318 28.0933 183.19 27.1333 183.19 26.024C183.19 24.904 183.318 23.944 183.574 23.144C183.841 22.3333 184.214 21.7147 184.694 21.288C185.185 20.8507 185.755 20.632 186.406 20.632ZM186.406 22.648C186.139 22.648 185.91 22.7707 185.718 23.016C185.526 23.2613 185.377 23.6347 185.27 24.136C185.174 24.6267 185.126 25.256 185.126 26.024C185.126 26.7707 185.174 27.3947 185.27 27.896C185.377 28.3973 185.526 28.776 185.718 29.032C185.91 29.2773 186.139 29.4 186.406 29.4C186.673 29.4 186.902 29.2773 187.094 29.032C187.297 28.776 187.446 28.3973 187.542 27.896C187.638 27.3947 187.686 26.7707 187.686 26.024C187.686 25.256 187.638 24.6267 187.542 24.136C187.446 23.6347 187.297 23.2613 187.094 23.016C186.902 22.7707 186.673 22.648 186.406 22.648ZM205.381 20.744H207.125V22.888C207.125 23.848 207.04 24.7707 206.869 25.656C206.698 26.5307 206.437 27.352 206.085 28.12C205.744 28.8773 205.301 29.5493 204.757 30.136C204.224 30.712 203.589 31.1707 202.853 31.512L201.589 29.752C202.24 29.464 202.8 29.0853 203.269 28.616C203.749 28.136 204.144 27.592 204.453 26.984C204.762 26.3653 204.992 25.7093 205.141 25.016C205.301 24.3227 205.381 23.6133 205.381 22.888V20.744ZM205.797 20.744H207.525V22.888C207.525 23.5813 207.6 24.2587 207.749 24.92C207.898 25.5813 208.122 26.2053 208.421 26.792C208.73 27.3787 209.114 27.9013 209.573 28.36C210.042 28.808 210.592 29.1653 211.221 29.432L209.989 31.16C209.274 30.8293 208.65 30.3867 208.117 29.832C207.594 29.2773 207.162 28.6373 206.821 27.912C206.48 27.176 206.224 26.3867 206.053 25.544C205.882 24.6907 205.797 23.8053 205.797 22.888V20.744ZM211.941 19.576H214.069V34.44H211.941V19.576ZM219.796 21.112H221.54V22.04C221.54 22.9787 221.385 23.864 221.076 24.696C220.777 25.528 220.318 26.2587 219.7 26.888C219.092 27.5067 218.318 27.9707 217.38 28.28L216.276 26.632C217.097 26.3547 217.764 25.976 218.276 25.496C218.798 25.016 219.182 24.4773 219.428 23.88C219.673 23.272 219.796 22.6587 219.796 22.04V21.112ZM220.212 21.112H221.94V22.04C221.94 22.616 222.057 23.192 222.292 23.768C222.526 24.3333 222.894 24.8453 223.396 25.304C223.908 25.752 224.558 26.104 225.348 26.36L224.276 28.024C223.348 27.7253 222.585 27.272 221.988 26.664C221.39 26.056 220.942 25.3573 220.644 24.568C220.356 23.768 220.212 22.9253 220.212 22.04V21.112ZM216.836 20.472H224.852V22.168H216.836V20.472ZM226.02 19.608H228.148V28.52H226.02V19.608ZM227.572 23.176H230.116V24.936H227.572V23.176ZM218.26 29.176H228.148V34.424H226.02V30.872H218.26V29.176ZM240.707 19.608H242.835V34.424H240.707V19.608ZM242.355 25.384H244.963V27.144H242.355V25.384ZM231.139 21.784H239.779V23.48H231.139V21.784ZM235.491 24.328C236.205 24.328 236.845 24.4827 237.411 24.792C237.976 25.0907 238.419 25.5013 238.739 26.024C239.069 26.5467 239.235 27.1547 239.235 27.848C239.235 28.5413 239.069 29.1547 238.739 29.688C238.419 30.2107 237.976 30.6267 237.411 30.936C236.856 31.2347 236.216 31.384 235.491 31.384C234.776 31.384 234.131 31.2347 233.555 30.936C232.989 30.6267 232.541 30.2107 232.211 29.688C231.891 29.1547 231.731 28.5413 231.731 27.848C231.731 27.1547 231.891 26.5467 232.211 26.024C232.541 25.5013 232.989 25.0907 233.555 24.792C234.131 24.4827 234.776 24.328 235.491 24.328ZM235.491 26.056C235.149 26.056 234.851 26.1253 234.595 26.264C234.339 26.4027 234.136 26.6053 233.987 26.872C233.837 27.1387 233.763 27.464 233.763 27.848C233.763 28.2213 233.837 28.5467 233.987 28.824C234.136 29.0907 234.339 29.2987 234.595 29.448C234.851 29.5867 235.149 29.656 235.491 29.656C235.821 29.656 236.115 29.5867 236.371 29.448C236.627 29.2987 236.829 29.0907 236.979 28.824C237.128 28.5467 237.203 28.2213 237.203 27.848C237.203 27.464 237.128 27.1387 236.979 26.872C236.829 26.6053 236.627 26.4027 236.371 26.264C236.115 26.1253 235.821 26.056 235.491 26.056ZM234.403 19.848H236.547V22.44H234.403V19.848ZM256.145 19.592H258.273V34.408H256.145V19.592ZM251.777 21.128H253.873C253.873 22.2587 253.761 23.3413 253.537 24.376C253.324 25.4 252.961 26.3653 252.449 27.272C251.948 28.1787 251.255 29.0213 250.369 29.8C249.495 30.568 248.401 31.272 247.089 31.912L245.969 30.232C247.399 29.5387 248.535 28.776 249.377 27.944C250.231 27.1013 250.844 26.152 251.217 25.096C251.591 24.0293 251.777 22.8347 251.777 21.512V21.128ZM246.769 21.128H252.769V22.824H246.769V21.128Z" fill="#111111"/>
<defs>
<clipPath id="clip0_442_673">
<rect width="17" height="16" fill="white" transform="translate(31 19.5)"/>
</clipPath>
</defs>
</svg>
